<svg width="1034" height="355" viewBox="0 0 1034 355" fill="none" xmlns="http://www.w3.org/2000/svg">
<path d="M906.285 66.8947C816.343 93.214 719.462 93.214 629.52 66.8947C635.116 51.3663 640.716 35.838 646.319 20.3096C725.341 43.4381 810.464 43.4381 889.486 20.3096C895.089 35.838 900.689 51.3663 906.285 66.8947Z" fill="#7694FF"/>
<path d="M689.024 45.0192L693.263 45.7651C693.699 48.1418 694.149 50.5235 694.613 52.9102C695.97 50.8219 697.309 48.7261 698.628 46.6228C700.052 46.8465 701.482 47.0628 702.917 47.2717C701.013 50.1506 699.081 53.0246 697.121 55.8936C697.745 58.2156 698.385 60.5352 699.042 62.8522C702.354 57.9297 705.558 52.9798 708.655 48.0026C710.31 48.2263 711.994 48.4377 713.705 48.6366C709.449 55.0458 705.02 61.3954 700.416 67.6853C699.042 67.4914 697.676 67.29 696.277 67.0812C695.349 64.0232 694.461 60.9628 693.611 57.8999C691.635 60.5103 689.623 63.1058 687.575 65.6864C686.209 65.4552 684.851 65.2166 683.485 64.9406C681.608 57.6015 679.914 50.2699 678.401 42.9458C680.057 43.2789 681.699 43.6021 683.328 43.9154C684.349 49.5589 685.469 55.2049 686.689 60.8534C688.179 58.8645 689.648 56.8756 691.094 54.8867C690.376 51.605 689.686 48.3158 689.024 45.0192Z" fill="white"/>
<path d="M731.15 67.5213C731.034 68.6848 730.927 69.8483 730.811 71.0193C724.949 70.5668 719.098 70.0025 713.258 69.3262C714.224 62.5242 715.187 55.7196 716.148 48.9126C721.59 49.5391 727.035 50.0637 732.483 50.4863C732.367 51.6498 732.26 52.8208 732.144 53.9843C728.214 53.6711 724.284 53.3106 720.354 52.9028C720.139 54.5437 719.932 56.1845 719.716 57.8254C723.161 58.1884 726.602 58.5091 730.041 58.7875L729.718 62.0245C726.24 61.741 722.769 61.4178 719.302 61.0549C719.079 62.83 718.847 64.6051 718.623 66.3802C722.774 66.8128 726.95 67.1931 731.15 67.5213Z" fill="white"/>
<path d="M734.668 71.3028C735.254 64.456 735.839 57.6142 736.424 50.7773C737.98 50.8892 739.537 50.9862 741.093 51.0831L739.851 68.1032C744.124 68.3568 748.399 68.5507 752.676 68.6849C752.627 69.8559 752.585 71.0194 752.536 72.1904C746.574 72.0164 740.619 71.7205 734.668 71.3028Z" fill="white"/>
<path d="M752.809 61.7709C752.861 60.4838 753.187 59.2177 753.77 58.0417C754.36 56.834 755.204 55.7401 756.254 54.8197C757.359 53.8647 758.654 53.1056 760.07 52.5821C761.666 51.9903 763.38 51.7033 765.104 51.7393C767.106 51.706 769.084 52.1348 770.85 52.9849C772.383 53.7148 773.657 54.8184 774.526 56.1696C773.326 56.9155 772.125 57.6091 770.908 58.3251C770.617 57.7694 770.219 57.2644 769.733 56.8334C769.297 56.4549 768.8 56.1381 768.259 55.8937C767.732 55.6632 767.176 55.4904 766.603 55.379C766.058 55.2786 765.503 55.2237 764.947 55.215C763.876 55.1859 762.812 55.3853 761.842 55.7967C760.982 56.1823 760.224 56.732 759.623 57.4077C759.013 58.0478 758.543 58.787 758.241 59.5856C757.924 60.3684 757.748 61.1917 757.719 62.0245C757.694 62.9202 757.851 63.8125 758.183 64.6573C758.493 65.486 758.984 66.2505 759.627 66.9062C760.269 67.5619 761.051 68.0956 761.925 68.476C762.858 68.8779 763.88 69.0844 764.914 69.0801C765.509 69.0787 766.103 69.0237 766.686 68.916C767.295 68.8008 767.885 68.6153 768.441 68.3641C768.991 68.097 769.493 67.7577 769.931 67.3572C770.411 66.9512 770.794 66.4614 771.057 65.9178C772.382 66.5368 773.723 67.1484 775.065 67.76C774.678 68.5446 774.114 69.2482 773.409 69.826C772.661 70.4243 771.825 70.9263 770.925 71.3176C769.964 71.7349 768.953 72.0502 767.911 72.2574C766.875 72.4636 765.817 72.5661 764.757 72.5632C763.04 72.5704 761.343 72.2341 759.789 71.5787C758.357 70.9684 757.067 70.1179 755.989 69.0727C754.954 68.0692 754.142 66.8971 753.596 65.6194C753.047 64.3977 752.78 63.0885 752.809 61.7709Z" fill="white"/>
<path d="M789.065 72.131C787.333 72.2292 785.597 71.9953 783.973 71.4448C782.5 70.943 781.152 70.1824 780.007 69.2073C778.911 68.2728 778.03 67.1525 777.416 65.9107C776.805 64.6883 776.478 63.3668 776.454 62.0267C776.43 60.6866 776.709 59.3562 777.275 58.1166C778.153 56.1667 779.634 54.4849 781.542 53.2711C783.45 52.0573 785.705 51.3627 788.038 51.2698C789.68 51.1801 791.324 51.4116 792.857 51.9485C795.69 52.9495 798.01 54.8635 799.365 57.3186C800.029 58.4794 800.434 59.7464 800.557 61.0478C800.676 62.3943 800.481 63.7483 799.986 65.0231C799.488 66.31 798.715 67.496 797.709 68.5137C796.656 69.5658 795.384 70.4222 793.966 71.0346C792.431 71.6929 790.764 72.0658 789.065 72.131ZM781.324 61.9726C781.356 62.8494 781.555 63.7146 781.912 64.5309C782.256 65.3321 782.767 66.0663 783.418 66.6938C784.121 67.3557 784.978 67.8695 785.927 68.1983C786.876 68.5271 787.894 68.6628 788.908 68.5957C789.937 68.5761 790.948 68.3464 791.864 67.924C792.78 67.5015 793.579 66.8973 794.198 66.1568C794.775 65.4703 795.199 64.6905 795.448 63.8596C795.701 63.0373 795.799 62.1827 795.738 61.3312C795.675 60.4531 795.439 59.5921 795.043 58.7879C794.666 58.0033 794.136 57.2859 793.478 56.6697C792.818 56.0628 792.026 55.5854 791.151 55.2675C790.201 54.9323 789.181 54.7872 788.163 54.8424C787.108 54.8787 786.076 55.1339 785.149 55.5882C784.306 55.9888 783.569 56.5485 782.988 57.2291C782.413 57.8986 781.978 58.6568 781.705 59.4666C781.428 60.2779 781.299 61.1242 781.324 61.9726Z" fill="white"/>
<path d="M825.859 68.9383L823.831 55.4236C822.241 59.0335 820.585 62.6334 818.863 66.2234L816.222 66.4994C813.644 63.3619 811.122 60.202 808.654 57.0197C809.151 61.5395 809.645 66.0593 810.136 70.5791C808.481 70.7208 806.825 70.8625 805.169 70.9893C804.517 64.1574 803.861 57.3231 803.198 50.4862C804.854 50.3519 806.51 50.2177 808.166 50.0685C810.959 53.738 813.821 57.3852 816.752 61.01C818.717 56.878 820.596 52.7312 822.39 48.5694C824.046 48.3655 825.702 48.1567 827.358 47.9429L830.669 68.3043C829.171 68.5281 827.515 68.7369 825.859 68.9383Z" fill="white"/>
<path d="M852.66 61.3158L853.43 64.7541C847.64 65.8032 841.83 66.748 836.001 67.5883C834.809 60.8161 833.611 54.0414 832.408 47.2642C837.823 46.4885 843.224 45.6109 848.611 44.6313L849.381 48.0697C845.49 48.7757 841.593 49.4296 837.69 50.0312C838.005 51.6572 838.311 53.2905 838.618 54.9165C842.034 54.3894 845.448 53.8226 848.859 53.216L849.555 56.4007C846.122 57.0123 842.68 57.5841 839.23 58.1161C839.562 59.8763 839.901 61.6365 840.232 63.4041C844.389 62.7627 848.531 62.0666 852.66 61.3158Z" fill="white"/>
<path d="M855.905 56.3859L852.899 43.6246C854.381 43.3412 855.872 43.0503 857.354 42.752C858.413 46.9883 859.47 51.2297 860.525 55.476C858.976 55.7892 857.445 56.0876 855.905 56.3859ZM857.693 63.9562C857.354 62.5316 857.014 61.0996 856.683 59.675C858.24 59.3767 859.791 59.0709 861.336 58.7577L862.404 63.0313C860.831 63.3446 859.266 63.628 857.693 63.9562Z" fill="white"/>
<g opacity="0.1">
<path opacity="0.1" d="M649.291 26.3369C649.378 27.2838 649.286 28.2372 649.018 29.1562C648.773 30.0715 648.469 30.973 648.107 31.8561C647.404 33.6229 646.485 35.3139 645.367 36.898C645.913 35.0781 646.633 33.3329 647.337 31.5876L648.397 28.9846C648.763 28.1219 649.062 27.2371 649.291 26.3369Z" fill="black"/>
<path opacity="0.1" d="M650.119 26.9473C650.569 27.6482 650.912 28.4009 651.138 29.1848C651.376 29.9696 651.545 30.7701 651.643 31.5789C651.841 33.198 651.726 34.8357 651.303 36.4194C651.187 35.6065 651.138 34.8159 651.063 34.0178C650.988 33.2198 650.906 32.4441 650.823 31.661C650.641 30.1022 650.409 28.5732 650.119 26.9473Z" fill="black"/>
<path opacity="0.1" d="M652.081 26.3359C652.715 26.9427 653.396 27.5084 654.118 28.029C654.821 28.5419 655.568 29.0033 656.353 29.4088C657.149 29.8225 657.979 30.1792 658.837 30.4754C659.665 30.7961 660.568 31.0198 661.47 31.2958C660.516 31.3406 659.561 31.2499 658.638 31.0273C656.738 30.6081 655.007 29.7135 653.646 28.4467C652.982 27.8379 652.451 27.1218 652.081 26.3359Z" fill="black"/>
</g>
<g opacity="0.1">
<path opacity="0.1" d="M887.193 26.3359C887.422 27.2387 887.721 28.1259 888.088 28.9911L889.156 31.5568C889.859 33.3021 890.571 35.0474 891.118 36.8672C890.006 35.2776 889.087 33.5847 888.377 31.8179C888.014 30.9358 887.713 30.034 887.475 29.1179C887.205 28.2119 887.11 27.2709 887.193 26.3359Z" fill="black"/>
<path opacity="0.1" d="M886.374 26.9473C886.084 28.5434 885.852 30.1022 885.67 31.6759C885.579 32.459 885.496 33.2422 885.43 34.0327C885.364 34.8233 885.297 35.6214 885.181 36.4344C884.758 34.8507 884.644 33.2129 884.842 31.5939C884.94 30.785 885.109 29.9845 885.347 29.1997C885.574 28.4103 885.919 27.6524 886.374 26.9473Z" fill="black"/>
<path opacity="0.1" d="M884.411 26.3369C884.027 27.1267 883.482 27.845 882.805 28.4551C881.464 29.7084 879.76 30.5996 877.887 31.0282C876.968 31.2511 876.015 31.3417 875.064 31.2967C875.966 31.0208 876.844 30.797 877.689 30.4763C879.376 29.8734 880.955 29.049 882.375 28.03C883.097 27.5094 883.777 26.9436 884.411 26.3369Z" fill="black"/>
</g>
<path d="M652.082 26.336C652.082 26.6856 651.967 27.0274 651.751 27.318C651.535 27.6087 651.229 27.8353 650.87 27.9691C650.512 28.1029 650.117 28.1379 649.737 28.0697C649.356 28.0015 649.006 27.8331 648.732 27.5859C648.458 27.3387 648.271 27.0237 648.195 26.6808C648.119 26.338 648.158 25.9825 648.307 25.6596C648.455 25.3366 648.707 25.0605 649.029 24.8663C649.352 24.672 649.731 24.5684 650.119 24.5684C650.64 24.5684 651.139 24.7546 651.507 25.0861C651.875 25.4176 652.082 25.8672 652.082 26.336Z" fill="#263238"/>
<path d="M887.649 26.336C887.649 26.6856 887.534 27.0274 887.318 27.318C887.102 27.6087 886.796 27.8353 886.437 27.9691C886.079 28.1029 885.684 28.1379 885.304 28.0697C884.923 28.0015 884.573 27.8331 884.299 27.5859C884.024 27.3387 883.838 27.0237 883.762 26.6808C883.686 26.338 883.725 25.9825 883.873 25.6596C884.022 25.3366 884.274 25.0605 884.596 24.8663C884.919 24.672 885.298 24.5684 885.686 24.5684C886.207 24.5684 886.706 24.7546 887.074 25.0861C887.442 25.4176 887.649 25.8672 887.649 26.336Z" fill="#263238"/>
<path d="M769.185 340.589C845.664 340.589 907.661 336.809 907.661 332.146C907.661 327.484 845.664 323.704 769.185 323.704C692.707 323.704 630.709 327.484 630.709 332.146C630.709 336.809 692.707 340.589 769.185 340.589Z" fill="#F5F5F5"/>
<path d="M898.707 285.763C896.998 284.252 894.79 282.433 892.177 283.081C889.721 283.693 888.781 286.112 888.34 288.121C887.774 290.718 887.333 293.336 886.874 295.949C886.415 298.562 885.974 301.216 885.556 303.874C885.319 305.365 885.084 306.851 884.85 308.331C884.738 309.076 884.621 309.826 884.508 310.571C884.396 311.317 884.256 312.034 884.211 312.771C884.211 313.006 884.607 313.043 884.661 312.816C884.981 311.572 885.111 310.28 885.313 309.016C885.516 307.751 885.718 306.475 885.925 305.203C886.334 302.679 886.762 300.159 887.18 297.639C887.598 295.118 888.039 292.594 888.489 290.074C888.866 287.939 889.046 285.281 891.147 283.875C891.717 283.521 892.377 283.305 893.066 283.247C893.755 283.189 894.449 283.291 895.082 283.543C896.463 284.017 897.569 284.908 898.653 285.792C898.659 285.795 898.665 285.796 898.671 285.796C898.678 285.796 898.684 285.794 898.689 285.792C898.695 285.789 898.699 285.785 898.703 285.78C898.706 285.775 898.707 285.769 898.707 285.763Z" fill="#263238"/>
<path d="M896.368 284.22C896.368 284.22 892.874 283.089 891.151 285.383C889.428 287.676 891.488 293.518 907.387 296.812C906.922 292.336 905.63 287.96 903.564 283.867C900.155 277.17 894.079 279.706 896.368 284.22Z" fill="#7694FF"/>
<path d="M906.474 295.86C906.235 295.458 905.968 295.069 905.674 294.698C905.408 294.329 905.138 293.96 904.869 293.596L904.248 292.785C904.248 292.72 904.248 292.652 904.275 292.583L904.329 292.21C904.369 291.943 904.414 291.675 904.455 291.4C904.495 291.124 904.549 290.865 904.608 290.589C904.645 290.303 904.714 290.02 904.815 289.747C904.815 289.706 904.752 289.686 904.743 289.747C904.711 289.908 904.665 290.067 904.603 290.221L904.495 290.581C904.419 290.853 904.347 291.124 904.279 291.392C904.212 291.659 904.162 291.898 904.113 292.153C904.113 292.275 904.072 292.396 904.054 292.518C903.771 292.153 903.479 291.793 903.182 291.44C902.336 290.439 901.446 289.475 900.519 288.535C900.519 288.535 900.519 288.535 900.519 288.507C900.605 287.004 900.564 285.513 900.933 284.05C900.933 284.01 900.875 283.985 900.866 284.026C900.446 285.421 900.247 286.863 900.272 288.308C899.939 287.976 899.606 287.644 899.269 287.316C898.491 286.566 897.704 285.829 896.899 285.103C896.867 285.075 896.813 285.103 896.845 285.148C898.194 286.449 899.458 287.802 900.699 289.2C899.728 289.185 898.757 289.218 897.789 289.297C896.714 289.37 895.639 289.491 894.569 289.625C894.524 289.625 894.537 289.694 894.569 289.69C895.633 289.551 896.705 289.464 897.78 289.431C898.819 289.39 899.849 289.431 900.888 289.431C901.558 290.18 902.237 290.93 902.872 291.691H902.723C902.48 291.691 902.237 291.691 901.995 291.691C901.509 291.691 901.028 291.732 900.546 291.768C899.558 291.842 898.577 291.978 897.609 292.174C897.602 292.176 897.597 292.18 897.592 292.185C897.588 292.191 897.586 292.197 897.586 292.204C897.586 292.211 897.588 292.217 897.592 292.222C897.597 292.228 897.602 292.232 897.609 292.234C898.585 292.137 899.566 292.052 900.546 292.024C900.996 292.024 901.486 292.024 901.954 292.024H902.687C902.822 292.042 902.959 292.031 903.087 291.991C903.537 292.494 903.942 292.992 904.365 293.494C904.702 293.9 905.035 294.305 905.363 294.71C905.692 295.115 906.002 295.581 906.371 295.97C906.379 295.976 906.388 295.981 906.398 295.984C906.408 295.986 906.418 295.988 906.429 295.987C906.439 295.986 906.449 295.983 906.459 295.979C906.468 295.975 906.476 295.969 906.483 295.962C906.49 295.955 906.495 295.946 906.498 295.937C906.502 295.928 906.503 295.919 906.502 295.909C906.501 295.9 906.498 295.891 906.494 295.882C906.489 295.874 906.482 295.867 906.474 295.86Z" fill="#263238"/>
<path d="M897.889 287.473C897.325 287.409 896.757 287.384 896.189 287.4C895.622 287.4 895.051 287.4 894.484 287.433C894.475 287.433 894.466 287.436 894.459 287.442C894.452 287.448 894.448 287.457 894.448 287.465C894.448 287.474 894.452 287.482 894.459 287.488C894.466 287.494 894.475 287.498 894.484 287.498C895.06 287.461 895.636 287.449 896.211 287.457C896.787 287.465 897.327 287.514 897.88 287.502L897.889 287.473Z" fill="#263238"/>
<path d="M902.876 288.628C902.943 288.142 903.011 287.647 903.128 287.165C903.128 287.161 903.127 287.157 903.125 287.153C903.123 287.149 903.121 287.145 903.117 287.142C903.114 287.139 903.11 287.137 903.106 287.135C903.101 287.134 903.097 287.133 903.092 287.133C903.087 287.133 903.082 287.134 903.078 287.135C903.074 287.137 903.07 287.139 903.066 287.142C903.063 287.145 903.06 287.149 903.059 287.153C903.057 287.157 903.056 287.161 903.056 287.165C902.975 287.647 902.871 288.125 902.791 288.608L902.683 289.333C902.637 289.557 902.616 289.785 902.62 290.014C902.623 290.023 902.629 290.031 902.638 290.036C902.646 290.042 902.656 290.045 902.667 290.045C902.677 290.045 902.688 290.042 902.696 290.036C902.705 290.031 902.711 290.023 902.714 290.014C902.761 289.788 902.788 289.559 902.795 289.329C902.817 289.094 902.849 288.863 902.876 288.628Z" fill="#263238"/>
<path d="M881.126 312.261C881.04 311.358 880.942 310.458 880.838 309.555C880.628 307.772 880.39 305.992 880.123 304.215C879.858 302.44 879.601 300.661 879.286 298.899C879.171 298.073 878.968 297.259 878.679 296.468C878.576 296.131 878.389 295.82 878.132 295.559C877.874 295.297 877.554 295.093 877.195 294.961C875.324 294.377 874.047 296.123 873.309 297.359C873.304 297.367 873.303 297.376 873.305 297.384C873.308 297.392 873.314 297.399 873.322 297.404C873.331 297.408 873.341 297.409 873.35 297.407C873.359 297.405 873.367 297.399 873.372 297.392C873.822 296.808 875.072 295.163 876.493 295.24C877.447 295.293 878.211 295.901 878.67 298.044C879.813 303.388 880.843 314.25 880.96 314.943C881.027 315.32 881.319 315.304 881.324 314.899C881.328 314.032 881.216 313.14 881.126 312.261Z" fill="#263238"/>
<path d="M873.812 296.711C873.812 296.711 875.445 291.513 871.833 294.11C865.815 298.441 865.604 307.857 865.604 307.857C865.604 307.857 876.299 302.262 877.626 298.571C879.632 293.073 873.812 296.711 873.812 296.711Z" fill="#7694FF"/>
<path d="M875.837 299.275C874.995 299.425 874.145 299.527 873.3 299.636L872.094 299.79C871.825 299.822 871.55 299.847 871.276 299.875C872.072 298.887 872.877 297.902 873.642 296.893C873.669 296.857 873.606 296.816 873.57 296.849C872.932 297.436 872.331 298.056 871.771 298.704C871.613 298.299 871.451 297.894 871.294 297.489C871.137 297.084 870.916 296.561 870.786 296.079C870.786 296.038 870.705 296.058 870.718 296.099C870.862 296.577 870.966 297.063 871.109 297.541C871.253 298.019 871.402 298.457 871.559 298.907C871.168 299.365 870.79 299.835 870.426 300.309C870.241 299.839 870.012 299.385 869.855 298.907C869.852 298.898 869.845 298.891 869.836 298.887C869.827 298.883 869.817 298.882 869.807 298.884C869.798 298.887 869.79 298.893 869.785 298.901C869.781 298.909 869.78 298.918 869.783 298.927C869.976 299.454 870.08 300.001 870.259 300.548C870.012 300.872 869.769 301.196 869.535 301.52C869.086 302.124 868.694 302.736 868.298 303.351C868.267 303.363 868.242 303.384 868.225 303.41C868.208 303.437 868.2 303.467 868.204 303.497C867.525 304.551 866.886 305.62 866.248 306.698C866.248 306.734 866.293 306.763 866.311 306.726C866.949 305.665 867.66 304.628 868.388 303.607C868.501 303.575 868.617 303.555 868.735 303.546L869.108 303.473C869.382 303.42 869.657 303.355 869.931 303.295C870.475 303.173 871.011 303.056 871.564 302.971C871.609 302.971 871.586 302.902 871.564 302.91C870.916 303.019 870.268 303.088 869.612 303.157C869.301 303.189 868.996 303.222 868.712 303.266H868.667C869.048 302.74 869.438 302.217 869.837 301.698C870.223 301.192 870.624 300.689 871.024 300.191C871.397 300.143 871.762 300.053 872.13 299.993L873.372 299.774C874.199 299.628 875.027 299.458 875.859 299.336C875.904 299.32 875.881 299.275 875.837 299.275Z" fill="#263238"/>
<path d="M869.409 299.778C869.359 299.64 869.314 299.502 869.265 299.373C869.164 299.087 869.082 298.796 869.017 298.502C869.017 298.461 868.941 298.477 868.95 298.502C869.022 298.798 869.094 299.089 869.17 299.381C869.236 299.676 869.33 299.966 869.449 300.248C869.457 300.26 869.469 300.27 869.483 300.275C869.498 300.28 869.514 300.281 869.529 300.276C869.544 300.272 869.556 300.263 869.565 300.251C869.573 300.24 869.577 300.225 869.575 300.212C869.526 300.086 869.463 299.924 869.409 299.778Z" fill="#263238"/>
<path d="M876.933 298.06C876.447 298.129 875.957 298.157 875.462 298.198C874.968 298.238 874.482 298.299 873.996 298.364C873.969 298.364 873.965 298.404 873.996 298.4C874.486 298.372 874.977 298.336 875.467 298.279C875.957 298.222 876.443 298.157 876.938 298.125C876.978 298.125 876.974 298.06 876.933 298.06Z" fill="#263238"/>
<path d="M889.001 305.673C888.808 301.844 888.551 298.023 888.102 294.207C887.89 292.306 887.652 290.41 887.355 288.534C887.091 286.676 886.683 284.836 886.136 283.028C885.759 281.623 885.067 280.302 884.103 279.147C883.628 278.584 883 278.14 882.281 277.856C881.562 277.572 880.774 277.459 879.992 277.526C878.13 277.733 876.633 278.786 875.337 279.933C873.884 281.221 872.553 282.627 871.208 284.005C870.867 284.353 870.529 284.702 870.192 285.054C870.165 285.086 870.214 285.131 870.246 285.099C871.564 283.737 872.944 282.412 874.361 281.148C875.684 279.977 877.06 278.717 878.859 278.215C879.711 277.971 880.622 277.952 881.485 278.162C882.173 278.356 882.793 278.708 883.285 279.183C884.319 280.152 884.895 281.46 885.308 282.724C886.451 286.245 886.86 289.936 887.283 293.571C887.733 297.266 888.007 300.969 888.214 304.676C888.421 308.383 888.583 312.135 888.979 315.854C889.028 316.312 889.096 316.77 889.163 317.228C889.203 317.536 889.734 317.536 889.707 317.228C889.388 313.367 889.19 309.522 889.001 305.673Z" fill="#263238"/>
<path d="M875.135 280.343C875.135 280.343 877.564 276.291 874.685 274.999C871.807 273.706 862.218 283.353 859.393 297.469C859.393 297.469 874.896 291.286 880.163 285.128C885.43 278.969 879.466 277.616 875.135 280.343Z" fill="#7694FF"/>
<path d="M877.383 283.632C875.643 283.632 873.902 283.515 872.162 283.527C872.485 283.187 872.814 282.85 873.142 282.514C873.625 282.065 874.076 281.589 874.491 281.088C874.491 281.056 874.464 281.011 874.428 281.035C873.956 281.401 873.515 281.8 873.111 282.227C872.661 282.632 872.238 283.065 871.806 283.487C871.141 284.135 870.489 284.795 869.836 285.456C869.836 285.391 869.836 285.326 869.836 285.265C869.836 284.99 869.836 284.714 869.836 284.455C869.836 283.924 869.836 283.393 869.836 282.859C869.836 281.781 869.836 280.695 869.926 279.617C869.926 279.577 869.859 279.577 869.854 279.617C869.773 280.699 869.647 281.777 869.589 282.859C869.562 283.393 869.544 283.924 869.54 284.459C869.54 284.734 869.54 285.01 869.54 285.269C869.54 285.419 869.54 285.577 869.54 285.735C869.441 285.837 869.333 285.938 869.234 286.043C867.844 287.473 866.535 288.952 865.231 290.459C865.231 290.378 865.231 290.293 865.208 290.212C865.208 290.046 865.168 289.88 865.15 289.714C865.105 289.353 865.046 288.993 864.988 288.636C864.929 288.28 864.875 287.964 864.812 287.627C864.75 287.291 864.637 286.866 864.606 286.485C864.606 286.476 864.602 286.468 864.595 286.462C864.588 286.456 864.579 286.452 864.57 286.452C864.56 286.452 864.551 286.456 864.544 286.462C864.537 286.468 864.534 286.476 864.534 286.485C864.608 286.864 864.657 287.247 864.682 287.631C864.718 287.98 864.754 288.324 864.785 288.669C864.817 289.013 864.857 289.361 864.898 289.706L864.952 290.204C864.952 290.285 864.952 290.37 864.983 290.451C864.992 290.522 865.018 290.59 865.06 290.65C864.839 290.909 864.61 291.168 864.399 291.432C863.499 292.477 862.654 293.539 861.79 294.596C861.763 294.628 861.817 294.677 861.844 294.641C862.663 293.68 863.504 292.74 864.354 291.805C864.992 291.829 865.645 291.805 866.283 291.776H868.298C868.308 291.776 868.317 291.773 868.324 291.767C868.33 291.761 868.334 291.752 868.334 291.744C868.334 291.735 868.33 291.727 868.324 291.721C868.317 291.715 868.308 291.711 868.298 291.711C867.624 291.711 866.949 291.732 866.279 291.736C865.609 291.74 865.042 291.711 864.43 291.736C865.177 290.925 865.937 290.115 866.679 289.284L867.511 288.397C867.769 288.43 868.03 288.438 868.289 288.421H869.189C869.76 288.421 870.331 288.421 870.907 288.401C872.09 288.401 873.273 288.349 874.455 288.349C874.465 288.349 874.474 288.345 874.481 288.339C874.488 288.333 874.491 288.325 874.491 288.316C874.491 288.308 874.488 288.299 874.481 288.293C874.474 288.287 874.465 288.284 874.455 288.284C873.268 288.284 872.085 288.223 870.898 288.199C870.327 288.199 869.755 288.166 869.18 288.158H868.28C868.105 288.158 867.929 288.158 867.749 288.158C868.402 287.465 869.049 286.768 869.706 286.076C869.721 286.065 869.734 286.051 869.742 286.035C870.376 285.362 871.01 284.686 871.653 284.009C871.743 283.916 871.833 283.827 871.919 283.734C873.718 283.786 875.517 283.677 877.316 283.709C877.442 283.697 877.437 283.632 877.383 283.632Z" fill="#263238"/>
<path d="M876.484 286.408H876.061C876.052 286.408 876.044 286.411 876.039 286.416C876.033 286.421 876.029 286.429 876.029 286.436C876.029 286.444 876.033 286.451 876.039 286.457C876.044 286.462 876.052 286.465 876.061 286.465H876.484C876.489 286.462 876.494 286.458 876.497 286.453C876.5 286.448 876.502 286.442 876.502 286.436C876.502 286.43 876.5 286.425 876.497 286.42C876.494 286.415 876.489 286.411 876.484 286.408Z" fill="#263238"/>
<path d="M875.584 286.412C875.027 286.412 874.469 286.412 873.911 286.38L873.075 286.359C872.816 286.329 872.555 286.329 872.297 286.359C872.27 286.359 872.297 286.4 872.297 286.404C872.553 286.45 872.814 286.467 873.075 286.452C873.354 286.452 873.632 286.452 873.916 286.452C874.474 286.452 875.031 286.452 875.589 286.452C875.611 286.477 875.611 286.412 875.584 286.412Z" fill="#263238"/>
<path d="M870.691 291.128C869.556 290.958 868.409 290.865 867.259 290.849C867.259 290.849 867.259 290.869 867.259 290.873C868.402 290.97 869.54 291.023 870.673 291.189C870.718 291.197 870.736 291.132 870.691 291.128Z" fill="#263238"/>
<path d="M866.027 286.635C866.027 286.542 866.027 286.453 865.991 286.364C865.964 286.161 865.928 285.958 865.892 285.76C865.824 285.375 865.752 284.994 865.671 284.613C865.671 284.577 865.595 284.585 865.599 284.613C865.653 285.018 865.698 285.403 865.743 285.8L865.797 286.384C865.791 286.571 865.82 286.757 865.883 286.935C865.892 286.947 865.904 286.957 865.919 286.963C865.934 286.968 865.95 286.971 865.966 286.968C865.982 286.966 865.997 286.96 866.01 286.951C866.022 286.941 866.031 286.929 866.036 286.915C866.052 286.822 866.049 286.727 866.027 286.635Z" fill="#263238"/>
<path d="M888.848 275.145C888.291 274.213 887.584 272.985 886.199 273.062C885.057 273.127 884.54 274.176 884.297 275.047C883.541 277.734 883.487 280.57 883.339 283.325C883.028 289.147 882.749 294.973 882.709 300.803C882.709 302.424 882.709 304.045 882.709 305.665C882.709 307.31 882.709 308.967 882.835 310.612C882.835 310.645 882.849 310.675 882.874 310.698C882.9 310.721 882.934 310.734 882.97 310.734C883.006 310.734 883.04 310.721 883.065 310.698C883.091 310.675 883.105 310.645 883.105 310.612C883.105 309.202 883.06 307.776 883.055 306.382C883.051 304.989 883.055 303.631 883.082 302.254C883.13 299.469 883.213 296.684 883.33 293.899C883.447 291.132 883.582 288.365 883.712 285.598C883.775 284.216 883.838 282.835 883.91 281.449C883.982 280.063 884.04 278.771 884.211 277.438C884.306 276.692 884.427 275.943 884.602 275.209C884.689 274.663 884.936 274.146 885.318 273.714C885.582 273.48 885.931 273.338 886.301 273.315C886.671 273.291 887.038 273.387 887.337 273.585C887.971 273.996 888.467 274.557 888.772 275.205C888.808 275.213 888.866 275.181 888.848 275.145Z" fill="#263238"/>
<path d="M888.47 274.699C888.47 274.699 887.332 271.076 889.851 272.887C894.043 275.902 894.191 282.461 894.191 282.461C894.191 282.461 886.739 278.564 885.812 275.979C884.431 272.162 888.47 274.699 888.47 274.699Z" fill="#7694FF"/>
<path d="M892.622 279.775C892.554 279.674 892.482 279.576 892.41 279.475C892.419 279.373 892.419 279.27 892.41 279.167V278.701C892.41 278.393 892.433 278.09 892.451 277.782C892.451 277.741 892.379 277.741 892.379 277.782C892.361 278.081 892.347 278.381 892.338 278.681C892.338 278.831 892.338 278.981 892.338 279.131C892.338 279.192 892.338 279.256 892.338 279.325C892.046 278.92 891.745 278.515 891.439 278.11C891.349 277.992 891.254 277.879 891.16 277.765C891.124 277.372 891.124 276.976 891.16 276.582C891.16 276.177 891.16 275.74 891.191 275.322C891.191 275.314 891.188 275.305 891.181 275.299C891.174 275.293 891.165 275.29 891.155 275.29C891.146 275.29 891.137 275.293 891.13 275.299C891.123 275.305 891.119 275.314 891.119 275.322C891.119 275.76 891.083 276.197 891.056 276.635C891.027 276.946 891.018 277.259 891.029 277.571C890.31 276.692 889.545 275.841 888.781 274.994C888.754 274.97 888.7 274.994 888.727 275.035C889.203 275.582 889.662 276.141 890.112 276.708C889.235 276.522 888.344 276.416 887.454 276.303C887.409 276.303 887.391 276.359 887.454 276.364C888.398 276.493 889.325 276.704 890.256 276.89C890.611 277.344 890.962 277.802 891.313 278.256C891.457 278.442 891.596 278.628 891.736 278.819H891.695L891.407 278.786C891.2 278.762 890.993 278.746 890.787 278.734C890.359 278.701 889.928 278.681 889.496 278.661C889.451 278.661 889.451 278.726 889.496 278.726C889.919 278.726 890.341 278.762 890.76 278.807L891.425 278.876L891.718 278.908H891.803L892.518 279.86C892.941 280.419 893.314 281.019 893.764 281.562C893.77 281.566 893.777 281.569 893.785 281.57C893.792 281.57 893.8 281.568 893.806 281.565C893.813 281.561 893.818 281.556 893.821 281.549C893.824 281.543 893.824 281.536 893.822 281.529C893.463 280.923 893.062 280.337 892.622 279.775Z" fill="#263238"/>
<path d="M890.768 275.683V275.258C890.759 274.962 890.772 274.665 890.808 274.371C890.808 274.362 890.804 274.354 890.798 274.348C890.791 274.342 890.782 274.338 890.772 274.338C890.763 274.338 890.754 274.342 890.747 274.348C890.74 274.354 890.736 274.362 890.736 274.371C890.736 274.663 890.701 274.954 890.687 275.25C890.687 275.396 890.687 275.542 890.687 275.688V275.89C890.674 275.96 890.674 276.031 890.687 276.101C890.687 276.108 890.691 276.116 890.696 276.121C890.702 276.126 890.71 276.129 890.719 276.129C890.727 276.129 890.735 276.126 890.741 276.121C890.747 276.116 890.75 276.108 890.75 276.101C890.761 276.036 890.761 275.971 890.75 275.906L890.768 275.683Z" fill="#263238"/>
<path d="M889.846 277.182C889.567 277.142 889.284 277.125 889.005 277.105C888.726 277.085 888.389 277.056 888.083 277.024C888.078 277.022 888.072 277.022 888.066 277.022C888.06 277.023 888.055 277.025 888.05 277.028C888.045 277.031 888.041 277.035 888.039 277.039C888.036 277.044 888.035 277.049 888.035 277.054C888.035 277.06 888.036 277.065 888.039 277.069C888.041 277.074 888.045 277.078 888.05 277.081C888.055 277.084 888.06 277.086 888.066 277.087C888.072 277.087 888.078 277.087 888.083 277.085C888.668 277.121 889.257 277.214 889.846 277.235C889.873 277.235 889.878 277.186 889.846 277.182Z" fill="#263238"/>
<path d="M889.018 294.475C887.453 293.417 886.045 291.894 883.936 291.821C882.195 291.756 880.977 292.935 880.279 294.252C879.931 294.951 879.647 295.675 879.429 296.415C879.13 297.409 878.83 298.406 878.53 299.406C877.986 301.371 877.518 303.36 877.136 305.357C876.924 306.472 876.726 307.59 876.569 308.712C876.372 309.85 876.25 310.997 876.205 312.148C876.208 312.19 876.227 312.229 876.259 312.259C876.291 312.289 876.333 312.309 876.379 312.314C876.425 312.318 876.472 312.308 876.51 312.286C876.549 312.263 876.578 312.228 876.591 312.188C876.807 311.248 876.893 310.28 877.041 309.332C877.19 308.384 877.356 307.424 877.531 306.476C877.891 304.575 878.305 302.679 878.782 300.803C879.232 299.029 879.681 297.226 880.306 295.496C880.756 294.256 881.494 292.805 883.005 292.36C885.254 291.683 887.318 293.409 888.973 294.527C889.005 294.548 889.077 294.503 889.018 294.475Z" fill="#263238"/>
<path d="M887.396 293.462C887.396 293.462 885.952 289.746 888.043 289.005C891.192 287.915 899.368 296.229 897.763 308.967C897.763 308.967 891.434 305.827 886.757 302.29C882.079 298.753 880.888 294.138 882.943 292.947C884.998 291.756 887.396 293.462 887.396 293.462Z" fill="#7694FF"/>
<path d="M896.818 306.249C896.599 305.805 896.345 305.375 896.058 304.964C895.788 304.531 895.518 304.093 895.239 303.664C894.695 302.825 894.155 301.987 893.597 301.156C893.507 301.018 893.413 300.889 893.323 300.751C893.323 300.702 893.323 300.654 893.354 300.601L893.449 300.232C893.521 299.957 893.57 299.677 893.629 299.402C893.741 298.855 893.849 298.304 894.011 297.781C894.011 297.74 893.953 297.728 893.939 297.781C893.813 298.324 893.62 298.863 893.444 299.402C893.354 299.665 893.26 299.928 893.184 300.192L893.103 300.467C892.432 299.47 891.753 298.482 891.007 297.526C891.055 297.395 891.081 297.258 891.083 297.121C891.083 296.934 891.128 296.748 891.155 296.561C891.209 296.156 891.263 295.727 891.331 295.305C891.465 294.495 891.6 293.685 891.825 292.874C891.825 292.834 891.767 292.822 891.753 292.874C891.528 293.685 891.304 294.495 891.115 295.305C891.034 295.711 890.953 296.116 890.894 296.521C890.867 296.719 890.84 296.926 890.818 297.125C890.818 297.185 890.818 297.246 890.791 297.307C890.566 297.019 890.341 296.728 890.103 296.448C889.379 295.589 888.627 294.754 887.854 293.92C887.827 293.887 887.764 293.92 887.795 293.956C889.092 295.449 890.282 297.015 891.358 298.644C891.564 298.94 891.767 299.244 891.969 299.543L891.767 299.519C891.501 299.491 891.236 299.475 890.971 299.45C890.436 299.406 889.905 299.365 889.37 299.329C888.304 299.252 887.233 299.191 886.172 299.09C886.162 299.09 886.153 299.093 886.146 299.099C886.14 299.105 886.136 299.113 886.136 299.122C886.136 299.131 886.14 299.139 886.146 299.145C886.153 299.151 886.162 299.154 886.172 299.154C887.251 299.264 888.322 299.418 889.397 299.56C889.923 299.628 890.453 299.693 890.984 299.754C891.386 299.825 891.794 299.863 892.203 299.868C892.621 300.479 893.044 301.083 893.462 301.707C893.368 301.707 893.269 301.707 893.179 301.707H891.654C890.966 301.707 890.278 301.707 889.594 301.707C889.545 301.707 889.554 301.772 889.594 301.772C890.292 301.772 890.984 301.808 891.681 301.841L892.671 301.897L893.161 301.93C893.309 301.96 893.463 301.96 893.611 301.93L894.681 303.494C895.01 303.976 895.338 304.454 895.68 304.932C895.996 305.44 896.355 305.925 896.755 306.383C896.777 306.31 896.836 306.289 896.818 306.249Z" fill="#263238"/>
<path d="M893.8 295.953C893.737 296.364 893.643 296.77 893.517 297.169C893.4 297.574 893.27 297.979 893.121 298.384C893.119 298.39 893.118 298.395 893.118 298.401C893.118 298.406 893.119 298.412 893.122 298.417C893.125 298.422 893.128 298.427 893.133 298.43C893.138 298.434 893.143 298.437 893.149 298.438C893.155 298.44 893.161 298.441 893.168 298.44C893.174 298.44 893.18 298.438 893.185 298.435C893.191 298.432 893.195 298.428 893.199 298.424C893.203 298.419 893.205 298.414 893.207 298.409C893.346 298.003 893.472 297.598 893.58 297.193C893.688 296.788 893.76 296.383 893.872 295.957C893.881 295.925 893.805 295.913 893.8 295.953Z" fill="#263238"/>
<path d="M889.149 298.441C889.053 298.367 888.93 298.327 888.803 298.328L888.205 298.251C887.836 298.206 887.463 298.17 887.094 298.129C886.32 298.048 885.547 297.983 884.778 297.894C884.768 297.894 884.759 297.897 884.752 297.904C884.745 297.91 884.742 297.918 884.742 297.926C884.742 297.935 884.745 297.943 884.752 297.949C884.759 297.955 884.768 297.959 884.778 297.959C885.506 298.036 886.23 298.137 886.959 298.222C887.314 298.263 887.67 298.311 888.025 298.348L888.542 298.4C888.741 298.399 888.939 298.429 889.127 298.49C889.149 298.506 889.172 298.465 889.149 298.441Z" fill="#263238"/>
<path d="M893.791 304.044C893.427 304.016 893.058 304.004 892.693 303.996H892.14H891.875C891.76 304.006 891.644 304.006 891.529 303.996C891.479 303.996 891.475 304.065 891.529 304.06C891.636 304.048 891.745 304.048 891.852 304.06H892.136L892.689 304.089C893.053 304.109 893.422 304.129 893.786 304.129C893.793 304.13 893.799 304.129 893.805 304.127C893.81 304.125 893.816 304.122 893.82 304.118C893.825 304.115 893.829 304.11 893.831 304.105C893.834 304.1 893.836 304.094 893.836 304.089C893.836 304.083 893.835 304.078 893.833 304.072C893.831 304.067 893.828 304.062 893.824 304.058C893.819 304.054 893.814 304.051 893.809 304.048C893.803 304.046 893.797 304.045 893.791 304.044Z" fill="#263238"/>
<path d="M896.022 302.618L896.143 302.059C896.215 301.69 896.291 301.325 896.363 300.957C896.365 300.952 896.366 300.947 896.365 300.941C896.365 300.936 896.362 300.931 896.359 300.927C896.356 300.923 896.351 300.919 896.346 300.917C896.341 300.914 896.335 300.913 896.33 300.913C896.324 300.913 896.318 300.914 896.313 300.917C896.308 300.919 896.303 300.923 896.3 300.927C896.297 300.931 896.295 300.936 896.294 300.941C896.293 300.947 896.294 300.952 896.296 300.957L896.026 302.03C895.981 302.209 895.936 302.387 895.896 302.569C895.896 302.65 895.86 302.731 895.837 302.816C895.809 302.902 895.798 302.991 895.806 303.08C895.806 303.088 895.81 303.096 895.816 303.102C895.822 303.108 895.83 303.113 895.838 303.115C895.847 303.117 895.856 303.117 895.865 303.114C895.874 303.112 895.881 303.107 895.887 303.1C895.965 302.949 896.011 302.785 896.022 302.618Z" fill="#263238"/>
<path d="M874.586 310.726L875.027 315.239L876.524 330.489H889.779L891.65 315.239L892.203 310.726H874.586Z" fill="#37474F"/>
<path d="M874.586 310.726L875.027 315.239H891.65L892.203 310.726H874.586Z" fill="#263238"/>
<path d="M873.273 313.156H893.517V309.494H873.273V313.156Z" fill="#37474F"/>
<path d="M650.529 181.721H649.701V196.041H650.529V181.721Z" fill="#7694FF"/>
<path d="M650.529 201.448H649.701V208.027H650.529V201.448Z" fill="#7694FF"/>
<path d="M876.326 146.211H661.068C656.23 146.211 652.309 149.744 652.309 154.102V275.63C652.309 279.988 656.23 283.521 661.068 283.521H876.326C881.164 283.521 885.086 279.988 885.086 275.63V154.102C885.086 149.744 881.164 146.211 876.326 146.211Z" fill="#7694FF"/>
<path d="M655.224 154.095V275.63C655.224 278.534 657.837 280.888 661.061 280.888H876.327C879.55 280.888 882.164 278.534 882.164 275.63V154.095C882.164 151.191 879.55 148.837 876.327 148.837H661.061C657.837 148.837 655.224 151.191 655.224 154.095Z" fill="white"/>
<path opacity="0.6" d="M742.422 259.661V280.895H794.947V259.661C794.947 257.683 794.075 255.786 792.522 254.387C790.97 252.988 788.864 252.203 786.668 252.203H750.677C748.485 252.209 746.386 252.997 744.839 254.395C743.291 255.793 742.422 257.687 742.422 259.661Z" fill="#7694FF"/>
<path opacity="0.6" d="M808.84 259.661V280.895H861.39V259.661C861.39 257.683 860.518 255.786 858.965 254.387C857.413 252.988 855.307 252.203 853.111 252.203H817.095C814.903 252.209 812.804 252.997 811.257 254.395C809.709 255.793 808.84 257.687 808.84 259.661Z" fill="#7694FF"/>
<path opacity="0.6" d="M675.997 259.661V280.895H728.555V259.661C728.555 257.683 727.682 255.786 726.13 254.387C724.577 252.988 722.471 252.203 720.275 252.203H684.259C682.067 252.207 679.965 252.994 678.416 254.392C676.867 255.791 675.997 257.686 675.997 259.661Z" fill="#7694FF"/>
<path d="M844.036 162.143H859.279C859.839 162.143 860.375 161.942 860.771 161.586C861.167 161.229 861.39 160.745 861.39 160.241C861.39 159.991 861.335 159.744 861.229 159.513C861.123 159.282 860.967 159.073 860.771 158.896C860.575 158.719 860.343 158.579 860.086 158.484C859.83 158.388 859.556 158.339 859.279 158.339H844.036C843.477 158.341 842.941 158.542 842.546 158.898C842.15 159.254 841.927 159.737 841.925 160.241C841.927 160.745 842.15 161.227 842.546 161.583C842.941 161.94 843.477 162.141 844.036 162.143Z" fill="#7694FF"/>
<path d="M792.141 163.239C793.979 163.239 795.469 161.897 795.469 160.241C795.469 158.585 793.979 157.243 792.141 157.243C790.303 157.243 788.812 158.585 788.812 160.241C788.812 161.897 790.303 163.239 792.141 163.239Z" fill="#7694FF"/>
<path d="M785.12 160.241C785.12 160.831 784.925 161.408 784.562 161.898C784.198 162.389 783.68 162.771 783.075 162.997C782.47 163.223 781.804 163.282 781.162 163.167C780.519 163.052 779.929 162.767 779.466 162.35C779.003 161.933 778.688 161.401 778.56 160.823C778.432 160.244 778.498 159.644 778.748 159.099C778.999 158.554 779.423 158.088 779.968 157.76C780.513 157.432 781.153 157.257 781.808 157.257C782.686 157.257 783.529 157.572 784.15 158.131C784.771 158.691 785.12 159.449 785.12 160.241Z" fill="#7694FF"/>
<path d="M681.486 157.175H677.321C676.59 157.175 675.997 157.71 675.997 158.369V162.12C675.997 162.779 676.59 163.314 677.321 163.314H681.486C682.217 163.314 682.811 162.779 682.811 162.12V158.369C682.811 157.71 682.217 157.175 681.486 157.175Z" fill="#7694FF"/>
<path opacity="0.2" d="M703.409 161.188H695.461C695.182 161.188 694.915 161.088 694.718 160.91C694.52 160.733 694.41 160.492 694.41 160.241C694.41 159.989 694.52 159.749 694.718 159.571C694.915 159.393 695.182 159.293 695.461 159.293H703.409C703.688 159.293 703.956 159.393 704.153 159.571C704.35 159.749 704.461 159.989 704.461 160.241C704.461 160.492 704.35 160.733 704.153 160.91C703.956 161.088 703.688 161.188 703.409 161.188Z" fill="#263238"/>
<path opacity="0.2" d="M718.925 161.188H710.977C710.698 161.188 710.43 161.088 710.233 160.91C710.036 160.733 709.925 160.492 709.925 160.241C709.925 159.989 710.036 159.749 710.233 159.571C710.43 159.393 710.698 159.293 710.977 159.293H718.925C719.205 159.293 719.473 159.393 719.672 159.57C719.87 159.748 719.983 159.989 719.985 160.241C719.983 160.493 719.87 160.733 719.672 160.911C719.473 161.088 719.205 161.188 718.925 161.188Z" fill="#263238"/>
<path opacity="0.2" d="M734.449 161.188H726.501C726.222 161.188 725.953 161.088 725.755 160.911C725.556 160.733 725.444 160.493 725.441 160.241C725.444 159.989 725.556 159.748 725.755 159.57C725.953 159.393 726.222 159.293 726.501 159.293H734.449C734.728 159.293 734.996 159.393 735.193 159.571C735.39 159.749 735.501 159.989 735.501 160.241C735.501 160.492 735.39 160.733 735.193 160.91C734.996 161.088 734.728 161.188 734.449 161.188Z" fill="#263238"/>
<path opacity="0.2" d="M749.965 161.188H742.016C741.737 161.188 741.468 161.088 741.27 160.911C741.071 160.733 740.959 160.493 740.957 160.241C740.959 159.989 741.071 159.748 741.27 159.57C741.468 159.393 741.737 159.293 742.016 159.293H749.965C750.244 159.293 750.511 159.393 750.708 159.571C750.905 159.749 751.016 159.989 751.016 160.241C751.016 160.492 750.905 160.733 750.708 160.91C750.511 161.088 750.244 161.188 749.965 161.188Z" fill="#263238"/>
<path opacity="0.4" d="M852.077 180.537L684.129 179.755C679.289 179.732 675.345 183.248 675.32 187.608L675.067 231.677C675.042 236.037 678.946 239.59 683.786 239.612L851.733 240.395C856.573 240.417 860.517 236.901 860.542 232.541L860.795 188.472C860.82 184.112 856.917 180.56 852.077 180.537Z" fill="#7694FF"/>
<path opacity="0.4" d="M747.985 212.888L695.637 212.841C694.963 212.838 694.297 212.717 693.676 212.482C693.055 212.247 692.491 211.905 692.017 211.474C691.543 211.043 691.168 210.532 690.913 209.971C690.658 209.409 690.529 208.808 690.532 208.201C690.535 207.595 690.67 206.994 690.931 206.435C691.191 205.876 691.571 205.368 692.049 204.941C692.528 204.514 693.095 204.176 693.718 203.946C694.342 203.717 695.009 203.6 695.682 203.603L748.031 203.65C748.704 203.652 749.371 203.774 749.992 204.009C750.613 204.243 751.176 204.586 751.65 205.017C752.125 205.448 752.5 205.959 752.754 206.52C753.009 207.082 753.139 207.683 753.135 208.29C753.135 208.897 753.001 209.498 752.741 210.058C752.482 210.619 752.102 211.127 751.623 211.555C751.144 211.982 750.576 212.32 749.952 212.549C749.327 212.778 748.659 212.893 747.985 212.888Z" fill="#7694FF"/>
<path opacity="0.4" d="M730.216 226.885L695.621 226.849C694.268 226.844 692.971 226.358 692.015 225.496C691.058 224.633 690.519 223.466 690.515 222.247C690.518 221.64 690.653 221.04 690.913 220.48C691.174 219.921 691.554 219.413 692.032 218.986C692.51 218.559 693.077 218.221 693.701 217.991C694.324 217.762 694.992 217.645 695.665 217.648L730.252 217.677C730.926 217.68 731.592 217.802 732.213 218.036C732.834 218.271 733.398 218.613 733.872 219.044C734.346 219.475 734.721 219.986 734.976 220.547C735.23 221.109 735.36 221.71 735.357 222.317C735.342 223.535 734.794 224.699 733.831 225.555C732.868 226.411 731.568 226.889 730.216 226.885Z" fill="#7694FF"/>
<path d="M1000.4 301.318H999.847V354.208H1000.4V301.318Z" fill="#263238"/>
<path d="M1017.29 280.558L1001.36 354.207H1000.79L1016.74 280.458L1017.29 280.558Z" fill="#263238"/>
<path d="M999.928 354.208H999.378L994.555 261.911L995.105 261.885L999.847 352.781L999.928 354.208Z" fill="#263238"/>
<path d="M1010.84 244.321C1009.46 248.045 1007.14 251.425 1004.04 254.186C999.855 258.061 995.552 260.168 995.589 260.584C995.721 261.759 996.989 263.549 996.894 263.938C996.799 264.328 995.728 264.717 994.834 264.717C993.94 264.717 992.87 264.328 992.767 263.938C992.664 263.549 993.94 261.759 994.064 260.584C994.16 259.752 976.7 252.092 977.902 236.945C978.525 229.173 983.979 226.03 988.596 224.763C989.882 224.416 991.199 224.175 992.533 224.043C993.297 223.963 994.065 223.921 994.834 223.917C997.29 223.917 1010.75 224.459 1011.75 236.945C1011.96 239.434 1011.65 241.936 1010.84 244.321Z" fill="#7694FF"/>
<path opacity="0.1" d="M995.588 260.584C995.72 261.759 996.988 263.549 996.893 263.938C996.798 264.328 995.727 264.717 994.833 264.717C993.939 264.717 992.869 264.328 992.766 263.938C992.663 263.549 993.939 261.759 994.064 260.584C994.159 259.752 976.699 252.092 977.901 236.945C978.524 229.173 983.978 226.03 988.595 224.763C984.498 227.926 979.448 234.139 983.098 244.255C986.477 253.598 996.402 256.365 1004.04 254.159C999.854 258.062 995.551 260.168 995.588 260.584Z" fill="black"/>
<path d="M1006.51 232.435C1006.51 233.113 1006.29 233.776 1005.87 234.339C1005.45 234.903 1004.86 235.342 1004.16 235.601C1003.47 235.861 1002.7 235.929 1001.96 235.796C1001.23 235.664 1000.55 235.338 1000.02 234.859C999.484 234.379 999.121 233.769 998.974 233.104C998.828 232.439 998.903 231.75 999.191 231.124C999.479 230.498 999.966 229.962 1000.59 229.586C1001.22 229.209 1001.95 229.008 1002.71 229.008C1003.71 229.008 1004.68 229.369 1005.4 230.012C1006.11 230.655 1006.51 231.526 1006.51 232.435Z" fill="white"/>
<path d="M1033.02 261.898C1031.65 265.628 1029.32 269.011 1026.22 271.77C1022.04 275.645 1017.73 277.752 1017.78 278.161C1017.91 279.337 1019.18 281.126 1019.07 281.516C1018.97 281.905 1017.92 282.295 1017.01 282.295C1016.11 282.295 1015.05 281.905 1014.95 281.516C1014.86 281.126 1016.12 279.337 1016.25 278.161C1016.34 277.336 998.88 269.676 1000.09 254.529C1000.71 246.751 1006.16 243.608 1010.78 242.347C1012.07 241.995 1013.39 241.752 1014.72 241.62C1015.48 241.542 1016.25 241.502 1017.01 241.501C1019.48 241.501 1032.94 242.036 1033.94 254.529C1034.15 257.016 1033.83 259.515 1033.02 261.898Z" fill="#C7C7C7"/>
<path d="M1017.76 278.161C1017.89 279.337 1019.16 281.126 1019.06 281.516C1018.96 281.905 1017.9 282.295 1017 282.295C1016.1 282.295 1015.04 281.905 1014.94 281.516C1014.84 281.126 1016.11 279.337 1016.24 278.161C1016.33 277.336 998.865 269.676 1000.07 254.529C1000.7 246.751 1006.14 243.608 1010.77 242.347C1006.66 245.503 1001.61 251.716 1005.27 261.839C1008.64 271.175 1018.57 273.949 1026.21 271.743C1022.04 275.645 1017.76 277.752 1017.76 278.161Z" fill="#A6A6A6"/>
<path d="M1029.23 250.059C1029.23 250.737 1029.01 251.399 1028.59 251.963C1028.17 252.526 1027.58 252.965 1026.88 253.225C1026.19 253.484 1025.42 253.552 1024.69 253.42C1023.95 253.288 1023.27 252.961 1022.74 252.482C1022.21 252.003 1021.84 251.392 1021.7 250.727C1021.55 250.063 1021.63 249.374 1021.91 248.747C1022.2 248.121 1022.69 247.586 1023.31 247.209C1023.94 246.833 1024.68 246.632 1025.43 246.632C1026.44 246.632 1027.4 246.993 1028.12 247.636C1028.83 248.278 1029.23 249.15 1029.23 250.059Z" fill="white"/>
<path d="M1016.12 282.678C1014.73 286.436 1012.36 289.842 1009.22 292.615C1005.07 296.425 1000.85 298.492 1000.89 298.901C1001.02 300.076 1002.29 301.866 1002.19 302.255C1002.1 302.645 1001.03 303.035 1000.13 303.035C999.238 303.035 998.168 302.645 998.065 302.255C997.963 301.866 999.238 300.076 999.363 298.901C999.451 298.076 981.991 290.416 983.237 275.269C983.867 267.431 989.394 264.302 994.034 263.054C995.313 262.715 996.623 262.479 997.948 262.347C998.945 262.255 999.729 262.235 1000.15 262.235C1002.6 262.235 1016.07 262.776 1017.06 275.269C1017.27 277.77 1016.95 280.284 1016.12 282.678Z" fill="#37474F"/>
<path d="M983.201 275.269C983.831 267.431 989.358 264.301 993.998 263.053C989.871 266.17 984.637 272.416 988.339 282.671C991.703 291.988 1001.59 294.767 1009.22 292.615C1005.07 296.425 1000.85 298.491 1000.89 298.901C1001.02 300.076 1002.29 301.866 1002.19 302.255C1002.1 302.645 1001.03 303.034 1000.13 303.034C999.239 303.034 998.168 302.645 998.066 302.255C997.963 301.866 999.238 300.076 999.363 298.901C999.436 298.075 981.991 290.416 983.201 275.269Z" fill="#263238"/>
<path d="M1011.9 270.687C1011.9 271.364 1011.67 272.027 1011.26 272.591C1010.84 273.154 1010.24 273.593 1009.55 273.853C1008.85 274.112 1008.09 274.18 1007.35 274.048C1006.61 273.916 1005.93 273.589 1005.4 273.11C1004.87 272.631 1004.51 272.02 1004.36 271.355C1004.21 270.691 1004.29 270.001 1004.58 269.375C1004.87 268.749 1005.35 268.214 1005.98 267.837C1006.6 267.461 1007.34 267.26 1008.09 267.26C1009.1 267.26 1010.07 267.621 1010.78 268.263C1011.5 268.906 1011.9 269.778 1011.9 270.687Z" fill="white"/>
<path d="M1005.67 341.933H995.208V354.254H1005.67V341.933Z" fill="#7694FF"/>
<path d="M22.5292 294.341H21.9722V347.231H22.5292V294.341Z" fill="#263238"/>
<path d="M39.4034 273.58L23.4755 347.23H22.9111L38.8683 273.481L39.4034 273.58Z" fill="#263238"/>
<path d="M22.0461 347.23H21.4964L16.6733 254.934L17.2304 254.907L21.9728 345.804L22.0461 347.23Z" fill="#263238"/>
<path d="M32.9528 237.344C31.5874 241.071 29.2585 244.452 26.158 247.209C21.98 251.085 17.67 253.191 17.714 253.607C17.8459 254.782 19.114 256.572 19.0114 256.961C18.9088 257.351 17.8533 257.74 16.9517 257.74C16.0501 257.74 14.9946 257.351 14.892 256.961C14.7894 256.572 16.0574 254.782 16.1894 253.607C16.2773 252.775 -1.18241 245.116 0.063664 229.968C0.650053 222.197 6.09614 219.08 10.7213 217.759C12.0085 217.433 13.326 217.212 14.6574 217.099C15.419 217.019 16.1849 216.977 16.9517 216.974C19.4145 216.974 32.8795 217.515 33.8763 230.001C34.0776 232.479 33.7644 234.969 32.9528 237.344Z" fill="#C7C7C7"/>
<path d="M17.714 253.606C17.8459 254.782 19.114 256.571 19.0114 256.961C18.9088 257.35 17.8533 257.74 16.9517 257.74C16.0501 257.74 14.9946 257.35 14.892 256.961C14.7894 256.571 16.0574 254.782 16.1894 253.606C16.2773 252.774 -1.18241 245.115 0.063664 229.968C0.650054 222.196 6.09615 219.079 10.7213 217.759C6.61657 220.922 1.56629 227.135 5.22389 237.251C8.59563 246.594 18.5203 249.361 26.158 247.155C21.98 251.084 17.67 253.19 17.714 253.606Z" fill="#A6A6A6"/>
<path d="M28.665 225.458C28.665 226.136 28.4419 226.798 28.0239 227.362C27.6059 227.925 27.0118 228.364 26.3166 228.624C25.6215 228.883 24.8566 228.951 24.1187 228.819C23.3807 228.687 22.7029 228.36 22.1709 227.881C21.6388 227.402 21.2765 226.791 21.1297 226.126C20.983 225.462 21.0583 224.772 21.3462 224.146C21.6342 223.52 22.1217 222.985 22.7473 222.608C23.3729 222.232 24.1084 222.031 24.8608 222.031C25.8698 222.031 26.8374 222.392 27.5508 223.034C28.2642 223.677 28.665 224.549 28.665 225.458Z" fill="white"/>
<path d="M55.1401 254.921C53.7737 258.649 51.445 262.032 48.3453 264.792C44.1599 268.668 39.8573 270.774 39.9013 271.184C40.0259 272.359 41.3013 274.148 41.1986 274.538C41.096 274.928 40.0332 275.317 39.139 275.317C38.2447 275.317 37.1745 274.928 37.0719 274.538C36.9693 274.148 38.2447 272.359 38.3693 271.184C38.4646 270.358 21.0049 262.699 22.2436 247.552C22.8593 239.773 28.3127 236.63 32.9306 235.369C34.2149 235.018 35.5326 234.775 36.8667 234.643C37.6308 234.564 38.3992 234.525 39.1683 234.524C41.6238 234.524 55.0961 235.059 56.0929 247.552C56.2898 250.04 55.9666 252.54 55.1401 254.921Z" fill="#37474F"/>
<path d="M39.9012 271.184C40.0259 272.359 41.3013 274.148 41.1986 274.538C41.096 274.928 40.0332 275.317 39.1389 275.317C38.2447 275.317 37.1745 274.928 37.0719 274.538C36.9693 274.148 38.2447 272.359 38.3693 271.184C38.4646 270.358 21.0049 262.699 22.2436 247.552C22.8593 239.773 28.3127 236.63 32.9305 235.369C28.8331 238.525 23.7829 244.739 27.4331 254.861C30.8122 264.198 40.7369 266.971 48.3746 264.766C44.1599 268.668 39.8573 270.774 39.9012 271.184Z" fill="#263238"/>
<path d="M51.3877 243.081C51.3891 243.761 51.1667 244.426 50.7484 244.991C50.3301 245.557 49.7349 245.998 49.0382 246.259C48.3414 246.52 47.5744 246.588 46.8344 246.456C46.0943 246.324 45.4145 245.996 44.881 245.516C44.3475 245.035 43.9844 244.423 43.8375 243.756C43.6907 243.089 43.7668 242.399 44.0562 241.771C44.3456 241.143 44.8352 240.607 45.4632 240.23C46.0911 239.853 46.829 239.653 47.5835 239.654C48.5924 239.654 49.56 240.015 50.2735 240.658C50.9869 241.301 51.3877 242.172 51.3877 243.081Z" fill="white"/>
<path d="M38.2374 275.7C36.8508 279.461 34.4859 282.868 31.34 285.638C27.1913 289.447 22.9693 291.514 23.0133 291.924C23.1379 293.099 24.4133 294.888 24.3107 295.278C24.2081 295.667 23.1526 296.057 22.251 296.057C21.3494 296.057 20.2866 295.667 20.1913 295.278C20.096 294.888 21.3567 293.099 21.4887 291.924C21.5766 291.098 4.1169 283.439 5.36298 268.292C5.98602 260.454 11.5201 257.324 16.1599 256.076C17.428 255.748 18.7254 255.521 20.0374 255.396C21.0342 255.303 21.8185 255.284 22.2363 255.284C24.6992 255.284 38.1641 255.825 39.161 268.318C39.3745 270.809 39.0611 273.314 38.2374 275.7Z" fill="#7694FF"/>
<path opacity="0.1" d="M5.32666 268.292C5.9497 260.454 11.4837 257.324 16.1236 256.076C11.9968 259.193 6.76331 265.439 10.4649 275.694C13.8293 285.01 23.71 287.79 31.3404 285.638C27.1917 289.448 22.9697 291.514 23.0136 291.924C23.1382 293.099 24.4136 294.888 24.311 295.278C24.2084 295.668 23.1529 296.057 22.2513 296.057C21.3498 296.057 20.2869 295.668 20.1916 295.278C20.0963 294.888 21.3571 293.099 21.489 291.924C21.577 291.098 4.11723 283.439 5.32666 268.292Z" fill="black"/>
<path d="M34.0005 263.71C34.0005 264.387 33.7774 265.05 33.3594 265.614C32.9414 266.177 32.3472 266.616 31.6521 266.876C30.957 267.135 30.1921 267.203 29.4541 267.071C28.7162 266.939 28.0383 266.612 27.5063 266.133C26.9743 265.654 26.612 265.043 26.4652 264.378C26.3184 263.713 26.3937 263.024 26.6817 262.398C26.9696 261.772 27.4572 261.237 28.0828 260.86C28.7084 260.484 29.4439 260.283 30.1963 260.283C31.2046 260.284 32.1711 260.646 32.8841 261.288C33.5971 261.931 33.9986 262.801 34.0005 263.71Z" fill="white"/>
<path d="M27.8001 334.955H17.333V347.276H27.8001V334.955Z" fill="#7694FF"/>
<path d="M603.492 90.9174C603.568 91.4025 603.429 91.895 603.106 92.2886C602.782 92.6822 602.299 92.9452 601.762 93.0207C601.496 93.0497 601.227 93.031 600.969 92.9655C600.712 92.9 600.471 92.7891 600.262 92.6392C600.052 92.4894 599.878 92.3035 599.749 92.0924C599.62 91.8814 599.539 91.6493 599.51 91.4097C599.434 90.9257 599.571 90.4341 599.893 90.0408C600.215 89.6474 600.696 89.3837 601.232 89.3064C601.498 89.2783 601.767 89.2978 602.025 89.3636C602.282 89.4294 602.523 89.5402 602.733 89.6899C602.943 89.8395 603.118 90.0249 603.248 90.2355C603.378 90.4462 603.461 90.6779 603.492 90.9174Z" fill="#263238"/>
<path d="M788.654 38.8813C788.73 39.3664 788.592 39.8589 788.268 40.2525C787.944 40.6461 787.461 40.909 786.924 40.9846C786.658 41.0136 786.389 40.9948 786.132 40.9294C785.874 40.8639 785.634 40.753 785.424 40.6031C785.215 40.4532 785.04 40.2674 784.911 40.0563C784.782 39.8452 784.701 39.6132 784.672 39.3736C784.596 38.8896 784.733 38.398 785.055 38.0046C785.378 37.6113 785.858 37.3476 786.394 37.2703C786.66 37.2422 786.929 37.2616 787.187 37.3274C787.444 37.3932 787.685 37.5041 787.895 37.6537C788.105 37.8033 788.28 37.9888 788.41 38.1994C788.541 38.41 788.624 38.6418 788.654 38.8813Z" fill="#263238"/>
<path d="M756.023 93.4415C756.06 93.678 755.994 93.9181 755.84 94.1124C755.686 94.3066 755.456 94.4403 755.195 94.4857C755.063 94.5024 754.928 94.4948 754.799 94.4633C754.67 94.4319 754.549 94.3772 754.444 94.3027C754.339 94.2282 754.251 94.1353 754.187 94.0296C754.123 93.9239 754.083 93.8076 754.069 93.6877C754.028 93.4498 754.092 93.2068 754.246 93.0105C754.401 92.8141 754.634 92.6798 754.897 92.636C755.03 92.6215 755.165 92.6309 755.293 92.6636C755.422 92.6964 755.542 92.7518 755.647 92.8267C755.752 92.9017 755.839 92.9946 755.904 93.1002C755.968 93.2057 756.009 93.3217 756.023 93.4415Z" fill="#263238"/>
<path d="M586.534 229.607C586.575 229.845 586.511 230.088 586.357 230.285C586.202 230.481 585.969 230.615 585.706 230.659C585.573 230.674 585.438 230.664 585.31 230.632C585.181 230.599 585.061 230.543 584.956 230.468C584.851 230.393 584.764 230.301 584.699 230.195C584.635 230.089 584.594 229.973 584.58 229.854C584.543 229.617 584.609 229.377 584.763 229.183C584.917 228.988 585.148 228.855 585.408 228.809C585.54 228.793 585.675 228.8 585.804 228.832C585.933 228.863 586.054 228.918 586.159 228.992C586.265 229.067 586.352 229.16 586.416 229.266C586.481 229.371 586.521 229.487 586.534 229.607Z" fill="#263238"/>
<path d="M612.936 8.03187C612.975 8.26949 612.911 8.51148 612.757 8.7074C612.602 8.90332 612.37 9.03805 612.108 9.08351C611.976 9.09804 611.841 9.08866 611.712 9.05592C611.583 9.02318 611.463 8.96773 611.358 8.89279C611.254 8.81786 611.166 8.72492 611.102 8.61938C611.037 8.51384 610.997 8.39781 610.982 8.278C610.943 8.04039 611.008 7.7984 611.162 7.60248C611.316 7.40656 611.548 7.27182 611.81 7.22636C611.943 7.21184 612.078 7.22121 612.206 7.25395C612.335 7.28669 612.455 7.34214 612.56 7.41708C612.665 7.49202 612.752 7.58495 612.817 7.69049C612.881 7.79603 612.922 7.91207 612.936 8.03187Z" fill="#263238"/>
<path d="M952.504 8.67298C952.543 8.9106 952.479 9.1526 952.324 9.34852C952.17 9.54444 951.938 9.67916 951.676 9.72463C951.543 9.73915 951.409 9.72978 951.28 9.69704C951.151 9.6643 951.031 9.60885 950.926 9.53391C950.821 9.45897 950.734 9.36604 950.67 9.2605C950.605 9.15496 950.565 9.03892 950.55 8.91911C950.511 8.68149 950.576 8.43951 950.73 8.24359C950.884 8.04767 951.116 7.91294 951.378 7.86748C951.511 7.85295 951.646 7.86232 951.774 7.89506C951.903 7.9278 952.023 7.98326 952.128 8.05819C952.233 8.13313 952.32 8.22607 952.384 8.3316C952.449 8.43714 952.49 8.55318 952.504 8.67298Z" fill="#7694FF"/>
<path d="M877.73 177.56C877.771 177.797 877.707 178.04 877.553 178.237C877.398 178.433 877.165 178.567 876.902 178.611C876.769 178.626 876.634 178.616 876.506 178.584C876.377 178.551 876.257 178.495 876.152 178.42C876.047 178.346 875.96 178.253 875.895 178.147C875.831 178.042 875.79 177.925 875.776 177.806C875.738 177.563 875.808 177.316 875.971 177.119C876.133 176.922 876.376 176.791 876.645 176.754C876.907 176.733 877.168 176.806 877.37 176.957C877.573 177.107 877.702 177.324 877.73 177.56Z" fill="#455A64"/>
<path d="M807.306 209.634C807.345 209.872 807.281 210.114 807.127 210.31C806.973 210.506 806.74 210.641 806.479 210.686C806.346 210.702 806.21 210.693 806.081 210.661C805.952 210.628 805.831 210.573 805.726 210.498C805.621 210.423 805.534 210.329 805.47 210.223C805.406 210.117 805.366 210.001 805.353 209.881C805.311 209.643 805.375 209.4 805.53 209.203C805.684 209.007 805.918 208.873 806.18 208.829C806.313 208.814 806.448 208.824 806.577 208.856C806.705 208.889 806.826 208.945 806.93 209.02C807.035 209.095 807.122 209.187 807.187 209.293C807.251 209.399 807.292 209.515 807.306 209.634Z" fill="#7694FF"/>
<path d="M950.193 122.889C950.272 123.374 950.135 123.866 949.812 124.26C949.49 124.654 949.008 124.917 948.471 124.993C948.205 125.023 947.935 125.005 947.676 124.94C947.418 124.875 947.176 124.764 946.966 124.614C946.755 124.464 946.58 124.278 946.451 124.066C946.321 123.855 946.239 123.622 946.211 123.382C946.135 122.897 946.274 122.406 946.598 122.013C946.922 121.621 947.404 121.359 947.941 121.286C948.206 121.256 948.475 121.273 948.733 121.338C948.99 121.403 949.231 121.513 949.44 121.662C949.65 121.811 949.825 121.997 949.954 122.207C950.083 122.418 950.164 122.65 950.193 122.889Z" fill="#7694FF"/>
<path d="M567.135 28.6698C567.211 29.1447 567.081 29.6278 566.773 30.0192C566.465 30.4106 566.002 30.6804 565.479 30.773C565.214 30.8011 564.945 30.7816 564.688 30.7157C564.431 30.6498 564.191 30.5388 563.982 30.3891C563.772 30.2394 563.598 30.054 563.468 29.8434C563.339 29.6328 563.257 29.4012 563.227 29.162C563.149 28.6777 563.286 28.1852 563.608 27.7913C563.931 27.3974 564.413 27.1342 564.949 27.0587C565.475 27.0188 565.997 27.1646 566.405 27.4653C566.813 27.766 567.075 28.198 567.135 28.6698Z" fill="#455A64"/>
<path d="M811.298 192.032C811.374 192.517 811.235 193.01 810.911 193.404C810.587 193.797 810.104 194.06 809.567 194.136C809.302 194.166 809.033 194.148 808.775 194.083C808.518 194.019 808.277 193.909 808.068 193.759C807.858 193.61 807.684 193.425 807.554 193.214C807.425 193.003 807.344 192.771 807.315 192.532C807.237 192.048 807.373 191.555 807.696 191.161C808.018 190.768 808.5 190.504 809.037 190.429C809.303 190.399 809.572 190.416 809.83 190.481C810.088 190.545 810.329 190.655 810.54 190.805C810.75 190.954 810.925 191.139 811.055 191.35C811.186 191.561 811.268 191.793 811.298 192.032Z" fill="#455A64"/>
<path d="M715.173 86.5426C715.251 87.026 715.114 87.5177 714.791 87.9104C714.468 88.303 713.987 88.5648 713.45 88.6384C713.185 88.6686 712.916 88.6508 712.659 88.5862C712.401 88.5216 712.161 88.4114 711.951 88.2621C711.741 88.1129 711.567 87.9274 711.438 87.7167C711.308 87.506 711.227 87.2742 711.198 87.0349C711.12 86.5506 711.257 86.058 711.579 85.6642C711.902 85.2703 712.384 85.0071 712.921 84.9316C713.186 84.9015 713.456 84.9196 713.714 84.9846C713.972 85.0497 714.213 85.1605 714.423 85.3106C714.632 85.4606 714.807 85.6469 714.935 85.8585C715.064 86.07 715.145 86.3026 715.173 86.5426Z" fill="#263238"/>
<path d="M717.364 178.986L720.212 178.099C720.212 178.099 718.266 177.166 718.274 174.265C718.283 171.364 720.932 170.222 719.781 167.604L716.618 168.41C716.979 169.108 717.178 169.865 717.202 170.634C717.226 171.404 717.076 172.17 716.759 172.885C715.923 174.511 715.17 176.487 717.364 178.986Z" fill="#263238"/>
<path d="M644.776 236.3L641.977 235.323C641.977 235.323 642.847 237.18 640.884 239.432C638.922 241.685 636.091 241.006 635.213 243.713L638.202 244.966C638.388 244.23 638.741 243.536 639.238 242.928C639.735 242.319 640.366 241.81 641.091 241.431C642.871 240.596 644.801 239.507 644.776 236.3Z" fill="#7694FF"/>
<path d="M951.535 78.357L951.941 75.59C951.941 75.59 950.186 76.7982 947.404 75.5154C944.622 74.2325 944.697 71.5028 941.666 71.2939L941.021 74.2773C941.848 74.2886 942.664 74.4595 943.412 74.7785C944.161 75.0976 944.824 75.5574 945.359 76.127C946.593 77.5814 948.157 79.0954 951.535 78.357Z" fill="#7694FF"/>
<path d="M974.905 248.088L975.311 245.321C975.311 245.321 973.556 246.529 970.774 245.246C967.992 243.963 968.066 241.234 965.036 241.025L964.39 244.008C965.217 244.021 966.031 244.192 966.777 244.511C967.524 244.83 968.187 245.289 968.72 245.858C969.995 247.312 971.527 248.826 974.905 248.088Z" fill="#455A64"/>
<path d="M621.442 64.4474L621.848 61.6803C621.848 61.6803 620.101 62.8886 617.311 61.5983C614.521 60.308 614.603 57.5857 611.573 57.3843L610.936 60.3676C611.762 60.38 612.576 60.5514 613.323 60.8704C614.07 61.1894 614.732 61.6487 615.266 62.2173C616.499 63.6717 618.064 65.1783 621.442 64.4474Z" fill="#7694FF"/>
<path d="M806.604 12.4117L807.01 9.64467C807.01 9.64467 805.263 10.8529 802.473 9.56263C799.683 8.27233 799.765 5.55001 796.735 5.34863L796.098 8.33199C796.924 8.34431 797.738 8.51574 798.485 8.83477C799.232 9.15379 799.894 9.61304 800.428 10.1817C801.661 11.6361 803.226 13.1427 806.604 12.4117Z" fill="#7694FF"/>
<path d="M541.638 170.427C541.562 169.943 541.701 169.452 542.025 169.059C542.349 168.667 542.832 168.405 543.368 168.332C543.634 168.302 543.903 168.319 544.16 168.384C544.418 168.448 544.658 168.559 544.868 168.708C545.077 168.857 545.252 169.043 545.381 169.253C545.51 169.464 545.592 169.696 545.62 169.935C545.699 170.419 545.562 170.912 545.24 171.306C544.917 171.7 544.435 171.963 543.898 172.038C543.632 172.068 543.362 172.049 543.104 171.983C542.846 171.918 542.605 171.807 542.395 171.657C542.185 171.508 542.01 171.322 541.88 171.111C541.75 170.9 541.668 170.667 541.638 170.427Z" fill="#7694FF"/>
<path d="M920.09 50.2463C920.049 50.0084 920.112 49.7654 920.267 49.5691C920.421 49.3727 920.655 49.2384 920.918 49.1946C921.051 49.1801 921.185 49.1895 921.314 49.2222C921.443 49.255 921.563 49.3104 921.668 49.3853C921.772 49.4603 921.86 49.5532 921.924 49.6588C921.989 49.7643 922.029 49.8803 922.044 50.0001C922.08 50.2429 922.009 50.4887 921.846 50.6851C921.684 50.8815 921.443 51.0131 921.174 51.0518C920.912 51.0726 920.652 50.9998 920.449 50.8491C920.246 50.6984 920.117 50.4819 920.09 50.2463Z" fill="#7694FF"/>
<path d="M587.693 214.996C587.654 214.758 587.718 214.516 587.872 214.32C588.027 214.124 588.259 213.99 588.521 213.944C588.653 213.93 588.788 213.939 588.917 213.972C589.046 214.004 589.166 214.06 589.271 214.135C589.375 214.21 589.463 214.303 589.527 214.408C589.592 214.514 589.632 214.63 589.647 214.75C589.686 214.987 589.621 215.229 589.467 215.425C589.313 215.621 589.081 215.756 588.819 215.801C588.551 215.829 588.282 215.759 588.071 215.608C587.86 215.457 587.724 215.237 587.693 214.996Z" fill="#7694FF"/>
<path d="M764.214 2.20832C764.138 1.72326 764.276 1.23071 764.6 0.837133C764.924 0.443559 765.407 0.180587 765.944 0.105068C766.21 0.0760161 766.479 0.0947734 766.737 0.160252C766.994 0.22573 767.234 0.336624 767.444 0.486498C767.653 0.636373 767.828 0.822242 767.957 1.03332C768.086 1.24439 768.167 1.47646 768.196 1.71607C768.272 2.20027 768.133 2.69193 767.809 3.08431C767.485 3.47669 767.002 3.73813 766.466 3.81187C766.201 3.84096 765.932 3.82247 765.675 3.75745C765.418 3.69244 765.178 3.58219 764.969 3.43309C764.759 3.28398 764.585 3.09898 764.455 2.88876C764.326 2.67854 764.244 2.44727 764.214 2.20832Z" fill="#7694FF"/>
<path d="M966.784 34.9914C966.708 34.5084 966.846 34.0177 967.168 33.6255C967.491 33.2333 967.971 32.9711 968.506 32.8956C968.772 32.8655 969.041 32.8832 969.299 32.9477C969.557 33.0122 969.798 33.1223 970.009 33.2715C970.219 33.4207 970.394 33.6061 970.524 33.8168C970.655 34.0276 970.737 34.2595 970.767 34.4992C970.843 34.9843 970.704 35.4768 970.38 35.8704C970.056 36.264 969.573 36.5269 969.036 36.6025C968.77 36.6326 968.501 36.6145 968.243 36.5495C967.985 36.4844 967.744 36.3736 967.534 36.2235C967.324 36.0735 967.15 35.8872 967.021 35.6756C966.892 35.464 966.812 35.2314 966.784 34.9914Z" fill="#455A64"/>
<path d="M915.649 166.543L910.871 167.811C910.871 167.811 908.595 162.232 913.355 160.659C913.33 160.659 911.716 163.627 915.649 166.543Z" fill="#455A64"/>
<path d="M914.87 154.773L919.01 157.265C919.01 157.265 918.406 160.904 913.363 160.658C913.33 160.658 917.155 158.048 914.87 154.773Z" fill="#455A64"/>
<path d="M550.339 122.035L547.094 125.465C547.094 125.465 543.318 124.377 544.312 119.76C544.312 119.76 546.531 123.675 550.339 122.035Z" fill="#263238"/>
<path d="M721.009 118.345L724.164 119.948C724.164 119.948 726.722 116.353 723.65 114.541C723.65 114.541 724.28 116.875 721.009 118.345Z" fill="#455A64"/>
<path d="M723.568 110.163L720.256 111.312C720.256 111.312 720.057 113.967 723.659 114.541C723.65 114.541 721.39 112.14 723.568 110.163Z" fill="#455A64"/>
<path d="M598.895 228.839L599.417 232.151C599.417 232.151 604.037 231.897 603.739 228.519C603.739 228.519 602.124 230.391 598.895 228.839Z" fill="#7694FF"/>
<path d="M143.616 120.463C143.835 119.836 144.18 119.366 144.65 119.053C145.151 118.74 145.7 118.583 146.295 118.583C147.047 118.583 147.689 118.818 148.222 119.288C148.786 119.758 149.068 120.385 149.068 121.168C149.068 121.45 148.99 121.857 148.833 122.39L138.728 150.355C138.477 150.982 138.054 151.467 137.459 151.812C136.895 152.157 136.268 152.329 135.579 152.329C134.89 152.329 134.247 152.157 133.652 151.812C133.057 151.467 132.649 150.982 132.43 150.355L124.628 128.218L116.685 150.355C116.434 150.982 116.011 151.467 115.416 151.812C114.852 152.157 114.225 152.329 113.536 152.329C112.847 152.329 112.204 152.157 111.609 151.812C111.045 151.467 110.653 150.982 110.434 150.355L100.329 122.39C100.172 121.92 100.094 121.513 100.094 121.168C100.094 120.385 100.376 119.758 100.94 119.288C101.535 118.818 102.225 118.583 103.008 118.583C103.635 118.583 104.199 118.74 104.7 119.053C105.201 119.366 105.562 119.836 105.781 120.463L113.771 143.446L121.996 120.604C122.215 119.977 122.576 119.492 123.077 119.147C123.578 118.771 124.127 118.583 124.722 118.583C125.317 118.583 125.866 118.771 126.367 119.147C126.9 119.492 127.276 119.993 127.495 120.651L135.485 143.728L143.616 120.463ZM157.168 152C156.26 152 155.539 151.749 155.006 151.248C154.505 150.747 154.254 150.042 154.254 149.133V121.732C154.254 120.823 154.505 120.118 155.006 119.617C155.539 119.116 156.26 118.865 157.168 118.865H174.135C175.044 118.865 175.749 119.069 176.25 119.476C176.752 119.883 177.002 120.463 177.002 121.215C177.002 121.998 176.752 122.609 176.25 123.048C175.749 123.455 175.044 123.659 174.135 123.659H160.176V132.777H173.195C174.104 132.777 174.809 132.981 175.31 133.388C175.812 133.795 176.062 134.391 176.062 135.174C176.062 135.926 175.812 136.506 175.31 136.913C174.809 137.32 174.104 137.524 173.195 137.524H160.176V147.206H174.135C175.044 147.206 175.749 147.425 176.25 147.864C176.752 148.271 177.002 148.867 177.002 149.65C177.002 150.402 176.752 150.982 176.25 151.389C175.749 151.796 175.044 152 174.135 152H157.168ZM184.798 152C183.889 152 183.184 151.749 182.683 151.248C182.182 150.747 181.931 150.057 181.931 149.18V121.638C181.931 120.729 182.197 120.009 182.73 119.476C183.294 118.912 184.03 118.63 184.939 118.63C185.879 118.63 186.615 118.912 187.148 119.476C187.712 120.009 187.994 120.729 187.994 121.638V147.018H201.201C203.081 147.018 204.021 147.848 204.021 149.509C204.021 151.17 203.081 152 201.201 152H184.798ZM221.016 152.423C217.82 152.423 215.016 151.734 212.603 150.355C210.222 148.976 208.389 147.002 207.104 144.433C205.82 141.864 205.177 138.856 205.177 135.409C205.177 131.962 205.82 128.97 207.104 126.432C208.389 123.863 210.222 121.889 212.603 120.51C215.016 119.131 217.82 118.442 221.016 118.442C223.084 118.442 225.027 118.755 226.844 119.382C228.662 119.977 230.275 120.855 231.685 122.014C232.093 122.327 232.375 122.656 232.531 123.001C232.688 123.346 232.766 123.769 232.766 124.27C232.766 124.959 232.578 125.539 232.202 126.009C231.826 126.479 231.372 126.714 230.839 126.714C230.213 126.714 229.57 126.495 228.912 126.056C227.565 125.053 226.312 124.364 225.152 123.988C223.993 123.581 222.708 123.377 221.298 123.377C218.04 123.377 215.564 124.395 213.872 126.432C212.212 128.469 211.381 131.461 211.381 135.409C211.381 139.388 212.212 142.396 213.872 144.433C215.564 146.47 218.04 147.488 221.298 147.488C222.646 147.488 223.883 147.284 225.011 146.877C226.171 146.47 227.471 145.78 228.912 144.809C229.226 144.621 229.539 144.464 229.852 144.339C230.166 144.214 230.495 144.151 230.839 144.151C231.372 144.151 231.826 144.386 232.202 144.856C232.578 145.326 232.766 145.906 232.766 146.595C232.766 147.065 232.688 147.488 232.531 147.864C232.375 148.209 232.093 148.538 231.685 148.851C230.275 150.01 228.662 150.903 226.844 151.53C225.027 152.125 223.084 152.423 221.016 152.423ZM252.226 152.423C248.999 152.423 246.195 151.734 243.813 150.355C241.463 148.976 239.646 147.002 238.361 144.433C237.077 141.864 236.434 138.856 236.434 135.409C236.434 131.962 237.061 128.97 238.314 126.432C239.599 123.863 241.432 121.889 243.813 120.51C246.195 119.131 248.999 118.442 252.226 118.442C255.454 118.442 258.242 119.131 260.592 120.51C262.974 121.889 264.791 123.863 266.044 126.432C267.329 128.97 267.971 131.962 267.971 135.409C267.971 138.856 267.329 141.864 266.044 144.433C264.76 147.002 262.927 148.976 260.545 150.355C258.195 151.734 255.422 152.423 252.226 152.423ZM252.226 147.582C255.266 147.582 257.631 146.532 259.323 144.433C261.047 142.334 261.908 139.326 261.908 135.409C261.908 131.492 261.047 128.5 259.323 126.432C257.631 124.333 255.266 123.283 252.226 123.283C249.156 123.283 246.759 124.333 245.035 126.432C243.343 128.5 242.497 131.492 242.497 135.409C242.497 139.326 243.343 142.334 245.035 144.433C246.759 146.532 249.156 147.582 252.226 147.582ZM303.517 118.63C304.395 118.63 305.1 118.912 305.632 119.476C306.165 120.009 306.431 120.729 306.431 121.638V149.462C306.431 150.339 306.181 151.029 305.679 151.53C305.178 152.031 304.52 152.282 303.705 152.282C302.891 152.282 302.248 152.031 301.778 151.53C301.308 151.029 301.073 150.339 301.073 149.462V130.098L293.083 145.232C292.707 145.921 292.3 146.438 291.861 146.783C291.423 147.096 290.906 147.253 290.31 147.253C289.715 147.253 289.198 147.096 288.759 146.783C288.321 146.47 287.913 145.953 287.537 145.232L279.5 130.333V149.462C279.5 150.308 279.25 150.997 278.748 151.53C278.278 152.031 277.636 152.282 276.821 152.282C276.007 152.282 275.364 152.031 274.894 151.53C274.424 151.029 274.189 150.339 274.189 149.462V121.638C274.189 120.729 274.44 120.009 274.941 119.476C275.474 118.912 276.179 118.63 277.056 118.63C278.278 118.63 279.234 119.304 279.923 120.651L290.357 140.532L300.744 120.651C301.434 119.304 302.358 118.63 303.517 118.63ZM316.528 152C315.619 152 314.898 151.749 314.366 151.248C313.864 150.747 313.614 150.042 313.614 149.133V121.732C313.614 120.823 313.864 120.118 314.366 119.617C314.898 119.116 315.619 118.865 316.528 118.865H333.495C334.403 118.865 335.108 119.069 335.61 119.476C336.111 119.883 336.362 120.463 336.362 121.215C336.362 121.998 336.111 122.609 335.61 123.048C335.108 123.455 334.403 123.659 333.495 123.659H319.536V132.777H332.555C333.463 132.777 334.168 132.981 334.67 133.388C335.171 133.795 335.422 134.391 335.422 135.174C335.422 135.926 335.171 136.506 334.67 136.913C334.168 137.32 333.463 137.524 332.555 137.524H319.536V147.206H333.495C334.403 147.206 335.108 147.425 335.61 147.864C336.111 148.271 336.362 148.867 336.362 149.65C336.362 150.402 336.111 150.982 335.61 151.389C335.108 151.796 334.403 152 333.495 152H316.528ZM364.907 152.235C363.967 152.235 363.215 151.969 362.651 151.436C362.119 150.872 361.852 150.136 361.852 149.227V123.847H353.298C351.418 123.847 350.478 123.017 350.478 121.356C350.478 119.695 351.418 118.865 353.298 118.865H376.469C378.349 118.865 379.289 119.695 379.289 121.356C379.289 123.017 378.349 123.847 376.469 123.847H367.915V149.227C367.915 150.136 367.633 150.872 367.069 151.436C366.537 151.969 365.816 152.235 364.907 152.235ZM395.659 152.423C392.432 152.423 389.627 151.734 387.246 150.355C384.896 148.976 383.079 147.002 381.794 144.433C380.509 141.864 379.867 138.856 379.867 135.409C379.867 131.962 380.494 128.97 381.747 126.432C383.032 123.863 384.865 121.889 387.246 120.51C389.627 119.131 392.432 118.442 395.659 118.442C398.886 118.442 401.675 119.131 404.025 120.51C406.406 121.889 408.224 123.863 409.477 126.432C410.762 128.97 411.404 131.962 411.404 135.409C411.404 138.856 410.762 141.864 409.477 144.433C408.192 147.002 406.359 148.976 403.978 150.355C401.628 151.734 398.855 152.423 395.659 152.423ZM395.659 147.582C398.698 147.582 401.064 146.532 402.756 144.433C404.479 142.334 405.341 139.326 405.341 135.409C405.341 131.492 404.479 128.5 402.756 126.432C401.064 124.333 398.698 123.283 395.659 123.283C392.588 123.283 390.191 124.333 388.468 126.432C386.776 128.5 385.93 131.492 385.93 135.409C385.93 139.326 386.776 142.334 388.468 144.433C390.191 146.532 392.588 147.582 395.659 147.582ZM160.682 216.235C159.742 216.235 158.99 215.969 158.426 215.436C157.894 214.872 157.627 214.136 157.627 213.227V187.847H149.073C147.193 187.847 146.253 187.017 146.253 185.356C146.253 183.695 147.193 182.865 149.073 182.865H172.244C174.124 182.865 175.064 183.695 175.064 185.356C175.064 187.017 174.124 187.847 172.244 187.847H163.69V213.227C163.69 214.136 163.408 214.872 162.844 215.436C162.312 215.969 161.591 216.235 160.682 216.235ZM189.062 216.423C186.649 216.423 184.362 216.11 182.2 215.483C180.069 214.825 178.33 213.948 176.983 212.851C176.262 212.318 175.902 211.566 175.902 210.595C175.902 209.937 176.09 209.373 176.466 208.903C176.873 208.402 177.343 208.151 177.876 208.151C178.44 208.151 179.082 208.37 179.803 208.809C181.15 209.78 182.56 210.485 184.033 210.924C185.505 211.363 187.135 211.582 188.921 211.582C191.208 211.582 192.963 211.19 194.185 210.407C195.407 209.592 196.018 208.417 196.018 206.882C196.018 205.691 195.438 204.783 194.279 204.156C193.151 203.498 191.255 202.871 188.592 202.276C185.834 201.681 183.594 200.991 181.871 200.208C180.147 199.425 178.847 198.422 177.97 197.2C177.092 195.978 176.654 194.427 176.654 192.547C176.654 190.604 177.202 188.865 178.299 187.33C179.395 185.795 180.915 184.604 182.858 183.758C184.832 182.881 187.041 182.442 189.485 182.442C193.965 182.442 197.616 183.633 200.436 186.014C200.843 186.359 201.125 186.703 201.282 187.048C201.47 187.361 201.564 187.769 201.564 188.27C201.564 188.928 201.36 189.508 200.953 190.009C200.577 190.479 200.122 190.714 199.59 190.714C199.276 190.714 198.979 190.667 198.697 190.573C198.446 190.479 198.101 190.307 197.663 190.056C196.378 189.116 195.125 188.427 193.903 187.988C192.712 187.518 191.239 187.283 189.485 187.283C187.354 187.283 185.662 187.722 184.409 188.599C183.187 189.445 182.576 190.636 182.576 192.171C182.576 193.456 183.124 194.443 184.221 195.132C185.317 195.821 187.182 196.464 189.814 197.059C192.602 197.686 194.858 198.391 196.582 199.174C198.336 199.926 199.668 200.897 200.577 202.088C201.517 203.279 201.987 204.767 201.987 206.553C201.987 208.496 201.438 210.219 200.342 211.723C199.276 213.196 197.757 214.355 195.783 215.201C193.84 216.016 191.6 216.423 189.062 216.423ZM232.804 198.093C233.525 198.093 234.105 198.312 234.543 198.751C234.982 199.158 235.201 199.707 235.201 200.396V210.501C235.201 211.942 235.013 212.961 234.637 213.556C234.261 214.151 233.494 214.637 232.334 215.013C231.081 215.452 229.624 215.796 227.963 216.047C226.303 216.298 224.705 216.423 223.169 216.423C219.754 216.423 216.793 215.749 214.286 214.402C211.78 213.055 209.853 211.112 208.505 208.574C207.189 206.005 206.531 202.95 206.531 199.409C206.531 195.931 207.189 192.923 208.505 190.385C209.853 187.816 211.748 185.857 214.192 184.51C216.636 183.131 219.519 182.442 222.84 182.442C227.258 182.442 230.877 183.633 233.697 186.014C234.073 186.359 234.34 186.703 234.496 187.048C234.684 187.393 234.778 187.8 234.778 188.27C234.778 188.959 234.59 189.539 234.214 190.009C233.838 190.479 233.384 190.714 232.851 190.714C232.507 190.714 232.193 190.667 231.911 190.573C231.629 190.448 231.3 190.26 230.924 190.009C229.546 189.038 228.261 188.364 227.07 187.988C225.88 187.581 224.532 187.377 223.028 187.377C219.613 187.377 217.028 188.395 215.273 190.432C213.55 192.437 212.688 195.43 212.688 199.409C212.688 207.556 216.26 211.629 223.404 211.629C225.535 211.629 227.666 211.331 229.796 210.736V202.417H224.485C223.733 202.417 223.138 202.229 222.699 201.853C222.292 201.477 222.088 200.944 222.088 200.255C222.088 199.566 222.292 199.033 222.699 198.657C223.138 198.281 223.733 198.093 224.485 198.093H232.804ZM195.527 248.463C195.746 247.836 196.091 247.366 196.561 247.053C197.062 246.74 197.611 246.583 198.206 246.583C198.958 246.583 199.6 246.818 200.133 247.288C200.697 247.758 200.979 248.385 200.979 249.168C200.979 249.45 200.901 249.857 200.744 250.39L190.639 278.355C190.388 278.982 189.965 279.467 189.37 279.812C188.806 280.157 188.179 280.329 187.49 280.329C186.801 280.329 186.158 280.157 185.563 279.812C184.968 279.467 184.56 278.982 184.341 278.355L176.539 256.218L168.596 278.355C168.345 278.982 167.922 279.467 167.327 279.812C166.763 280.157 166.136 280.329 165.447 280.329C164.758 280.329 164.115 280.157 163.52 279.812C162.956 279.467 162.564 278.982 162.345 278.355L152.24 250.39C152.083 249.92 152.005 249.513 152.005 249.168C152.005 248.385 152.287 247.758 152.851 247.288C153.446 246.818 154.136 246.583 154.919 246.583C155.546 246.583 156.11 246.74 156.611 247.053C157.112 247.366 157.473 247.836 157.692 248.463L165.682 271.446L173.907 248.604C174.126 247.977 174.487 247.492 174.988 247.147C175.489 246.771 176.038 246.583 176.633 246.583C177.228 246.583 177.777 246.771 178.278 247.147C178.811 247.492 179.187 247.993 179.406 248.651L187.396 271.728L195.527 248.463ZM209.08 280C208.171 280 207.45 279.749 206.918 279.248C206.416 278.747 206.166 278.042 206.166 277.133V249.732C206.166 248.823 206.416 248.118 206.918 247.617C207.45 247.116 208.171 246.865 209.08 246.865H226.047C226.955 246.865 227.66 247.069 228.162 247.476C228.663 247.883 228.914 248.463 228.914 249.215C228.914 249.998 228.663 250.609 228.162 251.048C227.66 251.455 226.955 251.659 226.047 251.659H212.088V260.777H225.107C226.015 260.777 226.72 260.981 227.222 261.388C227.723 261.795 227.974 262.391 227.974 263.174C227.974 263.926 227.723 264.506 227.222 264.913C226.72 265.32 226.015 265.524 225.107 265.524H212.088V275.206H226.047C226.955 275.206 227.66 275.425 228.162 275.864C228.663 276.271 228.914 276.867 228.914 277.65C228.914 278.402 228.663 278.982 228.162 279.389C227.66 279.796 226.955 280 226.047 280H209.08ZM254.24 262.892C256.152 263.425 257.624 264.396 258.658 265.806C259.724 267.216 260.256 268.939 260.256 270.976C260.256 273.796 259.238 276.005 257.201 277.603C255.196 279.201 252.423 280 248.882 280H236.756C235.848 280 235.127 279.749 234.594 279.248C234.093 278.747 233.842 278.042 233.842 277.133V249.732C233.842 248.823 234.093 248.118 234.594 247.617C235.127 247.116 235.848 246.865 236.756 246.865H248.412C251.859 246.865 254.554 247.633 256.496 249.168C258.47 250.672 259.457 252.787 259.457 255.513C259.457 257.268 258.987 258.787 258.047 260.072C257.139 261.357 255.87 262.297 254.24 262.892ZM239.764 260.824H247.425C251.593 260.824 253.676 259.273 253.676 256.171C253.676 254.604 253.159 253.445 252.125 252.693C251.091 251.941 249.525 251.565 247.425 251.565H239.764V260.824ZM248.224 275.3C250.418 275.3 252.016 274.908 253.018 274.125C254.021 273.342 254.522 272.12 254.522 270.459C254.522 268.798 254.005 267.561 252.971 266.746C251.969 265.931 250.386 265.524 248.224 265.524H239.764V275.3H248.224ZM277.393 280.423C274.981 280.423 272.693 280.11 270.531 279.483C268.401 278.825 266.662 277.948 265.314 276.851C264.594 276.318 264.233 275.566 264.233 274.595C264.233 273.937 264.421 273.373 264.797 272.903C265.205 272.402 265.675 272.151 266.207 272.151C266.771 272.151 267.414 272.37 268.134 272.809C269.482 273.78 270.892 274.485 272.364 274.924C273.837 275.363 275.466 275.582 277.252 275.582C279.54 275.582 281.294 275.19 282.516 274.407C283.738 273.592 284.349 272.417 284.349 270.882C284.349 269.691 283.77 268.783 282.61 268.156C281.482 267.498 279.587 266.871 276.923 266.276C274.166 265.681 271.926 264.991 270.202 264.208C268.479 263.425 267.179 262.422 266.301 261.2C265.424 259.978 264.985 258.427 264.985 256.547C264.985 254.604 265.534 252.865 266.63 251.33C267.727 249.795 269.247 248.604 271.189 247.758C273.163 246.881 275.372 246.442 277.816 246.442C282.297 246.442 285.947 247.633 288.767 250.014C289.175 250.359 289.457 250.703 289.613 251.048C289.801 251.361 289.895 251.769 289.895 252.27C289.895 252.928 289.692 253.508 289.284 254.009C288.908 254.479 288.454 254.714 287.921 254.714C287.608 254.714 287.31 254.667 287.028 254.573C286.778 254.479 286.433 254.307 285.994 254.056C284.71 253.116 283.456 252.427 282.234 251.988C281.044 251.518 279.571 251.283 277.816 251.283C275.686 251.283 273.994 251.722 272.74 252.599C271.518 253.445 270.907 254.636 270.907 256.171C270.907 257.456 271.456 258.443 272.552 259.132C273.649 259.821 275.513 260.464 278.145 261.059C280.934 261.686 283.19 262.391 284.913 263.174C286.668 263.926 288 264.897 288.908 266.088C289.848 267.279 290.318 268.767 290.318 270.553C290.318 272.496 289.77 274.219 288.673 275.723C287.608 277.196 286.088 278.355 284.114 279.201C282.172 280.016 279.931 280.423 277.393 280.423ZM298.905 280.282C297.996 280.282 297.26 280 296.696 279.436C296.163 278.872 295.897 278.136 295.897 277.227V249.638C295.897 248.729 296.163 248.009 296.696 247.476C297.26 246.912 297.996 246.63 298.905 246.63C299.845 246.63 300.581 246.912 301.114 247.476C301.678 248.009 301.96 248.729 301.96 249.638V277.227C301.96 278.136 301.678 278.872 301.114 279.436C300.581 280 299.845 280.282 298.905 280.282ZM319.973 280.235C319.033 280.235 318.281 279.969 317.717 279.436C317.184 278.872 316.918 278.136 316.918 277.227V251.847H308.364C306.484 251.847 305.544 251.017 305.544 249.356C305.544 247.695 306.484 246.865 308.364 246.865H331.535C333.415 246.865 334.355 247.695 334.355 249.356C334.355 251.017 333.415 251.847 331.535 251.847H322.981V277.227C322.981 278.136 322.699 278.872 322.135 279.436C321.602 279.969 320.881 280.235 319.973 280.235ZM340.854 280C339.945 280 339.225 279.749 338.692 279.248C338.191 278.747 337.94 278.042 337.94 277.133V249.732C337.94 248.823 338.191 248.118 338.692 247.617C339.225 247.116 339.945 246.865 340.854 246.865H357.821C358.73 246.865 359.435 247.069 359.936 247.476C360.437 247.883 360.688 248.463 360.688 249.215C360.688 249.998 360.437 250.609 359.936 251.048C359.435 251.455 358.73 251.659 357.821 251.659H343.862V260.777H356.881C357.79 260.777 358.495 260.981 358.996 261.388C359.497 261.795 359.748 262.391 359.748 263.174C359.748 263.926 359.497 264.506 358.996 264.913C358.495 265.32 357.79 265.524 356.881 265.524H343.862V275.206H357.821C358.73 275.206 359.435 275.425 359.936 275.864C360.437 276.271 360.688 276.867 360.688 277.65C360.688 278.402 360.437 278.982 359.936 279.389C359.435 279.796 358.73 280 357.821 280H340.854Z" fill="black"/>
<path d="M279.893 182.63C280.77 182.63 281.46 182.912 281.961 183.476C282.494 184.009 282.76 184.729 282.76 185.638V213.227C282.76 214.136 282.494 214.872 281.961 215.436C281.428 216 280.739 216.282 279.893 216.282C278.89 216.282 278.123 215.922 277.59 215.201L260.435 192.876V213.227C260.435 214.136 260.184 214.872 259.683 215.436C259.182 216 258.492 216.282 257.615 216.282C256.738 216.282 256.048 216 255.547 215.436C255.046 214.872 254.795 214.136 254.795 213.227V185.638C254.795 184.729 255.061 184.009 255.594 183.476C256.127 182.912 256.832 182.63 257.709 182.63C258.68 182.63 259.432 182.99 259.965 183.711L277.073 205.942V185.638C277.073 184.729 277.324 184.009 277.825 183.476C278.358 182.912 279.047 182.63 279.893 182.63ZM292.821 216C291.913 216 291.192 215.749 290.659 215.248C290.158 214.747 289.907 214.042 289.907 213.133V185.732C289.907 184.823 290.158 184.118 290.659 183.617C291.192 183.116 291.913 182.865 292.821 182.865H309.788C310.697 182.865 311.402 183.069 311.903 183.476C312.405 183.883 312.655 184.463 312.655 185.215C312.655 185.998 312.405 186.609 311.903 187.048C311.402 187.455 310.697 187.659 309.788 187.659H295.829V196.777H308.848C309.757 196.777 310.462 196.981 310.963 197.388C311.465 197.795 311.715 198.391 311.715 199.174C311.715 199.926 311.465 200.506 310.963 200.913C310.462 201.32 309.757 201.524 308.848 201.524H295.829V211.206H309.788C310.697 211.206 311.402 211.425 311.903 211.864C312.405 212.271 312.655 212.867 312.655 213.65C312.655 214.402 312.405 214.982 311.903 215.389C311.402 215.796 310.697 216 309.788 216H292.821ZM359.132 184.463C359.351 183.836 359.696 183.366 360.166 183.053C360.667 182.74 361.216 182.583 361.811 182.583C362.563 182.583 363.205 182.818 363.738 183.288C364.302 183.758 364.584 184.385 364.584 185.168C364.584 185.45 364.506 185.857 364.349 186.39L354.244 214.355C353.993 214.982 353.57 215.467 352.975 215.812C352.411 216.157 351.784 216.329 351.095 216.329C350.406 216.329 349.763 216.157 349.168 215.812C348.573 215.467 348.165 214.982 347.946 214.355L340.144 192.218L332.201 214.355C331.95 214.982 331.527 215.467 330.932 215.812C330.368 216.157 329.741 216.329 329.052 216.329C328.363 216.329 327.72 216.157 327.125 215.812C326.561 215.467 326.169 214.982 325.95 214.355L315.845 186.39C315.688 185.92 315.61 185.513 315.61 185.168C315.61 184.385 315.892 183.758 316.456 183.288C317.051 182.818 317.741 182.583 318.524 182.583C319.151 182.583 319.715 182.74 320.216 183.053C320.717 183.366 321.078 183.836 321.297 184.463L329.287 207.446L337.512 184.604C337.731 183.977 338.092 183.492 338.593 183.147C339.094 182.771 339.643 182.583 340.238 182.583C340.833 182.583 341.382 182.771 341.883 183.147C342.416 183.492 342.792 183.993 343.011 184.651L351.001 207.728L359.132 184.463Z" fill="#7694FF"/>
</svg>
