<svg width="420" height="407" viewBox="0 0 420 407" fill="none" xmlns="http://www.w3.org/2000/svg">
<path d="M209.655 407C325.444 407 419.31 352.806 419.31 285.955C419.31 219.104 325.444 164.91 209.655 164.91C93.8657 164.91 0 219.104 0 285.955C0 352.806 93.8657 407 209.655 407Z" fill="#F0F0F0"/>
<path d="M330.057 327.953C316.309 320.015 316.309 307.148 330.057 299.211C343.805 291.273 366.096 291.273 379.844 299.211C393.592 307.148 393.592 320.015 379.844 327.953C366.096 335.89 343.805 335.89 330.057 327.953Z" fill="#E0E0E0"/>
<path d="M50.4345 329.057L14.2715 308.181C12.2337 307.007 12.2337 305.094 14.2715 303.919L224.62 182.474C225.764 181.895 227.027 181.593 228.309 181.593C229.59 181.593 230.854 181.895 231.997 182.474L268.169 203.35C270.207 204.524 270.207 206.437 268.169 207.612L57.8202 329.057C56.6754 329.636 55.4104 329.938 54.1273 329.938C52.8443 329.938 51.5793 329.636 50.4345 329.057Z" fill="#E0E0E0"/>
<path d="M180.421 291.844L211.512 273.869C214.715 272.018 216.317 269.598 216.317 267.169C216.317 264.739 216.317 262.844 216.317 262.844L184.069 244.656C183.168 244.073 182.418 243.286 181.88 242.358C181.342 241.43 181.031 240.388 180.973 239.317V200.974L126.692 232.349V270.675C126.755 271.745 127.068 272.785 127.605 273.713C128.143 274.64 128.891 275.428 129.789 276.014L157.232 291.817C163.621 295.546 174.014 295.546 180.421 291.844Z" fill="#7694FF"/>
<g opacity="0.6">
<path opacity="0.6" d="M180.421 291.845L211.512 273.87C214.715 272.019 216.317 269.599 216.317 267.17C216.317 264.74 216.317 262.845 216.317 262.845L184.069 244.657C183.168 244.074 182.418 243.287 181.88 242.359C181.342 241.431 181.031 240.389 180.973 239.318V200.975L126.692 232.35V270.676C126.755 271.746 127.068 272.786 127.605 273.714C128.143 274.641 128.891 275.429 129.789 276.015L157.232 291.818C163.621 295.547 174.014 295.547 180.421 291.845Z" fill="black"/>
</g>
<path opacity="0.3" d="M139.711 277.465V281.771L129.763 276.032C128.865 275.447 128.118 274.659 127.581 273.731C127.045 272.804 126.734 271.763 126.675 270.693V232.35L137.015 226.379C137.228 229.004 137.46 231.718 137.682 234.387L130.412 238.57V268.513C130.47 269.584 130.78 270.626 131.319 271.554C131.857 272.483 132.607 273.27 133.509 273.852L139.711 277.465Z" fill="black"/>
<path d="M130.412 268.521C130.473 269.591 130.785 270.633 131.323 271.56C131.861 272.488 132.61 273.275 133.509 273.86L157.196 287.51C163.603 291.203 173.996 291.212 180.412 287.51L211.556 269.535C217.972 265.834 217.972 259.836 211.556 256.134L187.851 242.484C186.955 241.898 186.208 241.11 185.672 240.182C185.135 239.255 184.824 238.215 184.763 237.145V207.193L130.483 238.569L130.412 268.521Z" fill="#7694FF"/>
<path opacity="0.3" d="M130.412 268.521C130.473 269.591 130.785 270.633 131.323 271.56C131.861 272.488 132.61 273.275 133.509 273.86L157.196 287.51C163.603 291.203 173.996 291.212 180.412 287.51L211.556 269.535C217.972 265.834 217.972 259.836 211.556 256.134L187.851 242.484C186.955 241.898 186.208 241.11 185.672 240.182C185.135 239.255 184.824 238.215 184.763 237.145V207.193L130.483 238.569L130.412 268.521Z" fill="black"/>
<path opacity="0.5" d="M194.124 246.142L187.815 242.502C186.918 241.916 186.172 241.128 185.636 240.2C185.099 239.273 184.788 238.233 184.727 237.163V207.193L130.447 238.569V268.521C130.508 269.591 130.821 270.633 131.359 271.56C131.896 272.488 132.645 273.275 133.544 273.86L139.773 277.419L194.124 246.142Z" fill="black"/>
<path d="M216.326 262.853V267.177C216.326 269.606 214.715 272.018 211.521 273.878L180.376 291.843C176.968 293.663 173.161 294.608 169.298 294.593V290.286C173.161 290.301 176.968 289.356 180.376 287.537L211.521 269.553C214.715 267.711 216.326 265.282 216.326 262.853Z" fill="#7694FF"/>
<path opacity="0.5" d="M216.326 262.853V267.177C216.326 269.606 214.715 272.018 211.521 273.878L180.376 291.843C176.968 293.663 173.161 294.608 169.298 294.593V290.286C173.161 290.301 176.968 289.356 180.376 287.537L211.521 269.553C214.715 267.711 216.326 265.282 216.326 262.853Z" fill="black"/>
<path d="M43.2078 305.743C44.3812 306.31 45.6714 306.593 46.9744 306.57C48.2773 306.547 49.5566 306.218 50.7091 305.61L260.711 184.369C261.837 183.635 262.774 182.646 263.447 181.482C264.119 180.317 264.508 179.011 264.582 177.669V7.78104C264.542 6.47508 264.193 5.19711 263.566 4.05126C262.938 2.90541 262.048 1.92411 260.969 1.18733C259.797 0.619933 258.508 0.337106 257.206 0.361845C255.904 0.386585 254.626 0.718191 253.477 1.32971L43.4747 122.606C42.3526 123.345 41.4211 124.339 40.7562 125.506C40.0912 126.674 39.7116 127.982 39.6484 129.324V299.185C39.6881 300.481 40.0308 301.748 40.6489 302.887C41.267 304.026 42.1434 305.004 43.2078 305.743Z" fill="#7694FF"/>
<path d="M50.736 305.602L260.738 184.361C261.865 183.628 262.804 182.639 263.476 181.475C264.149 180.31 264.537 179.003 264.609 177.661V7.78147C264.609 5.31662 262.874 4.31111 260.738 5.54798L50.736 126.788C49.6095 127.522 48.6719 128.512 47.9994 129.676C47.3268 130.84 46.9383 132.146 46.8652 133.489V303.368C46.8652 305.833 48.6004 306.838 50.736 305.602Z" fill="#7694FF"/>
<path opacity="0.5" d="M50.736 305.602L260.738 184.361C261.865 183.628 262.804 182.639 263.476 181.475C264.149 180.31 264.537 179.003 264.609 177.661V7.78147C264.609 5.31662 262.874 4.31111 260.738 5.54798L50.736 126.788C49.6095 127.522 48.6719 128.512 47.9994 129.676C47.3268 130.84 46.9383 132.146 46.8652 133.489V303.368C46.8652 305.833 48.6004 306.838 50.736 305.602Z" fill="black"/>
<path d="M50.1663 310.015C49.0651 310.495 47.8728 310.732 46.6714 310.707C45.4701 310.682 44.2884 310.398 43.2078 309.872C42.141 309.132 41.2632 308.151 40.6449 307.008C40.0267 305.866 39.6854 304.595 39.6484 303.296V287.831L46.9006 292.031V307.496C46.8561 309.748 48.2888 310.771 50.1663 310.015Z" fill="#7694FF"/>
<path opacity="0.5" d="M50.1663 310.015C49.0651 310.495 47.8728 310.732 46.6714 310.707C45.4701 310.682 44.2884 310.398 43.2078 309.872C42.141 309.132 41.2632 308.151 40.6449 307.008C40.0267 305.866 39.6854 304.595 39.6484 303.296V287.831L46.9006 292.031V307.496C46.8561 309.748 48.2888 310.771 50.1663 310.015Z" fill="black"/>
<path d="M46.8555 292.031V307.497C46.8555 309.961 48.6351 310.958 50.7263 309.73L260.728 188.49C261.85 187.759 262.784 186.775 263.456 185.617C264.128 184.46 264.52 183.161 264.599 181.825V166.288L46.8555 292.031Z" fill="#7694FF"/>
<path opacity="0.3" d="M46.8652 291.996V307.497C46.8652 309.961 48.6449 310.958 50.736 309.73L260.738 188.49C261.858 187.758 262.79 186.773 263.461 185.616C264.132 184.459 264.522 183.16 264.6 181.825V166.288L46.8652 291.996Z" fill="black"/>
<path d="M54.1182 272.588V135.9C54.1596 135.095 54.3908 134.311 54.7928 133.612C55.1949 132.913 55.7565 132.319 56.4317 131.878L254.99 17.2046C256.272 16.466 257.313 17.0622 257.313 18.5393V155.299C257.27 156.105 257.037 156.889 256.633 157.588C256.23 158.287 255.667 158.88 254.99 159.321L56.4406 273.967C55.1593 274.706 54.1182 274.101 54.1182 272.588Z" fill="#7694FF"/>
<path d="M54.1182 272.588V135.9C54.1596 135.095 54.3908 134.311 54.7928 133.612C55.1949 132.913 55.7565 132.319 56.4317 131.878L254.99 17.2046C256.272 16.466 257.313 17.0622 257.313 18.5393V155.299C257.27 156.105 257.037 156.889 256.633 157.588C256.23 158.287 255.667 158.88 254.99 159.321L56.4406 273.967C55.1593 274.706 54.1182 274.101 54.1182 272.588Z" fill="#263238"/>
<path d="M155.727 234.084C154.67 234.772 153.791 235.699 153.16 236.79C152.529 237.882 152.165 239.107 152.097 240.366C152.097 242.68 153.725 243.623 155.727 242.466C156.785 241.778 157.666 240.849 158.297 239.756C158.928 238.663 159.291 237.436 159.358 236.175C159.358 233.862 157.729 232.927 155.727 234.084Z" fill="#7694FF"/>
<path opacity="0.7" d="M48.004 129.662C47.3144 130.822 46.9202 132.133 46.8561 133.48V292.031L39.6484 287.831V129.324C39.6951 127.973 40.0872 126.655 40.7874 125.498L48.004 129.662Z" fill="black"/>
<path opacity="0.3" d="M264.564 7.14099C264.289 5.14775 262.678 4.47148 260.729 5.54818L50.7273 126.789C49.5886 127.501 48.6489 128.49 47.9955 129.663L40.7344 125.472C41.3921 124.299 42.3347 123.31 43.4751 122.598L253.477 1.36594C254.628 0.754337 255.907 0.422715 257.211 0.397978C258.514 0.373241 259.805 0.656086 260.978 1.22356C261.965 1.89571 262.795 2.77184 263.414 3.79273C264.033 4.81361 264.425 5.95543 264.564 7.14099Z" fill="black"/>
<path d="M275.895 28.0518C275.583 27.8952 275.234 27.8266 274.886 27.8533C274.538 27.8799 274.204 28.0008 273.919 28.203L75.7701 142.672C74.9882 143.189 74.3391 143.883 73.8754 144.698C73.4116 145.513 73.1462 146.425 73.1006 147.361V283.213C73.0728 283.672 73.1639 284.13 73.365 284.543C73.5661 284.956 73.8704 285.31 74.2485 285.571C74.6845 285.811 77.0159 287.164 77.7099 287.538C77.9555 287.663 78.2299 287.72 78.505 287.705C78.7802 287.689 79.0462 287.601 79.2761 287.449L277.381 172.98C278.163 172.463 278.812 171.769 279.276 170.954C279.739 170.139 280.005 169.227 280.05 168.29V31.7357C280.09 31.3906 280.033 31.0413 279.885 30.7269C279.737 30.4126 279.505 30.1456 279.214 29.956C278.769 29.6624 276.393 28.3454 275.895 28.0518Z" fill="#7694FF"/>
<path d="M79.231 144.594L277.389 30.1698C278.884 29.28 280.059 30.0096 280.059 31.7359V168.291C280.013 169.227 279.748 170.139 279.284 170.954C278.82 171.769 278.171 172.463 277.389 172.98L79.231 287.449C77.7361 288.339 76.5615 286.906 76.5615 285.18V149.284C76.6085 148.348 76.8745 147.436 77.3382 146.621C77.8018 145.807 78.4502 145.112 79.231 144.594Z" fill="#FAFAFA"/>
<path d="M278.599 30.6857C279.124 30.6857 279.204 31.3442 279.204 31.7357V168.29C279.156 169.074 278.926 169.837 278.533 170.516C278.139 171.196 277.592 171.774 276.935 172.206L78.8039 286.674C78.6709 286.761 78.5173 286.81 78.359 286.817C77.8607 286.817 77.4692 286.052 77.4692 285.18V149.283C77.5121 148.5 77.7351 147.736 78.1209 147.053C78.5068 146.369 79.045 145.783 79.6938 145.341L277.834 30.9349C278.063 30.787 278.327 30.7011 278.599 30.6857ZM278.599 29.7959C278.17 29.8142 277.754 29.9429 277.389 30.1696L79.231 144.594C78.4502 145.112 77.8018 145.806 77.3382 146.621C76.8745 147.435 76.6085 148.347 76.5615 149.283V285.18C76.5615 286.55 77.3268 287.707 78.3412 287.707C78.6554 287.701 78.9624 287.612 79.231 287.449L277.38 172.98C278.162 172.463 278.811 171.769 279.275 170.954C279.739 170.139 280.004 169.227 280.05 168.29V31.7357C280.05 30.5078 279.445 29.7959 278.555 29.7959H278.599Z" fill="#E0E0E0"/>
<path d="M74.195 285.572C74.4887 285.723 76.5976 286.924 77.523 287.458C77.1907 287.183 76.9275 286.833 76.7545 286.437C76.5814 286.042 76.5033 285.611 76.5264 285.18V158.156L73.056 156.127V283.214C73.0273 283.671 73.117 284.129 73.3165 284.542C73.516 284.955 73.8186 285.31 74.195 285.572Z" fill="#F0F0F0"/>
<path d="M280.094 31.7096C280.094 30.0011 278.875 29.307 277.425 30.1701L79.231 144.594C78.4502 145.113 77.8018 145.807 77.3382 146.621C76.8745 147.436 76.6085 148.348 76.5615 149.284V158.182L280.094 40.6079V31.7096Z" fill="#7694FF"/>
<g opacity="0.4">
<path opacity="0.4" d="M277.389 30.1699L79.2307 144.585C78.4355 145.087 77.7803 145.782 77.3265 146.605L73.8828 144.603C74.3358 143.809 74.9854 143.144 75.7693 142.672L273.918 28.2034C274.202 27.9998 274.536 27.8773 274.884 27.8491C275.232 27.8208 275.581 27.888 275.894 28.0432C276.374 28.3458 278.626 29.6182 279.204 29.9297C278.905 29.8187 278.583 29.7826 278.267 29.8245C277.95 29.8664 277.649 29.985 277.389 30.1699Z" fill="white"/>
</g>
<path opacity="0.15" d="M73.0557 156.136V147.318C73.0922 146.357 73.3773 145.421 73.8832 144.604L77.3358 146.597C76.8372 147.401 76.558 148.321 76.526 149.266V158.165L73.0557 156.136Z" fill="black"/>
<path d="M238.308 134.148L119.63 202.665C119.053 203.04 118.572 203.545 118.227 204.141C117.883 204.736 117.683 205.404 117.646 206.091V240.119C117.683 240.806 117.883 241.474 118.227 242.069C118.572 242.665 119.053 243.17 119.63 243.544L123.091 245.538C123.707 245.849 124.386 246.011 125.076 246.011C125.765 246.011 126.445 245.849 127.06 245.538L245.72 177.02C246.297 176.644 246.778 176.137 247.123 175.54C247.467 174.943 247.667 174.274 247.704 173.585V139.549C247.667 138.862 247.467 138.194 247.122 137.598C246.778 137.003 246.297 136.498 245.72 136.123L242.25 134.13C241.637 133.824 240.961 133.666 240.276 133.669C239.592 133.672 238.917 133.836 238.308 134.148Z" fill="#7694FF"/>
<path opacity="0.5" d="M247.704 139.246C247.562 138.223 246.734 137.849 245.737 138.427L127.06 206.945C126.474 207.308 125.993 207.817 125.663 208.422L118.232 204.133C118.565 203.538 119.043 203.036 119.621 202.674L238.307 134.156C238.921 133.844 239.599 133.682 240.287 133.682C240.975 133.682 241.654 133.844 242.267 134.156L245.737 136.149C246.266 136.496 246.716 136.951 247.055 137.485C247.394 138.019 247.615 138.62 247.704 139.246Z" fill="white"/>
<path d="M126.722 245.707C126.141 245.936 125.518 246.04 124.894 246.013C124.27 245.985 123.659 245.826 123.1 245.547L119.63 243.554C119.054 243.178 118.574 242.672 118.229 242.077C117.885 241.482 117.685 240.814 117.646 240.128V206.1C117.672 205.406 117.874 204.729 118.233 204.134L125.663 208.423C125.302 209.011 125.1 209.682 125.076 210.372V244.408C125.076 245.538 125.788 246.063 126.722 245.707Z" fill="#263238"/>
<path d="M127.06 206.944L245.738 138.427C246.833 137.795 247.722 138.302 247.722 139.566V173.602C247.685 174.29 247.485 174.96 247.141 175.557C246.796 176.153 246.315 176.661 245.738 177.037L127.078 245.555C125.984 246.186 125.094 245.67 125.094 244.407V210.379C125.129 209.693 125.326 209.024 125.668 208.427C126.009 207.831 126.486 207.323 127.06 206.944Z" fill="#7694FF"/>
<path d="M206.843 152.317L119.639 202.673C119.061 203.036 118.584 203.538 118.251 204.133L125.681 208.422C126.012 207.817 126.493 207.308 127.078 206.945L214.282 156.598L206.843 152.317Z" fill="#455A64"/>
<path d="M214.264 156.598L127.06 206.945C126.482 207.321 126.002 207.828 125.657 208.425C125.312 209.022 125.113 209.691 125.075 210.379V244.398C125.075 245.662 125.965 246.178 127.06 245.546L214.264 195.199V156.598Z" fill="#37474F"/>
<path d="M147.169 202.798L192.169 176.824C194.028 175.747 195.541 176.512 195.541 178.532C195.458 179.667 195.108 180.766 194.521 181.74C193.933 182.714 193.124 183.535 192.16 184.138L147.169 210.122C145.31 211.198 143.788 210.433 143.788 208.413C143.872 207.278 144.222 206.178 144.809 205.202C145.397 204.227 146.205 203.403 147.169 202.798Z" fill="#7694FF"/>
<path d="M174.542 208.031C174.55 208.022 174.56 208.014 174.572 208.009C174.583 208.004 174.596 208.001 174.608 208.001C174.621 208.001 174.633 208.004 174.645 208.009C174.656 208.014 174.667 208.022 174.675 208.031C174.715 208.092 174.734 208.164 174.728 208.236V209.126C174.728 209.217 174.71 209.308 174.675 209.393C174.644 209.459 174.599 209.517 174.542 209.562L171.498 211.342C171.48 211.358 171.456 211.368 171.432 211.368C171.407 211.368 171.383 211.358 171.365 211.342C171.325 211.284 171.306 211.215 171.311 211.146V203.137C171.312 203.046 171.33 202.955 171.365 202.87C171.39 202.801 171.437 202.742 171.498 202.701L172.059 202.372C172.077 202.355 172.101 202.346 172.126 202.346C172.15 202.346 172.174 202.355 172.192 202.372C172.232 202.429 172.251 202.498 172.246 202.568V209.339L174.542 208.031Z" fill="#FAFAFA"/>
<path d="M177.273 201.447C177.474 201.308 177.716 201.242 177.959 201.26C178.167 201.276 178.361 201.372 178.501 201.527C178.667 201.717 178.789 201.942 178.857 202.185C178.952 202.5 179.006 202.826 179.017 203.155C179.017 203.226 179.017 203.324 179.017 203.44V204.125C179.017 204.232 179.017 204.33 179.017 204.41C179 204.796 178.946 205.181 178.857 205.558C178.775 205.925 178.656 206.282 178.501 206.625C178.36 206.945 178.178 207.244 177.959 207.515C177.771 207.761 177.538 207.97 177.273 208.129C177.067 208.263 176.825 208.328 176.579 208.316C176.374 208.298 176.183 208.203 176.045 208.049C175.875 207.865 175.752 207.642 175.689 207.4C175.594 207.085 175.541 206.758 175.529 206.43C175.529 206.358 175.529 206.269 175.529 206.154V205.469C175.529 205.353 175.529 205.255 175.529 205.184C175.54 204.794 175.59 204.406 175.681 204.027C175.767 203.657 175.889 203.297 176.045 202.95C176.187 202.633 176.366 202.334 176.579 202.061C176.768 201.812 177.004 201.603 177.273 201.447ZM178.11 203.742C178.109 203.545 178.076 203.35 178.012 203.164C177.979 203.05 177.91 202.951 177.816 202.879C177.74 202.828 177.649 202.806 177.558 202.817C177.456 202.836 177.36 202.875 177.273 202.933C177.169 202.99 177.073 203.062 176.989 203.146C176.887 203.252 176.8 203.372 176.731 203.502C176.641 203.664 176.575 203.838 176.535 204.018C176.476 204.245 176.441 204.478 176.428 204.712C176.428 204.783 176.428 204.864 176.428 204.961V205.593C176.428 205.691 176.428 205.771 176.428 205.825C176.436 206.021 176.472 206.216 176.535 206.403C176.567 206.517 176.636 206.617 176.731 206.688C176.768 206.714 176.81 206.732 176.854 206.741C176.898 206.751 176.944 206.75 176.989 206.741C177.089 206.724 177.186 206.688 177.273 206.634C177.377 206.575 177.472 206.503 177.558 206.421C177.657 206.312 177.744 206.193 177.816 206.065C177.902 205.901 177.968 205.728 178.012 205.549C178.07 205.322 178.103 205.089 178.11 204.855C178.115 204.772 178.115 204.688 178.11 204.605V203.983C178.115 203.903 178.115 203.822 178.11 203.742Z" fill="#FAFAFA"/>
<path d="M181.74 206.651C181.854 206.582 181.956 206.494 182.043 206.393C182.15 206.267 182.242 206.13 182.318 205.984C182.407 205.805 182.476 205.617 182.523 205.423C182.578 205.205 182.605 204.981 182.603 204.756V204.302C182.603 204.391 182.514 204.498 182.452 204.622C182.391 204.752 182.32 204.877 182.238 204.996C182.145 205.121 182.044 205.24 181.936 205.352C181.824 205.469 181.695 205.568 181.553 205.646C181.462 205.708 181.359 205.751 181.25 205.773C181.141 205.794 181.03 205.793 180.921 205.77C180.724 205.708 180.554 205.579 180.441 205.405C180.296 205.175 180.191 204.923 180.129 204.658C180.054 204.322 180.012 203.979 180.005 203.635C180.005 203.519 180.005 203.376 180.005 203.207C180.005 203.038 180.005 202.896 180.005 202.771C180.016 202.38 180.058 201.99 180.129 201.606C180.203 201.227 180.307 200.855 180.441 200.493C180.567 200.179 180.728 199.881 180.921 199.604C181.086 199.358 181.301 199.152 181.553 198.998C181.672 198.927 181.801 198.876 181.936 198.847C182.036 198.829 182.138 198.829 182.238 198.847C182.317 198.869 182.39 198.909 182.452 198.963C182.509 199.006 182.56 199.057 182.603 199.114V198.829C182.604 198.738 182.622 198.647 182.657 198.562C182.681 198.493 182.728 198.434 182.79 198.393L183.315 198.082C183.333 198.065 183.357 198.056 183.382 198.056C183.407 198.056 183.43 198.065 183.449 198.082C183.492 198.141 183.513 198.213 183.511 198.287V204.071C183.535 204.937 183.374 205.798 183.039 206.598C182.777 207.226 182.322 207.756 181.74 208.11C181.542 208.234 181.315 208.304 181.082 208.315C180.897 208.326 180.713 208.28 180.557 208.182C180.406 208.069 180.284 207.923 180.201 207.755C180.114 207.552 180.066 207.334 180.058 207.114C180.05 207.022 180.069 206.929 180.112 206.847C180.133 206.773 180.181 206.71 180.245 206.669L180.717 206.402C180.728 206.39 180.741 206.381 180.755 206.375C180.77 206.368 180.785 206.365 180.801 206.365C180.817 206.365 180.833 206.368 180.847 206.375C180.862 206.381 180.875 206.39 180.886 206.402C180.93 206.448 180.968 206.499 181.002 206.553C181.056 206.649 181.145 206.719 181.251 206.749C181.357 206.829 181.518 206.74 181.74 206.651ZM180.904 202.335C180.904 202.573 180.904 202.804 180.904 203.029C180.878 203.385 180.979 203.738 181.188 204.026C181.268 204.094 181.369 204.132 181.473 204.132C181.578 204.132 181.679 204.094 181.758 204.026C182.016 203.858 182.218 203.616 182.336 203.332C182.498 202.961 182.589 202.562 182.603 202.157C182.603 202.024 182.603 201.864 182.603 201.677C182.603 201.49 182.603 201.33 182.603 201.214C182.621 200.895 182.527 200.58 182.336 200.324C182.257 200.252 182.154 200.212 182.047 200.212C181.94 200.212 181.837 200.252 181.758 200.324C181.505 200.492 181.307 200.73 181.188 201.01C181.006 201.428 180.909 201.879 180.904 202.335Z" fill="#FAFAFA"/>
<path d="M185.584 194.434C185.602 194.419 185.624 194.411 185.647 194.411C185.669 194.411 185.691 194.419 185.709 194.434C185.755 194.491 185.778 194.564 185.771 194.638V195.608C185.772 195.701 185.75 195.792 185.709 195.875C185.684 195.942 185.641 196 185.584 196.044L184.988 196.391C184.98 196.401 184.969 196.408 184.958 196.413C184.946 196.419 184.934 196.421 184.921 196.421C184.909 196.421 184.896 196.419 184.885 196.413C184.873 196.408 184.863 196.401 184.855 196.391C184.831 196.365 184.814 196.333 184.803 196.3C184.792 196.266 184.789 196.231 184.792 196.195V195.225C184.792 195.133 184.813 195.041 184.855 194.959C184.879 194.889 184.926 194.83 184.988 194.789L185.584 194.434ZM185.736 202.789C185.736 202.878 185.718 202.966 185.682 203.047C185.654 203.117 185.608 203.178 185.549 203.225L185.015 203.528C185.007 203.537 184.998 203.544 184.987 203.55C184.976 203.555 184.964 203.557 184.953 203.557C184.941 203.557 184.929 203.555 184.918 203.55C184.907 203.544 184.898 203.537 184.89 203.528C184.844 203.47 184.821 203.397 184.828 203.323V197.566C184.827 197.473 184.849 197.382 184.89 197.299C184.915 197.23 184.958 197.168 185.015 197.121L185.549 196.818C185.567 196.801 185.591 196.792 185.615 196.792C185.64 196.792 185.664 196.801 185.682 196.818C185.722 196.875 185.741 196.945 185.736 197.014V202.789Z" fill="#FAFAFA"/>
<path d="M190.417 200.076C190.417 200.167 190.398 200.258 190.364 200.342C190.339 200.412 190.292 200.471 190.23 200.512L189.696 200.823C189.68 200.839 189.657 200.848 189.634 200.848C189.611 200.848 189.588 200.839 189.572 200.823C189.525 200.765 189.503 200.692 189.509 200.618V197.486C189.537 197.116 189.469 196.746 189.314 196.409C189.189 196.187 188.993 196.151 188.717 196.312C188.442 196.496 188.238 196.769 188.139 197.086C187.991 197.505 187.918 197.948 187.926 198.394V201.535C187.925 201.626 187.907 201.717 187.872 201.802C187.85 201.875 187.803 201.938 187.739 201.98L187.214 202.282C187.205 202.292 187.195 202.299 187.184 202.305C187.172 202.31 187.16 202.312 187.147 202.312C187.134 202.312 187.122 202.31 187.11 202.305C187.099 202.299 187.088 202.292 187.08 202.282C187.039 202.226 187.02 202.156 187.027 202.087V196.329C187.026 196.238 187.044 196.147 187.08 196.062C187.102 195.989 187.149 195.926 187.214 195.884L187.739 195.582C187.747 195.572 187.757 195.565 187.769 195.56C187.78 195.554 187.793 195.552 187.805 195.552C187.818 195.552 187.83 195.554 187.842 195.56C187.853 195.565 187.864 195.572 187.872 195.582C187.912 195.642 187.931 195.714 187.926 195.787V196.062C188.043 195.791 188.186 195.532 188.353 195.288C188.499 195.064 188.697 194.877 188.931 194.745C189.134 194.597 189.385 194.534 189.634 194.567C189.732 194.592 189.825 194.638 189.904 194.7C189.984 194.763 190.05 194.842 190.097 194.932C190.226 195.173 190.31 195.435 190.346 195.706C190.393 196.06 190.417 196.417 190.417 196.774V200.076Z" fill="#FAFAFA"/>
<path d="M235.3 174.173L226.66 179.156L228.003 167.036C226.962 166.484 226.304 165.141 226.304 163.21C226.304 159.766 228.404 155.771 230.984 154.311C233.565 152.852 235.656 154.4 235.656 157.871C235.602 159.913 235.02 161.906 233.965 163.655L235.3 174.173Z" fill="#455A64"/>
<path d="M235.308 174.173L227.7 169.786L226.659 179.165L235.308 174.173Z" fill="#37474F"/>
<path d="M230.966 154.284C229.084 155.555 227.681 157.419 226.979 159.579L233.947 163.601C235.002 161.852 235.584 159.859 235.638 157.817C235.655 154.373 233.564 152.798 230.966 154.284Z" fill="#37474F"/>
<path d="M188.965 113.93C186.002 112.222 181.917 112.462 177.397 115.069C168.374 120.284 161.06 132.946 161.06 143.366C161.06 148.598 162.91 152.265 165.882 153.955L171.64 157.301C174.594 159.01 178.678 158.76 183.208 156.153C192.231 150.948 199.545 138.276 199.545 127.856C199.545 122.651 197.712 118.958 194.758 117.294" fill="#7694FF"/>
<path d="M183.2 118.424C174.177 123.639 166.862 136.31 166.862 146.721C166.862 157.132 174.177 161.368 183.2 156.153C192.223 150.939 199.546 138.277 199.537 127.857C199.528 117.437 192.214 113.219 183.2 118.424Z" fill="#7694FF"/>
<path d="M192.214 141.542V142.734C190.052 146.593 186.952 149.843 183.2 152.185C179.685 154.204 176.508 154.427 174.177 153.137V150.681C174.296 148.126 175.026 145.636 176.304 143.421C177.583 141.205 179.374 139.328 181.527 137.947L183.903 136.577C186.003 135.367 188.049 135.206 189.651 136.141C191.253 137.075 192.214 139.042 192.214 141.542Z" fill="#7694FF"/>
<path opacity="0.4" d="M188.966 113.93L194.75 117.294C191.796 115.577 187.711 115.817 183.182 118.424C177.274 121.841 172.095 128.453 169.229 135.536L163.437 132.181C166.311 125.062 171.445 118.486 177.389 115.069C181.927 112.471 186.012 112.222 188.966 113.93Z" fill="white"/>
<path opacity="0.2" d="M171.436 157.168L165.892 153.955C162.92 152.265 161.069 148.616 161.069 143.366L166.862 146.73C166.898 151.802 168.606 155.415 171.436 157.168Z" fill="black"/>
<path opacity="0.1" d="M163.455 132.181L169.247 135.535C167.763 139.081 166.966 142.877 166.898 146.721L161.105 143.357C161.177 139.517 161.974 135.725 163.455 132.181Z" fill="black"/>
<path d="M181.136 136.016C180.584 136.022 180.04 135.88 179.561 135.606C178.983 135.221 178.52 134.687 178.221 134.061C177.922 133.434 177.797 132.738 177.861 132.047C177.936 130.426 178.399 128.846 179.21 127.44C180.022 126.035 181.158 124.844 182.524 123.967C183.072 123.529 183.741 123.267 184.441 123.215C185.141 123.163 185.84 123.323 186.448 123.675C187.056 124.027 187.543 124.554 187.846 125.187C188.149 125.82 188.254 126.53 188.148 127.224C188.071 128.845 187.607 130.424 186.796 131.829C185.985 133.235 184.85 134.426 183.485 135.304C182.778 135.745 181.968 135.99 181.136 136.016Z" fill="white"/>
<path d="M189.651 136.132C188.049 135.198 186.003 135.358 183.903 136.568L181.527 137.938C179.373 139.321 177.581 141.199 176.302 143.416C175.024 145.633 174.295 148.124 174.177 150.681V153.146C176.508 154.436 179.685 154.213 183.2 152.194C186.952 149.852 190.052 146.602 192.214 142.743V141.551C192.214 139.042 191.288 137.075 189.651 136.132Z" fill="white"/>
<path d="M372.584 290.074C372.584 290.074 373.767 279.681 378.937 271.61C384.107 263.539 391.208 258.512 397.838 257.987C404.467 257.462 409.824 263.566 402.732 267.775C395.64 271.984 383.04 276.237 377.238 291.899L372.584 290.074Z" fill="#7694FF"/>
<path opacity="0.1" d="M372.584 290.074C372.584 290.074 373.767 279.681 378.937 271.61C384.107 263.539 391.208 258.512 397.838 257.987C404.467 257.462 409.824 263.566 402.732 267.775C395.64 271.984 383.04 276.237 377.238 291.899L372.584 290.074Z" fill="black"/>
<path d="M374.533 287.369H374.462C374.375 287.333 374.305 287.265 374.268 287.178C374.232 287.091 374.231 286.994 374.266 286.906C381.26 269.688 394.572 262.489 400.641 261.101C400.686 261.09 400.734 261.089 400.78 261.097C400.826 261.104 400.87 261.121 400.91 261.146C400.949 261.171 400.984 261.203 401.011 261.241C401.038 261.279 401.057 261.322 401.068 261.368C401.079 261.413 401.08 261.461 401.072 261.507C401.065 261.553 401.048 261.597 401.023 261.637C400.998 261.676 400.966 261.711 400.928 261.738C400.89 261.765 400.847 261.784 400.801 261.795C394.857 263.165 381.803 270.231 374.925 287.182C374.89 287.253 374.833 287.31 374.762 287.344C374.69 287.378 374.61 287.387 374.533 287.369Z" fill="white"/>
<path d="M409.931 287.573C409.335 288.926 407.857 289.638 406.487 290.19C405.117 290.741 403.622 291.338 402.874 292.619C401.379 295.199 403.835 298.848 402.234 301.348C401.857 301.852 401.381 302.273 400.837 302.589C400.293 302.904 399.69 303.105 399.066 303.181C398.042 303.368 397.001 303.368 395.969 303.457C395.475 303.451 394.981 303.412 394.492 303.341C393.054 303.021 391.551 303.18 390.212 303.795C388.156 304.952 387.542 307.541 386.279 309.544C385.507 310.722 384.489 311.721 383.296 312.47C382.103 313.22 380.762 313.703 379.365 313.886C378.475 314.002 376.695 314.171 375.805 313.646C375.736 313.612 375.67 313.57 375.61 313.521C375.476 313.379 375.316 313.192 375.245 313.094C375.24 313.074 375.24 313.052 375.245 313.032C374.88 311.688 375.476 310.3 375.503 308.912V308.663C375.441 307.052 375.396 305.45 375.36 303.849C375.283 300.882 375.254 297.916 375.272 294.95C375.272 293.028 375.058 290.928 375.877 289.122C376.766 287.129 379.009 287.084 379.854 285.135C380.192 284.352 380.37 283.525 380.7 282.733C381.208 281.581 382.023 280.592 383.056 279.872C384.088 279.151 385.298 278.728 386.555 278.648C390.461 278.453 393.958 281.612 397.864 281.318C398.87 281.238 399.858 280.926 400.854 280.748C404.013 280.152 407.671 281.051 409.45 283.729C409.841 284.281 410.089 284.92 410.173 285.591C410.257 286.262 410.173 286.943 409.931 287.573Z" fill="#7694FF"/>
<path d="M374.853 306.866C374.768 306.841 374.697 306.784 374.654 306.708C374.611 306.631 374.599 306.541 374.621 306.456C380.014 286.221 401.316 283.32 406.326 283.659C406.37 283.661 406.413 283.672 406.453 283.691C406.493 283.71 406.528 283.737 406.557 283.771C406.586 283.804 406.608 283.842 406.622 283.884C406.636 283.926 406.641 283.971 406.638 284.014C406.629 284.101 406.587 284.181 406.52 284.237C406.454 284.293 406.369 284.322 406.282 284.317C401.396 283.97 380.539 286.826 375.262 306.634C375.237 306.718 375.18 306.789 375.104 306.833C375.028 306.876 374.938 306.888 374.853 306.866Z" fill="white"/>
<path d="M398.55 296.614C398.483 296.605 398.42 296.574 398.372 296.525C396.403 294.818 394.081 293.567 391.572 292.861C389.063 292.155 386.429 292.012 383.859 292.441C383.772 292.449 383.686 292.424 383.616 292.371C383.547 292.319 383.5 292.242 383.485 292.156C383.472 292.069 383.494 291.98 383.545 291.909C383.597 291.837 383.674 291.789 383.761 291.774C386.442 291.327 389.189 291.48 391.804 292.22C394.419 292.96 396.838 294.269 398.888 296.054C398.92 296.084 398.945 296.121 398.962 296.161C398.979 296.202 398.988 296.246 398.988 296.289C398.988 296.333 398.979 296.377 398.962 296.417C398.945 296.458 398.92 296.495 398.888 296.525C398.848 296.573 398.794 296.608 398.733 296.624C398.673 296.64 398.609 296.636 398.55 296.614Z" fill="white"/>
<path d="M323.615 45.6802L326.445 46.7658V40.537C326.445 35.5895 330.387 34.406 334.667 36.8797C338.956 39.3535 342.427 45.3599 342.427 50.3074V51.1972C343.023 51.015 343.653 50.9699 344.269 51.0655C344.886 51.161 345.473 51.3947 345.986 51.7489C347.611 52.8087 348.963 54.2369 349.933 55.9176C350.902 57.5983 351.462 59.484 351.565 61.4215V61.8308L355.516 64.1088C356.585 64.8065 357.475 65.746 358.113 66.8513C358.751 67.9566 359.121 69.1967 359.191 70.4711C359.191 72.8203 357.545 73.7724 355.516 72.5979L323.615 54.1693C322.546 53.4732 321.656 52.5339 321.019 51.4281C320.382 50.3223 320.015 49.0815 319.949 47.807C319.949 45.4667 321.578 44.5146 323.615 45.6802Z" fill="#E6E6E6"/>
<path d="M361.514 40.7508L366.648 43.714C366.62 43.4896 366.605 43.2638 366.604 43.0377V41.5517C366.604 38.8822 368.454 37.8321 370.75 39.158C371.737 39.762 372.581 40.5726 373.224 41.5339C373.598 38.2059 376.214 36.969 379.382 38.7932C381.192 39.9711 382.699 41.5589 383.781 43.428C384.864 45.2971 385.49 47.3949 385.611 49.5513V51.7759C385.633 52.6648 385.454 53.5472 385.086 54.3564L389.357 56.8124C390.022 57.2539 390.575 57.8453 390.971 58.5392C391.366 59.2331 391.594 60.0101 391.635 60.8078C391.635 62.276 390.602 62.8722 389.33 62.1425L361.514 46.1254C360.841 45.6871 360.281 45.0958 359.881 44.3999C359.48 43.7039 359.25 42.9231 359.209 42.1212C359.209 40.6173 360.241 40.0211 361.514 40.7508Z" fill="#E6E6E6"/>
<path d="M341.634 175.8C337.897 182.118 334.302 187.609 331.775 190.242C326.979 192.467 315.713 195.902 311.309 196.471C310.535 196.57 309.752 196.387 309.102 195.955C307.367 194.816 306.023 194.629 304.199 193.998C302.766 193.508 302.161 192.823 301.894 193.108C301.618 193.431 301.48 193.849 301.508 194.273C301.536 194.697 301.729 195.093 302.045 195.377C302.73 196.027 303.489 196.595 304.306 197.067C302.352 197.552 300.314 197.589 298.344 197.174C294.526 196.169 292.729 198.002 295.309 202.148C296.199 203.626 299.865 206.001 307.233 205.361C309.862 205.219 312.479 204.922 315.073 204.471C322.138 202.958 329.995 201.499 334.827 200.022C336.624 199.315 338.233 198.2 339.525 196.765C347.65 187.502 350.346 180.899 353.905 174.902L353.603 165.113C347.837 164.918 344.758 170.515 341.634 175.8Z" fill="#FFA8A7"/>
<path d="M354.59 164.917C352.918 164.682 351.214 164.909 349.661 165.572C348.109 166.236 346.767 167.311 345.781 168.681C341.83 173.745 334.836 185.9 334.836 185.9C334.836 185.9 337.123 191.995 343.298 193.018L353.22 179.617C353.22 179.617 357.918 170.31 354.59 164.917Z" fill="#455A64"/>
<path d="M376.044 301.543H369.575V313.075H376.044V301.543Z" fill="#FFA8A7"/>
<path d="M353.621 300.929L347.16 301.161L346.831 288.952L353.621 288.721V300.929Z" fill="#FFA8A7"/>
<path d="M376.951 201.713C376.951 208.137 376.008 259.899 376.008 259.899C376.151 261.75 377.788 265.167 377.459 272.277C376.969 281.932 376.32 307.31 376.32 307.31C375.209 307.878 373.984 308.186 372.737 308.211C371.489 308.235 370.253 307.976 369.121 307.452C369.121 307.452 363.871 271.859 362.714 262.328C361.7 253.973 359.101 226.317 359.101 226.317L355.604 259.009C356.346 262.517 356.615 266.108 356.405 269.687C356.103 274.137 354.02 297.166 354.02 297.166C352.903 297.825 351.65 298.221 350.356 298.324C349.063 298.428 347.763 298.235 346.555 297.762C346.555 297.762 342.871 263.058 342.799 258.983C342.71 254.355 344.953 201.659 344.953 201.659L376.951 201.713Z" fill="#37474F"/>
<path d="M369.574 309.748V308.787C368.951 309.063 367.519 314.776 364.947 317.214C362.909 319.154 360.133 321.387 359.421 323.549C358.709 325.712 363.292 327.038 365.205 326.691C367.412 326.281 371.256 324.653 372.217 323.131C373.178 321.61 373.632 319.403 374.415 318.299C375.198 317.196 377.004 315.968 377.423 314.687C377.553 313.488 377.429 312.275 377.058 311.127C376.755 309.935 376.435 308.627 376.043 308.743V309.472C375.131 310.221 373.984 310.624 372.804 310.611C371.861 310.691 369.565 310.495 369.574 309.748Z" fill="#263238"/>
<path d="M347.089 299.078C346.751 299.078 346.475 299.586 345.736 300.422C344.638 301.577 343.354 302.54 341.937 303.27C339.516 304.533 334.818 306.473 332.673 307.478C331.339 308.101 331.401 309.774 332.78 310.726C334.159 311.679 337.478 312.364 341.465 311.438C343.636 310.931 346.466 308.84 348.263 308.956C350.061 309.071 353.398 309.036 354.724 308.066C356.049 307.096 355.516 305.085 355.142 303.35C354.732 301.445 354.252 298.482 353.62 298.616V299.283C352.846 300.511 348.833 301.009 347.124 300.111L347.089 299.078Z" fill="#263238"/>
<path d="M359.101 226.316C355.736 225.215 352.659 223.375 350.096 220.933C350.096 220.933 351.875 224.323 357.001 227.482L355.897 256.677L359.101 226.316Z" fill="#263238"/>
<path d="M373.339 165.86C373.339 165.86 378.678 167.088 378.296 176.734L377.183 192.084V215.131C372.432 220.523 351.378 220.132 344.126 214.704C344.126 214.704 344.945 187.43 345.434 176.93C345.781 169.473 347.498 165.718 354.831 164.899L363.845 165.291L373.339 165.86Z" fill="#7694FF"/>
<path d="M366.541 145.821C366.572 147.113 366.347 148.397 365.878 149.601C365.41 150.805 364.709 151.905 363.814 152.836C362.918 153.768 361.848 154.513 360.664 155.028C359.479 155.544 358.205 155.82 356.913 155.841C351.574 155.841 348.442 151.232 347.285 145.821C345.149 135.918 351.592 135.793 356.913 135.793C359.519 135.847 361.998 136.933 363.803 138.814C365.609 140.694 366.594 143.215 366.541 145.821Z" fill="#263238"/>
<path d="M371.453 149.871C371.453 149.871 369.975 157.097 369.379 158.289C369.004 159.007 368.367 159.552 367.6 159.811L367.706 154.73L371.453 149.871Z" fill="#263238"/>
<path d="M369.593 139.521C369.593 139.521 370.652 139.254 371.782 141.016C372.743 142.52 372.966 145.901 371.453 149.915L368.668 150.253L369.593 139.521Z" fill="#263238"/>
<path d="M370.616 140.99L374.033 141.052C374.057 140.831 374.034 140.608 373.967 140.396C373.9 140.185 373.79 139.989 373.644 139.822C373.497 139.655 373.318 139.52 373.117 139.425C372.916 139.331 372.698 139.279 372.476 139.272C372.009 139.279 371.561 139.458 371.217 139.775C370.874 140.092 370.66 140.525 370.616 140.99Z" fill="#263238"/>
<path d="M371.035 140.179L373.562 137.75C373.417 137.578 373.237 137.439 373.035 137.34C372.832 137.241 372.612 137.185 372.387 137.176C372.162 137.167 371.938 137.205 371.728 137.286C371.518 137.368 371.328 137.493 371.169 137.652C370.834 137.98 370.634 138.421 370.609 138.89C370.584 139.358 370.736 139.818 371.035 140.179Z" fill="#263238"/>
<path d="M367.831 150.209C368.392 150.556 369.184 149.443 369.878 148.687C370.572 147.931 372.726 147.237 373.847 149.693C374.968 152.148 373.055 154.578 371.453 155.379C368.579 156.802 367.671 154.729 367.671 154.729L367.431 166.172C363.391 172.401 354.226 172.205 357.527 165.87V162.391C356.169 162.616 354.79 162.688 353.416 162.604C351.174 162.248 349.768 160.406 349.083 157.879C347.997 153.821 347.579 150.547 348.504 142.565C349.519 133.827 359.289 133.729 364.521 137.226C369.754 140.723 367.831 150.209 367.831 150.209Z" fill="#FFA8A7"/>
<path d="M355.658 141.203C357.989 140.972 360.294 140.491 362.634 140.313C363.139 140.252 363.65 140.276 364.147 140.384C365.927 140.874 365.713 142.956 365.998 144.407C366.487 146.916 366.888 151.16 367.831 151.178C368.116 151.178 369.184 149.336 369.878 148.678C370.259 148.11 370.475 147.448 370.501 146.765C370.679 145.732 370.768 144.674 370.848 143.624C370.919 142.734 371.008 141.844 371.008 140.954C371.048 139.948 370.968 138.942 370.768 137.955C370.544 137.116 370.116 136.346 369.522 135.713L369.344 135.517C368.171 134.291 366.747 133.332 365.17 132.705C362.902 131.855 360.522 131.337 358.105 131.166C355.692 130.995 353.289 130.698 350.906 130.276C350.77 130.236 350.625 130.236 350.488 130.276C350.392 130.329 350.31 130.406 350.251 130.5C350.192 130.593 350.157 130.7 350.15 130.81C350.052 131.363 350.113 131.932 350.326 132.452C350.539 132.971 350.894 133.42 351.351 133.746C349.741 133.871 347.89 133.034 346.342 132.607C346.216 132.554 346.082 132.527 345.946 132.527C345.809 132.527 345.675 132.554 345.55 132.607C345.394 132.716 345.284 132.877 345.238 133.061C345.125 133.479 345.11 133.918 345.194 134.342C345.335 135.63 345.814 136.858 346.582 137.902C347.781 139.463 349.475 140.571 351.387 141.043C352.794 141.314 354.235 141.368 355.658 141.203Z" fill="#263238"/>
<path d="M357.535 162.39C357.535 162.39 362.536 161.34 364.28 160.37C365.319 159.802 366.162 158.934 366.701 157.879C366.438 158.939 365.969 159.937 365.321 160.815C364.049 162.524 357.535 163.77 357.535 163.77V162.39Z" fill="#F28F8F"/>
<path d="M358.737 148.9C358.727 149.175 358.827 149.442 359.013 149.644C359.2 149.846 359.459 149.966 359.734 149.977C359.952 149.995 360.17 149.947 360.36 149.838C360.55 149.73 360.703 149.567 360.799 149.37C360.894 149.174 360.928 148.953 360.896 148.736C360.864 148.52 360.768 148.318 360.619 148.158C360.471 147.997 360.277 147.885 360.064 147.837C359.851 147.788 359.628 147.805 359.424 147.885C359.221 147.966 359.046 148.105 358.924 148.287C358.801 148.468 358.736 148.682 358.737 148.9Z" fill="#263238"/>
<path d="M360.339 144.585L362.483 145.822C362.639 145.517 362.675 145.164 362.582 144.834C362.49 144.504 362.277 144.221 361.985 144.042C361.843 143.962 361.686 143.913 361.523 143.897C361.361 143.881 361.197 143.9 361.042 143.951C360.888 144.002 360.745 144.084 360.624 144.194C360.503 144.303 360.406 144.436 360.339 144.585Z" fill="#263238"/>
<path d="M357.98 156.116L355.693 157.006C355.739 157.163 355.817 157.309 355.922 157.434C356.026 157.56 356.156 157.662 356.302 157.736C356.448 157.809 356.607 157.852 356.771 157.861C356.934 157.87 357.097 157.846 357.251 157.789C357.562 157.655 357.81 157.408 357.946 157.097C358.082 156.786 358.094 156.436 357.98 156.116Z" fill="#F28F8F"/>
<path d="M349.536 145.501L351.494 143.935C351.406 143.799 351.291 143.682 351.155 143.593C351.019 143.504 350.866 143.444 350.706 143.418C350.545 143.392 350.381 143.4 350.224 143.442C350.067 143.483 349.921 143.558 349.794 143.66C349.533 143.881 349.362 144.192 349.314 144.531C349.267 144.871 349.346 145.216 349.536 145.501Z" fill="#263238"/>
<path d="M350.398 148.607C350.414 148.802 350.486 148.988 350.605 149.142C350.725 149.297 350.887 149.413 351.071 149.477C351.256 149.541 351.455 149.55 351.645 149.502C351.834 149.455 352.006 149.354 352.138 149.21C352.271 149.067 352.359 148.888 352.392 148.696C352.425 148.503 352.401 148.305 352.323 148.126C352.245 147.947 352.117 147.794 351.953 147.687C351.79 147.58 351.599 147.522 351.404 147.521C351.266 147.526 351.131 147.558 351.006 147.615C350.881 147.672 350.768 147.754 350.675 147.855C350.581 147.956 350.509 148.074 350.461 148.203C350.414 148.332 350.392 148.47 350.398 148.607Z" fill="#263238"/>
<path d="M355.764 147.77L355.649 154.096L352.054 153.278L355.764 147.77Z" fill="#F28F8F"/>
<path d="M270.394 200.76L275.973 197.539L278.18 194.86L272.609 198.082L270.394 200.76Z" fill="#7694FF"/>
<path opacity="0.4" d="M270.394 200.76L275.973 197.539L278.18 194.86L272.609 198.082L270.394 200.76Z" fill="black"/>
<path d="M285.565 209.517L291.145 206.296L295.799 202.176L290.228 205.388L285.565 209.517Z" fill="#7694FF"/>
<path opacity="0.4" d="M285.565 209.517L291.145 206.296L295.799 202.176L290.228 205.388L285.565 209.517Z" fill="black"/>
<path d="M332.958 220.63C334.277 222.399 335.075 224.501 335.262 226.699C333.949 224.927 333.151 222.827 332.958 220.63ZM345.923 220.799C344.045 208.03 337.184 195.403 329.016 190.678C325.091 188.409 321.461 188.329 318.551 190.029L313.301 193.054L313.007 193.232C312.774 193.361 312.548 193.503 312.331 193.659C311.9 193.956 311.495 194.289 311.121 194.656L310.943 194.825C310.783 194.985 310.614 195.172 310.462 195.35C310.311 195.528 310.08 195.804 309.902 196.044C309.524 196.541 309.182 197.065 308.879 197.61C308.718 197.886 308.567 198.18 308.425 198.5L262.571 172.036L257.001 175.248V178.808L257.473 179.075L257.918 179.333V180.045L257.028 180.57V182.634L263.764 196.872L270.42 200.725L272.635 198.055L278.508 201.57L281.881 207.345L285.6 209.489L290.254 205.361L295.967 208.662L297.889 216.59L307.49 222.143C307.965 224.161 308.559 226.149 309.27 228.096C309.332 228.292 309.412 228.496 309.493 228.719C312.678 237.083 317.741 244.247 323.454 247.548C324.139 247.954 324.856 248.302 325.599 248.589C325.991 248.745 326.392 248.879 326.8 248.989C327.156 249.084 327.512 249.164 327.868 249.23C328.991 249.434 330.143 249.434 331.267 249.23L331.73 249.114C331.951 249.069 332.168 249.007 332.379 248.927L332.877 248.731C333.054 248.668 333.224 248.587 333.385 248.491C333.549 248.42 333.71 248.34 333.865 248.251L334.097 248.108C334.138 248.095 334.178 248.074 334.212 248.046C335.485 247.316 338.617 245.501 339.471 245.021C343.707 242.565 346.448 236.354 346.448 227.571C346.44 225.304 346.265 223.04 345.923 220.799Z" fill="#7694FF"/>
<path d="M331.33 231.406C329.123 230.133 327.344 226.36 327.344 222.979C327.344 219.598 329.123 217.88 331.33 219.144C333.537 220.407 335.308 224.189 335.308 227.579C335.308 230.97 333.528 232.678 331.33 231.406ZM340.344 224.011C338.476 211.251 331.615 198.615 323.437 193.899C319.647 191.71 316.141 191.55 313.293 193.054L313 193.232C312.766 193.36 312.54 193.503 312.323 193.659C311.892 193.956 311.487 194.289 311.113 194.655L310.935 194.824C310.775 194.985 310.606 195.172 310.455 195.349C310.303 195.527 310.072 195.803 309.894 196.044C309.516 196.541 309.174 197.064 308.871 197.61C308.711 197.886 308.559 198.179 308.417 198.5C307.587 200.22 306.989 202.042 306.637 203.919L256.993 175.248V178.807L257.465 179.074L257.91 179.332V180.044L257.02 180.569V182.634L263.756 196.871L270.412 200.724L272.628 198.055L278.501 201.569L281.873 207.345L285.593 209.489L290.246 205.36L295.959 208.661L297.881 216.59L307.491 222.143C307.966 224.16 308.56 226.148 309.271 228.096C309.333 228.291 309.414 228.496 309.494 228.718C312.679 237.083 317.742 244.246 323.455 247.547C324.14 247.953 324.857 248.302 325.6 248.589C325.992 248.745 326.393 248.878 326.801 248.989C327.157 249.084 327.513 249.164 327.869 249.229C328.993 249.434 330.144 249.434 331.268 249.229L331.731 249.114C331.952 249.069 332.169 249.006 332.38 248.927L332.879 248.731C333.055 248.667 333.225 248.587 333.386 248.491C333.55 248.42 333.711 248.339 333.866 248.25L334.098 248.108C334.14 248.094 334.179 248.073 334.213 248.046C338.271 245.483 340.878 239.361 340.878 230.792C340.863 228.522 340.685 226.256 340.344 224.011Z" fill="#7694FF"/>
<path opacity="0.4" d="M335.307 227.57C335.307 230.961 333.527 232.678 331.329 231.405C329.131 230.133 327.343 226.369 327.343 222.979C327.343 219.588 329.122 217.871 331.329 219.143C331.965 219.53 332.518 220.038 332.958 220.638C333.149 222.836 333.947 224.937 335.262 226.707C335.295 226.994 335.31 227.282 335.307 227.57Z" fill="black"/>
<path opacity="0.4" d="M346.431 227.562C346.431 236.345 343.69 242.556 339.454 245.012C338.564 245.492 335.468 247.308 334.195 248.037C338.253 245.474 340.86 239.352 340.86 230.783C340.851 228.517 340.678 226.253 340.344 224.012C338.475 211.251 331.615 198.616 323.437 193.899C319.646 191.71 316.14 191.55 313.293 193.054L318.543 190.029C321.453 188.329 325.083 188.409 329.008 190.678C337.185 195.403 344.046 208.03 345.914 220.799C346.253 223.038 346.426 225.298 346.431 227.562Z" fill="white"/>
<path d="M340.859 230.765C340.859 239.335 338.252 245.457 334.194 248.019C335.467 247.29 338.599 245.474 339.453 244.994C343.689 242.538 346.43 236.327 346.43 227.544C346.43 227.224 346.43 226.895 346.43 226.565L340.859 229.787C340.85 230.134 340.859 230.454 340.859 230.765Z" fill="#7694FF"/>
<path opacity="0.1" d="M340.859 230.765C340.859 239.335 338.252 245.457 334.194 248.019C335.467 247.29 338.599 245.474 339.453 244.994C343.689 242.538 346.43 236.327 346.43 227.544C346.43 227.224 346.43 226.895 346.43 226.565L340.859 229.787C340.85 230.134 340.859 230.454 340.859 230.765Z" fill="black"/>
<path opacity="0.15" d="M306.85 207.558V209.364L257.001 180.587L257.918 180.053V179.306L306.85 207.558Z" fill="black"/>
<path opacity="0.15" d="M306.85 208.306V209.365L257.001 180.588L257.918 180.054V180.045L306.85 208.306Z" fill="black"/>
<path opacity="0.15" d="M328.526 245.003C326.637 244.954 324.794 244.404 323.187 243.41C315.063 238.721 308.451 224.768 308.451 212.31C308.451 205.04 310.649 199.612 314.484 197.397C317.154 195.848 320.313 196.044 323.632 197.957C331.747 202.647 338.359 216.644 338.359 229.101C338.359 236.363 336.161 241.799 332.326 244.006C331.169 244.667 329.858 245.011 328.526 245.003ZM318.337 197.263C317.151 197.256 315.985 197.563 314.956 198.153C311.459 200.173 309.368 205.467 309.368 212.301C309.368 224.474 315.775 238.107 323.659 242.627C326.675 244.407 329.531 244.567 331.907 243.197C335.404 241.177 337.496 235.891 337.496 229.057C337.496 216.875 331.089 203.252 323.214 198.722C321.742 197.827 320.06 197.336 318.337 197.299V197.263Z" fill="black"/>
<path opacity="0.4" d="M308.381 198.482C307.551 200.202 306.953 202.025 306.601 203.901L256.957 175.231L262.527 172.019L308.381 198.482Z" fill="white"/>
<path d="M372.903 201.267C375.501 196.346 378.473 185.294 379.95 179.715C382.05 171.795 378.651 166.812 374.789 166.607C372.378 166.981 364.431 195.874 364.431 195.874C363.542 196.577 351.467 202.708 347.587 204.248C346.893 204.51 346.127 204.51 345.433 204.248C343.574 203.571 342.301 203.696 340.477 203.518C339.044 203.376 338.324 202.868 338.137 203.171C337.967 203.546 337.945 203.972 338.075 204.363C338.206 204.754 338.479 205.081 338.84 205.28C339.625 205.737 340.461 206.102 341.331 206.365C339.772 206.838 338.146 207.058 336.517 207.015C332.78 206.935 331.436 208.554 334.337 212.354C336.117 214.721 339.062 215.468 345.638 213.199C347.525 212.541 350.087 211.268 352.481 210.405C357.411 208.626 358.71 208.412 362.465 207.14C367.937 205.289 371.746 203.456 372.903 201.267Z" fill="#FFA8A7"/>
<path d="M373.339 165.861C375.608 166.173 377.788 166.68 379.132 168.531C380.476 170.382 381.552 172.98 380.235 180.054C379.227 185.029 377.877 189.929 376.195 194.719C376.195 194.719 370.91 196.979 365.295 191.248L369.157 176.317C369.157 176.317 369.78 166.609 373.339 165.861Z" fill="#455A64"/>
</svg>
