<svg id="e65yerRot9T1" xmlns="http://www.w3.org/2000/svg" xmlns:xlink="http://www.w3.org/1999/xlink" viewBox="0 0 500 500" shape-rendering="geometricPrecision" text-rendering="geometricPrecision" style="background-color:transparent"><g id="e65yerRot9T2"><path id="e65yerRot9T3" d="M315.5,166.69C350.5,168.51,393.15,173.27,397.76,223C401.5,263.33,361.76,292.92,330.84,302.13C295.25,312.73,266.6,286.3,230.95,282.74C194.64,279.12,175.82,326.63,140.85,320.74C106.85,315.03,87.01,262.74,86.16,230.74C85.16,191.51,108.16,159.6,132.16,135.8C157.67,110.45,191.1,91.28,229.27,109.15C264.62,125.67,274.05,164.53,315.5,166.69Z" fill="rgb(118,148,255)" stroke="none" stroke-width="1"/><path id="e65yerRot9T4" d="M315.5,166.69C350.5,168.51,393.15,173.27,397.76,223C401.5,263.33,361.76,292.92,330.84,302.13C295.25,312.73,266.6,286.3,230.95,282.74C194.64,279.12,175.82,326.63,140.85,320.74C106.85,315.03,87.01,262.74,86.16,230.74C85.16,191.51,108.16,159.6,132.16,135.8C157.67,110.45,191.1,91.28,229.27,109.15C264.62,125.67,274.05,164.53,315.5,166.69Z" opacity="0.9" fill="rgb(255,255,255)" stroke="none" stroke-width="1"/></g><g id="e65yerRot9T5"><ellipse id="e65yerRot9T6" rx="193.89" ry="11.32" transform="matrix(1 0 0 1 250 416.24)" fill="rgb(245,245,245)" stroke="none" stroke-width="1"/></g><g id="e65yerRot9T7"><polygon id="e65yerRot9T8" points="201.78,407.02 193.74,404.38 197.71,385.06 205.75,387.7 201.78,407.02" fill="rgb(255,181,115)" stroke="none" stroke-width="1"/><polygon id="e65yerRot9T9" points="271.71,407.12 263.24,407.12 261.14,387.53 269.6,387.53 271.71,407.12" fill="rgb(255,181,115)" stroke="none" stroke-width="1"/><path id="e65yerRot9T10" d="M262.55,406.14L272.86,406.14C273.208543,406.140223,273.510997,406.380529,273.59,406.72L275.26,414.24C275.339121,414.61189,275.244679,414.999574,275.003384,415.293408C274.76209,415.587243,274.400176,415.755282,274.02,415.75C270.7,415.69,268.28,415.5,264.1,415.5C261.52,415.5,253.77,415.76,250.22,415.76C246.67,415.76,246.22,412.25,247.65,411.93C254.17,410.51,259.09,408.54,261.17,406.66C261.552482,406.326325,262.042428,406.141707,262.55,406.14Z" fill="rgb(38,50,56)" stroke="none" stroke-width="1"/><path id="e65yerRot9T11" d="M193.88,403.11L202.79,405.56C203.120944,405.65623,203.343707,405.965622,203.33,406.31L202.94,414.01C202.924116,414.387113,202.735966,414.736054,202.429617,414.956547C202.123268,415.17704,201.732644,415.244669,201.37,415.14C198.17,414.2,193.58,412.73,189.54,411.61C184.82,410.31,183.94,409.86,178.4,408.34C175.05,407.41,175.05,403.77,176.54,403.85C183.31,404.21,185.29,405.08,191.74,403.2C192.430954,402.970867,193.172247,402.939691,193.88,403.11Z" fill="rgb(38,50,56)" stroke="none" stroke-width="1"/><path id="e65yerRot9T12" d="M235.56,150C235.02,150.7,234.61,151.22,234.13,151.81C233.65,152.4,233.19,152.92,232.71,153.47C231.71,154.56,230.71,155.62,229.71,156.66C227.692256,158.779831,225.555465,160.783072,223.31,162.66C218.668829,166.675406,213.353488,169.837525,207.61,172C206.02636,172.558331,204.396775,172.976603,202.74,173.25C202.32,173.31,201.89,173.39,201.46,173.44L200.15,173.56C199.597171,173.593407,199.042829,173.593407,198.49,173.56C197.94389,173.528583,197.399807,173.4685,196.86,173.38C195.099864,173.061697,193.386528,172.52418,191.76,171.78C190.347026,171.16293,188.977255,170.451317,187.66,169.65C185.175168,168.152914,182.799249,166.482085,180.55,164.65C178.327026,162.886789,176.21937,160.982885,174.24,158.95L178.07,153.89C182.77,156.22,187.58,158.68,192.18,160.45C193.33,160.88,194.46,161.27,195.52,161.57C196.414398,161.836825,197.337753,161.994635,198.27,162.04C198.399916,162.046606,198.530084,162.046606,198.66,162.04C198.73,162.04,198.72,162.04,199.03,161.96L199.73,161.84L200.45,161.67C200.92,161.57,201.45,161.37,201.9,161.24C202.35,161.11,202.9,160.89,203.38,160.66C205.471018,159.767194,207.459263,158.650693,209.31,157.33C211.316638,155.957309,213.230773,154.454061,215.04,152.83C216.91,151.21,218.7,149.44,220.46,147.64C221.34,146.74,222.2,145.81,223.03,144.87L224.27,143.46L225.41,142.12Z" fill="rgb(255,181,115)" stroke="none" stroke-width="1"/><path id="e65yerRot9T13" d="M240.21,145.84C240.83,153.9,222.67,170.36,222.67,170.36L206.61,156.44C206.61,156.44,213.37,149.28,220.97,142.07C226.19,137.12,239.53,137.11,240.21,145.84Z" fill="rgb(255,255,255)" stroke="none" stroke-width="1"/><path id="e65yerRot9T14" d="M240.21,145.84C240.83,153.9,222.67,170.36,222.67,170.36L206.61,156.44C206.61,156.44,213.37,149.28,220.97,142.07C226.19,137.12,239.53,137.11,240.21,145.84Z" opacity="0.4" fill="rgb(118,148,255)" stroke="none" stroke-width="1"/><path id="e65yerRot9T15" d="M232,150C224.54,150.68,219.77,156.68,217.68,163.31C217.45,164.05,217.25,164.81,217.09,165.56L222.65,170.38C222.65,170.38,230.92,162.89,236.1,155.54C236.38,152.05,235.39,149.68,232,150Z" opacity="0.2" fill="rgb(0,0,0)" stroke="none" stroke-width="1"/><path id="e65yerRot9T16" d="M180,157.54L177.25,150.54L167.87,153.42C169.910968,155.587495,172.161999,157.547097,174.59,159.27Z" fill="rgb(255,181,115)" stroke="none" stroke-width="1"/><polygon id="e65yerRot9T17" points="172.55,145.11 164.81,148.21 167.9,153.44 177.28,150.56 172.55,145.11" fill="rgb(255,181,115)" stroke="none" stroke-width="1"/><polygon id="e65yerRot9T18" points="197.71,385.07 195.32,396.67 203.48,398.75 205.75,387.71 197.71,385.07" opacity="0.2" fill="rgb(0,0,0)" stroke="none" stroke-width="1"/><polygon id="e65yerRot9T19" points="269.6,387.53 261.14,387.53 262.23,397.63 270.69,397.63 269.6,387.53" opacity="0.2" fill="rgb(0,0,0)" stroke="none" stroke-width="1"/><path id="e65yerRot9T20" d="M274.6,141.93C272.116541,151.063229,270.318213,160.369076,269.22,169.77C268.42,176.32,267.94,182.58,267.64,188.26C266.94,201.56,267.23,211.7,266.83,215.13L221.68,212C215.54,163.86,227.28,139.06,227.28,139.06C230.849503,138.396799,234.456242,137.952635,238.08,137.73Q239.23,137.65,240.42,137.64C246.8374,137.726257,253.244577,138.180336,259.61,139C260.82,139.15,262.04,139.32,263.23,139.51C269.28,140.46,274.6,141.93,274.6,141.93Z" fill="rgb(255,255,255)" stroke="none" stroke-width="1"/><path id="e65yerRot9T21" d="M274.6,141.93C272.116541,151.063229,270.318213,160.369076,269.22,169.77C268.42,176.32,267.94,182.58,267.64,188.26C266.94,201.56,267.23,211.7,266.83,215.13L221.68,212C215.54,163.86,227.28,139.06,227.28,139.06C230.849503,138.396799,234.456242,137.952635,238.08,137.73Q239.23,137.65,240.42,137.64C246.8374,137.726257,253.244577,138.180336,259.61,139C260.82,139.15,262.04,139.32,263.23,139.51C269.28,140.46,274.6,141.93,274.6,141.93Z" transform="matrix(1 0 0 1 2.574359 6.755)" opacity="0.4" fill="rgb(118,148,255)" stroke="none" stroke-width="1"/><path id="e65yerRot9T22" d="M263.19,154.11C263.115193,161.034385,265.05753,167.830829,268.78,173.67C268.91,172.39,269.06,171.08,269.22,169.77C269.82,164.84,270.6,159.77,271.63,154.59Z" opacity="0.2" fill="rgb(0,0,0)" stroke="none" stroke-width="1"/><path id="e65yerRot9T23" d="M259.22,117.22C257.57,123.31,255.58,134.54,259.61,138.96C255.481961,142.704338,249.934365,144.476943,244.4,143.82C239.1,143.33,239.09,139.6,240.4,137.62C247.4,136.46,247.58,131.34,246.71,126.46Z" fill="rgb(255,181,115)" stroke="none" stroke-width="1"/><path id="e65yerRot9T24" d="M254.13,121L246.74,126.46C246.958891,127.597324,247.076021,128.751888,247.09,129.91C249.75,129.71,253.56,127.08,254.04,124.34C254.270294,123.241101,254.300781,122.109707,254.13,121Z" opacity="0.2" fill="rgb(0,0,0)" stroke="none" stroke-width="1"/><path id="e65yerRot9T25" d="M245.8,108.11C243.8,110.94,238.55,105.73,238.75,101.11C246.35,100.11,242.75,94.54,249.65,95.97C255.39,97.1,248,105,245.8,108.11Z" fill="rgb(38,50,56)" stroke="none" stroke-width="1"/><path id="e65yerRot9T26" d="M264.74,109.94C262.2,117.94,261.12,122.76,255.96,125.94C248.2,130.66,239.11,124.41,239.21,115.81C239.3,108.07,243.45,96.28,252.21,95.05C256.130562,94.480058,260.067175,95.977322,262.618029,99.008623C265.168882,102.039925,265.971472,106.174483,264.74,109.94Z" fill="rgb(255,181,115)" stroke="none" stroke-width="1"/><path id="e65yerRot9T27" d="M259.94,117.22C259.550459,115.24521,259.43938,113.225599,259.61,111.22C259.897193,109.651556,260.391519,108.128225,261.08,106.69C261.768481,105.251775,256.29,103.86,256.18,100.45C256.18,100.45,247.62,102.97,243.05,99.12C238.48,95.27,242.56,90.82,240.22,89.12C245.82,88.58,247.52,91.98,251.06,91.24C254.6,90.5,251.47,88.01,251.94,85.24C262.61,94.43,267.25,90.12,272.43,95.38C275.74,98.74,272.26,105.04,272.26,105.04C272.26,105.04,277.54,114,259.94,117.22Z" fill="rgb(38,50,56)" stroke="none" stroke-width="1"/><path id="e65yerRot9T28" d="M270.56,104.85C270.56,104.85,275.8,105.93,275.94,100.44C278.64,106,275.26,106.87,270.56,104.85Z" fill="rgb(38,50,56)" stroke="none" stroke-width="1"/><path id="e65yerRot9T29" d="M246.92,117.57L246.92,117.57C248.851754,118.104572,250.922821,117.664237,252.47,116.39C252.555167,116.304215,252.555167,116.165785,252.47,116.08C252.385505,116.001246,252.254495,116.001246,252.17,116.08C250.723373,117.239795,248.810695,117.6409,247.02,117.16C246.902766,117.138945,246.787828,117.207057,246.75,117.32C246.736247,117.434103,246.808831,117.540845,246.92,117.57Z" fill="rgb(38,50,56)" stroke="none" stroke-width="1"/><path id="e65yerRot9T30" d="M266.16,118.78C264.634431,120.239287,262.590517,121.030944,260.48,120.98C257.68,120.9,257.11,118.2,258.58,115.98C259.91,113.98,262.96,111.65,265.44,112.81C267.92,113.97,268,117,266.16,118.78Z" fill="rgb(255,181,115)" stroke="none" stroke-width="1"/><path id="e65yerRot9T31" d="M193.08,392.5L206.89,396.3C206.89,396.3,224.19,341.77,228.44,311.82C229.57,303.87,231.31,292.71,233.96,280.82C237.32,265.82,241.52,249.61,244.96,236.91C248.6,223.53,251.36,214.07,251.36,214.07L221.68,212C221.68,212,209.53,278.49,206.68,304.16C203.74,330.84,193.08,392.5,193.08,392.5Z" fill="rgb(118,148,255)" stroke="none" stroke-width="1"/><path id="e65yerRot9T32" d="M193.08,392.5L206.89,396.3C206.89,396.3,224.19,341.77,228.44,311.82C229.57,303.87,231.31,292.71,233.96,280.82C237.32,265.82,241.52,249.61,244.96,236.91C248.6,223.53,251.36,214.07,251.36,214.07L221.68,212C221.68,212,209.53,278.49,206.68,304.16C203.74,330.84,193.08,392.5,193.08,392.5Z" opacity="0.3" fill="rgb(0,0,0)" stroke="none" stroke-width="1"/><path id="e65yerRot9T33" d="M234,280.81C237.36,265.81,241.56,249.6,245,236.9L241.92,230.26C234.52,239,232.54,266.09,234,280.81Z" opacity="0.2" fill="rgb(0,0,0)" stroke="none" stroke-width="1"/><path id="e65yerRot9T34" d="M237.69,213.11C237.69,213.11,240.9,285.55,244.47,310.11C248.38,336.98,258.32,395.7,258.32,395.7L273.81,395.7C273.81,395.7,268.69,333.91,266.42,307.53C263.84,277.53,266.83,215.16,266.83,215.16Z" fill="rgb(118,148,255)" stroke="none" stroke-width="1"/><path id="e65yerRot9T35" d="M237.69,213.11C237.69,213.11,240.9,285.55,244.47,310.11C248.38,336.98,258.32,395.7,258.32,395.7L273.81,395.7C273.81,395.7,268.69,333.91,266.42,307.53C263.84,277.53,266.83,215.16,266.83,215.16Z" opacity="0.3" fill="rgb(0,0,0)" stroke="none" stroke-width="1"/><polygon id="e65yerRot9T36" points="256.46,396.01 274.71,396.01 274.71,390.56 254.31,390.21 256.46,396.01" fill="rgb(118,148,255)" stroke="none" stroke-width="1"/><polygon id="e65yerRot9T37" points="192.12,392.58 207.72,396.88 209.96,391.51 192.19,386.58 192.12,392.58" fill="rgb(118,148,255)" stroke="none" stroke-width="1"/><path id="e65yerRot9T38" d="M251.84,109.11C251.68,109.77,251.19,110.22,250.76,110.11C250.33,110,250.11,109.38,250.28,108.72C250.45,108.06,250.93,107.61,251.36,107.72C251.79,107.83,252,108.45,251.84,109.11Z" fill="rgb(38,50,56)" stroke="none" stroke-width="1"/><path id="e65yerRot9T39" d="M244.36,107.23C244.19,107.89,243.71,108.34,243.28,108.23C242.85,108.12,242.63,107.5,242.79,106.83C242.95,106.16,243.45,105.72,243.88,105.83C244.31,105.94,244.53,106.57,244.36,107.23Z" fill="rgb(38,50,56)" stroke="none" stroke-width="1"/><path id="e65yerRot9T40" d="M246.66,108.16C245.36041,109.98307,243.815894,111.618439,242.07,113.02C242.97,114.41,245.21,114.27,245.21,114.27Z" fill="rgb(237,137,62)" stroke="none" stroke-width="1"/><path id="e65yerRot9T41" d="M254.77,107.28C254.61835,107.268095,254.486577,107.171204,254.43,107.03C254.056459,106.082809,253.254454,105.369915,252.27,105.11C252.050326,105.069398,251.903587,104.860407,251.94,104.64C251.959382,104.534972,252.01996,104.442056,252.108242,104.381949C252.196524,104.321842,252.305177,104.299536,252.41,104.32C253.6633,104.627909,254.691042,105.521598,255.17,106.72C255.254372,106.92439,255.161466,107.158866,254.96,107.25C254.898576,107.269667,254.834496,107.279785,254.77,107.28Z" fill="rgb(38,50,56)" stroke="none" stroke-width="1"/><path id="e65yerRot9T42" d="M241.8,103.85C241.7151,103.840262,241.635027,103.805448,241.57,103.75C241.417543,103.594463,241.417543,103.345537,241.57,103.19C242.379898,102.180674,243.628053,101.625524,244.92,101.7C245.138925,101.731078,245.293768,101.930161,245.27,102.15C245.234269,102.366192,245.038335,102.518585,244.82,102.5L244.82,102.5C243.801033,102.452051,242.82159,102.898946,242.19,103.7C242.092502,103.810984,241.946741,103.867046,241.8,103.85Z" fill="rgb(38,50,56)" stroke="none" stroke-width="1"/><path id="e65yerRot9T43" d="M259.75,407.62C259.173846,407.663224,258.599858,407.511803,258.12,407.19C257.814067,406.927889,257.660072,406.529755,257.71,406.13C257.708264,405.891488,257.839306,405.671799,258.05,405.56C258.99,405.08,261.72,406.76,262.05,406.95C262.120965,406.99429,262.156869,407.078067,262.14,407.16C262.128935,407.23972,262.068842,407.30382,261.99,407.32C261.257069,407.504323,260.505604,407.604966,259.75,407.62ZM258.49,405.87C258.40087,405.869206,258.312478,405.886205,258.23,405.92C258.18,405.92,258.12,406,258.11,406.16C258.073083,406.430146,258.174555,406.700739,258.38,406.88C258.84,407.27,259.95,407.33,261.38,407.04C260.503458,406.462835,259.521191,406.065169,258.49,405.87Z" fill="rgb(118,148,255)" stroke="none" stroke-width="1"/><path id="e65yerRot9T44" d="M261.92,407.32C261.887523,407.330684,261.852477,407.330684,261.82,407.32C260.95,406.84,259.25,404.99,259.43,404.05C259.491387,403.744354,259.758268,403.523343,260.07,403.52C260.37763,403.479313,260.687772,403.57418,260.92,403.78C261.92,404.58,262.11,407.02,262.12,407.13C262.122575,407.201404,262.088668,407.269218,262.03,407.31C261.99469,407.322219,261.956935,407.325651,261.92,407.32ZM260.21,403.89L260.12,403.89C259.86,403.89,259.84,404.04,259.83,404.09C259.72,404.65,260.83,406.09,261.67,406.71C261.608978,405.746582,261.260665,404.823553,260.67,404.06C260.542182,403.949719,260.378816,403.889344,260.21,403.89Z" fill="rgb(118,148,255)" stroke="none" stroke-width="1"/><path id="e65yerRot9T45" d="M192.77,404L192.77,404C191.38,403.89,188.95,403.57,188.28,402.53C188.090592,402.231172,188.053516,401.860418,188.18,401.53C188.248557,401.318688,188.42334,401.159104,188.64,401.11C189.77,400.84,192.64,403.39,192.92,403.69C192.977989,403.747394,192.997485,403.83318,192.97,403.91C192.929124,403.979332,192.849,404.015388,192.77,404ZM188.77,401.46L188.71,401.46C188.623146,401.478956,188.553884,401.54437,188.53,401.63C188.438012,401.852904,188.460401,402.106648,188.59,402.31C188.97,402.9,190.29,403.31,192.18,403.54C191,402.58,189.42,401.4,188.76,401.47Z" fill="rgb(118,148,255)" stroke="none" stroke-width="1"/><path id="e65yerRot9T46" d="M192.62,404L192.62,404C191.86,402.84,190.62,400.71,191.05,399.55C191.168674,399.199083,191.453185,398.929546,191.81,398.83C192.021818,398.757435,192.256073,398.798996,192.43,398.94C193.33,399.68,193.03,403.48,192.99,403.94C192.980048,404.02227,192.920391,404.089882,192.84,404.11C192.749625,404.132152,192.656504,404.085591,192.62,404ZM192.19,399.26C192.116342,399.214952,192.023658,399.214952,191.95,399.26C191.713423,399.323936,191.523004,399.49942,191.44,399.73C191.21,400.39,191.66,401.73,192.65,403.32C192.7,401.7,192.65,399.7,192.19,399.22Z" fill="rgb(118,148,255)" stroke="none" stroke-width="1"/><path id="e65yerRot9T47" d="M275.85,146.8C277.8,149.55,279.46,152.21,281.16,154.98C282.86,157.75,284.41,160.55,285.93,163.42C289.07661,169.27274,291.63577,175.422762,293.57,181.78C293.8,182.62,294.02,183.46,294.22,184.33C294.32,184.76,294.41,185.2,294.5,185.65L294.63,186.31L294.69,186.65L294.77,187.19C295.024503,189.464721,294.817023,191.767411,294.16,193.96C293.169845,197.347782,291.769469,200.601892,289.99,203.65C288.383015,206.504782,286.609971,209.262852,284.68,211.91C282.796462,214.542315,280.77009,217.069437,278.61,219.48L273.41,215.83C276.12,210.4,278.88,204.83,281,199.37C281.53,198.01,282,196.65,282.41,195.32C282.817244,194.079818,283.124886,192.809119,283.33,191.52C283.500821,190.688685,283.500821,189.831315,283.33,189C283.159179,188.168685,283.33,189,283.33,189L283.26,188.77L283.13,188.3C283.05,187.98,282.96,187.66,282.85,187.3C282.66,186.66,282.44,186,282.21,185.35C280.130364,179.874271,277.608714,174.576799,274.67,169.51C273.21,166.88,271.67,164.3,270.09,161.7C268.51,159.1,266.85,156.52,265.28,154.11Z" fill="rgb(255,181,115)" stroke="none" stroke-width="1"/><path id="e65yerRot9T48" d="M274.6,141.93C282.53,143.53,289.48,162.93,289.48,162.93L272.93,176.41C272.93,176.41,267.51,166.55,263.17,157.04C258.44,146.68,265,140,274.6,141.93Z" fill="rgb(255,255,255)" stroke="none" stroke-width="1"/><path id="e65yerRot9T49" d="M274.6,141.93C282.53,143.53,289.48,162.93,289.48,162.93L272.93,176.41C272.93,176.41,267.51,166.55,263.17,157.04C258.44,146.68,265,140,274.6,141.93Z" opacity="0.4" fill="rgb(118,148,255)" stroke="none" stroke-width="1"/><rect id="e65yerRot9T50" width="14.96" height="0.99" rx="0" ry="0" transform="matrix(0.267238 -0.96363 0.96363 0.267238 159.902183 183.824093)" fill="rgb(118,148,255)" stroke="none" stroke-width="1"/><rect id="e65yerRot9T51" width="6.47" height="0.99" rx="0" ry="0" transform="matrix(0.267238 -0.96363 0.96363 0.267238 156.70197 195.370784)" fill="rgb(118,148,255)" stroke="none" stroke-width="1"/><rect id="e65yerRot9T52" width="110" height="110" rx="11.87" ry="11.87" transform="matrix(0.96 0.27 -0.27 0.96 175.541476 136.453461)" fill="rgb(118,148,255)" stroke="none" stroke-width="1"/><g id="e65yerRot9T53" transform="matrix(0.725616 0.6881 -0.6881 0.725616 198.603541 -91.587214)"><path id="e65yerRot9T54" d="M221.55,185.21C221.10365,185.213529,220.659108,185.152909,220.23,185.03C217.618912,184.277529,216.08679,181.577442,216.78,178.95L220.78,164.54C221.544813,161.949826,224.24466,160.450778,226.847563,161.171078C229.450467,161.891379,230.995576,164.565132,230.32,167.18L226.32,181.59C225.708243,183.72063,223.766659,185.194117,221.55,185.21Z" fill="rgb(255,255,255)" stroke="none" stroke-width="1"/><path id="e65yerRot9T55" d="M204.32,245.48C204.049383,245.482754,203.779831,245.44569,203.52,245.37C201.952361,244.918523,201.032822,243.297113,201.45,241.72L205.45,227.32C205.592566,226.150218,206.406789,225.172246,207.531366,224.820051C208.655944,224.467855,209.88256,224.806676,210.666917,225.686164C211.451274,226.565653,211.648078,227.822894,211.17,228.9L207.17,243.3C206.807146,244.577321,205.647765,245.464146,204.32,245.48Z" fill="rgb(255,255,255)" stroke="none" stroke-width="1"/><path id="e65yerRot9T56" d="M236.53,193.44C235.854309,193.446695,235.259882,192.994886,235.08548,192.342056C234.911078,191.689226,235.200991,191.001167,235.79,190.67L248.79,183.3C249.498369,182.914733,250.384693,183.162904,250.79,183.86C251.186818,184.567024,250.93627,185.461841,250.23,185.86L237.23,193.23C237.017056,193.355518,236.776871,193.427573,236.53,193.44Z" fill="rgb(255,255,255)" stroke="none" stroke-width="1"/><path id="e65yerRot9T57" d="M180.33,227.25C178.751108,227.259843,177.365823,226.199562,176.962954,224.672901C176.560085,223.14624,177.241834,221.540491,178.62,220.77L191.62,213.4C193.249438,212.673474,195.164266,213.300926,196.047744,214.850886C196.931221,216.400846,196.495411,218.368163,195.04,219.4L182.04,226.77C181.5204,227.073537,180.931659,227.238797,180.33,227.25Z" fill="rgb(255,255,255)" stroke="none" stroke-width="1"/><path id="e65yerRot9T58" d="M253.25,216.78C253.070997,216.78049,252.892738,216.756946,252.72,216.71L238.32,212.71C237.403567,212.315197,236.918356,211.305292,237.182827,210.34312C237.447298,209.380949,238.380526,208.760928,239.37,208.89L253.78,212.89C254.685814,213.198386,255.246296,214.105172,255.117119,215.053284C254.987941,216.001395,254.205299,216.725184,253.25,216.78Z" fill="rgb(255,255,255)" stroke="none" stroke-width="1"/><path id="e65yerRot9T59" d="M191,201.52C190.641923,201.522092,190.285256,201.474985,189.94,201.38L175.54,197.38C173.721896,196.580021,172.766252,194.567071,173.295678,192.652606C173.825104,190.73814,175.679197,189.502195,177.65,189.75L192.05,193.75C193.847575,194.374289,194.956508,196.178525,194.701676,198.064281C194.446844,199.950036,192.8988,201.395221,191,201.52Z" fill="rgb(255,255,255)" stroke="none" stroke-width="1"/><path id="e65yerRot9T60" d="M234.52,241.26C233.631107,241.25875,232.810862,240.781864,232.37,240.01L225,227C224.545765,226.230502,224.542553,225.275672,224.9916,224.503136C225.440647,223.730599,226.271927,223.260829,227.165384,223.274695C228.05884,223.288561,228.875142,223.783901,229.3,224.57L236.66,237.57C236.986846,238.139481,237.072463,238.815994,236.897791,239.448945C236.723119,240.081896,236.302656,240.61875,235.73,240.94C235.361706,241.150926,234.944416,241.261283,234.52,241.26Z" fill="rgb(255,255,255)" stroke="none" stroke-width="1"/><path id="e65yerRot9T61" d="M202.7,187C201.093544,187.002234,199.610592,186.138453,198.82,184.74L191.46,171.74C190.675802,170.355596,190.689744,168.657989,191.496574,167.286652C192.303404,165.915314,193.780546,165.078585,195.371574,165.091651C196.962602,165.104718,198.425802,165.965596,199.21,167.35L206.57,180.35C207.152639,181.375986,207.302949,182.591685,206.987742,183.728681C206.672535,184.865677,205.917737,185.830455,204.89,186.41C204.224832,186.796422,203.469266,186.999976,202.7,187Z" fill="rgb(255,255,255)" stroke="none" stroke-width="1"/></g><path id="e65yerRot9T62" d="M276.41,213.89L267.83,213.58L271.98,223.58C271.98,223.58,279.35,222.22,279.07,218.24Z" fill="rgb(255,181,115)" stroke="none" stroke-width="1"/><polygon id="e65yerRot9T63" points="262.08,217.7 264.15,225.33 271.99,223.56 267.83,213.58 262.08,217.7" fill="rgb(255,181,115)" stroke="none" stroke-width="1"/></g><script><![CDATA[!function(t,n){"object"==typeof exports&&"undefined"!=typeof module?module.exports=n():"function"==typeof define&&define.amd?define(n):((t="undefined"!=typeof globalThis?globalThis:t||self).__SVGATOR_PLAYER__=t.__SVGATOR_PLAYER__||{},t.__SVGATOR_PLAYER__["5c7f360c"]=n())}(this,(function(){"use strict";function t(t,n){var r=Object.keys(t);if(Object.getOwnPropertySymbols){var e=Object.getOwnPropertySymbols(t);n&&(e=e.filter((function(n){return Object.getOwnPropertyDescriptor(t,n).enumerable}))),r.push.apply(r,e)}return r}function n(n){for(var r=1;r<arguments.length;r++){var e=null!=arguments[r]?arguments[r]:{};r%2?t(Object(e),!0).forEach((function(t){u(n,t,e[t])})):Object.getOwnPropertyDescriptors?Object.defineProperties(n,Object.getOwnPropertyDescriptors(e)):t(Object(e)).forEach((function(t){Object.defineProperty(n,t,Object.getOwnPropertyDescriptor(e,t))}))}return n}function r(t){return(r="function"==typeof Symbol&&"symbol"==typeof Symbol.iterator?function(t){return typeof t}:function(t){return t&&"function"==typeof Symbol&&t.constructor===Symbol&&t!==Symbol.prototype?"symbol":typeof t})(t)}function e(t,n){if(!(t instanceof n))throw new TypeError("Cannot call a class as a function")}function i(t,n){for(var r=0;r<n.length;r++){var e=n[r];e.enumerable=e.enumerable||!1,e.configurable=!0,"value"in e&&(e.writable=!0),Object.defineProperty(t,e.key,e)}}function o(t,n,r){return n&&i(t.prototype,n),r&&i(t,r),t}function u(t,n,r){return n in t?Object.defineProperty(t,n,{value:r,enumerable:!0,configurable:!0,writable:!0}):t[n]=r,t}function a(t){return(a=Object.setPrototypeOf?Object.getPrototypeOf:function(t){return t.__proto__||Object.getPrototypeOf(t)})(t)}function l(t,n){return(l=Object.setPrototypeOf||function(t,n){return t.__proto__=n,t})(t,n)}function f(){if("undefined"==typeof Reflect||!Reflect.construct)return!1;if(Reflect.construct.sham)return!1;if("function"==typeof Proxy)return!0;try{return Boolean.prototype.valueOf.call(Reflect.construct(Boolean,[],(function(){}))),!0}catch(t){return!1}}function s(t,n,r){return(s=f()?Reflect.construct:function(t,n,r){var e=[null];e.push.apply(e,n);var i=new(Function.bind.apply(t,e));return r&&l(i,r.prototype),i}).apply(null,arguments)}function c(t,n){if(n&&("object"==typeof n||"function"==typeof n))return n;if(void 0!==n)throw new TypeError("Derived constructors may only return object or undefined");return function(t){if(void 0===t)throw new ReferenceError("this hasn't been initialised - super() hasn't been called");return t}(t)}function h(t,n,r){return(h="undefined"!=typeof Reflect&&Reflect.get?Reflect.get:function(t,n,r){var e=function(t,n){for(;!Object.prototype.hasOwnProperty.call(t,n)&&null!==(t=a(t)););return t}(t,n);if(e){var i=Object.getOwnPropertyDescriptor(e,n);return i.get?i.get.call(r):i.value}})(t,n,r||t)}function v(t){return function(t){if(Array.isArray(t))return y(t)}(t)||function(t){if("undefined"!=typeof Symbol&&null!=t[Symbol.iterator]||null!=t["@@iterator"])return Array.from(t)}(t)||function(t,n){if(!t)return;if("string"==typeof t)return y(t,n);var r=Object.prototype.toString.call(t).slice(8,-1);"Object"===r&&t.constructor&&(r=t.constructor.name);if("Map"===r||"Set"===r)return Array.from(t);if("Arguments"===r||/^(?:Ui|I)nt(?:8|16|32)(?:Clamped)?Array$/.test(r))return y(t,n)}(t)||function(){throw new TypeError("Invalid attempt to spread non-iterable instance.\nIn order to be iterable, non-array objects must have a [Symbol.iterator]() method.")}()}function y(t,n){(null==n||n>t.length)&&(n=t.length);for(var r=0,e=new Array(n);r<n;r++)e[r]=t[r];return e}var g=d(Math.pow(10,-6));function d(t){var n=arguments.length>1&&void 0!==arguments[1]?arguments[1]:6;if(Number.isInteger(t))return t;var r=Math.pow(10,n);return Math.round((+t+Number.EPSILON)*r)/r}function p(t,n){var r=arguments.length>2&&void 0!==arguments[2]?arguments[2]:g;return Math.abs(t-n)<r}var m=Math.PI/180;function b(t){return t}function w(t,n,r){var e=1-r;return 3*r*e*(t*e+n*r)+r*r*r}function x(){var t=arguments.length>0&&void 0!==arguments[0]?arguments[0]:0,n=arguments.length>1&&void 0!==arguments[1]?arguments[1]:0,r=arguments.length>2&&void 0!==arguments[2]?arguments[2]:1,e=arguments.length>3&&void 0!==arguments[3]?arguments[3]:1;return t<0||t>1||r<0||r>1?null:p(t,n)&&p(r,e)?b:function(i){if(i<=0)return t>0?i*n/t:0===n&&r>0?i*e/r:0;if(i>=1)return r<1?1+(i-1)*(e-1)/(r-1):1===r&&t<1?1+(i-1)*(n-1)/(t-1):1;for(var o,u=0,a=1;u<a;){var l=w(t,r,o=(u+a)/2);if(p(i,l))break;l<i?u=o:a=o}return w(n,e,o)}}function A(){return 1}function k(t){return 1===t?1:0}function S(){var t=arguments.length>0&&void 0!==arguments[0]?arguments[0]:1,n=arguments.length>1&&void 0!==arguments[1]?arguments[1]:0;if(1===t){if(0===n)return k;if(1===n)return A}var r=1/t;return function(t){return t>=1?1:(t+=n*r)-t%r}}var _=Math.sin,O=Math.cos,j=Math.acos,M=Math.asin,P=Math.tan,E=Math.atan2,I=Math.PI/180,R=180/Math.PI,F=Math.sqrt,N=function(){function t(){var n=arguments.length>0&&void 0!==arguments[0]?arguments[0]:1,r=arguments.length>1&&void 0!==arguments[1]?arguments[1]:0,i=arguments.length>2&&void 0!==arguments[2]?arguments[2]:0,o=arguments.length>3&&void 0!==arguments[3]?arguments[3]:1,u=arguments.length>4&&void 0!==arguments[4]?arguments[4]:0,a=arguments.length>5&&void 0!==arguments[5]?arguments[5]:0;e(this,t),this.m=[n,r,i,o,u,a],this.i=null,this.w=null,this.s=null}return o(t,[{key:"determinant",get:function(){var t=this.m;return t[0]*t[3]-t[1]*t[2]}},{key:"isIdentity",get:function(){if(null===this.i){var t=this.m;this.i=1===t[0]&&0===t[1]&&0===t[2]&&1===t[3]&&0===t[4]&&0===t[5]}return this.i}},{key:"point",value:function(t,n){var r=this.m;return{x:r[0]*t+r[2]*n+r[4],y:r[1]*t+r[3]*n+r[5]}}},{key:"translateSelf",value:function(){var t=arguments.length>0&&void 0!==arguments[0]?arguments[0]:0,n=arguments.length>1&&void 0!==arguments[1]?arguments[1]:0;if(!t&&!n)return this;var r=this.m;return r[4]+=r[0]*t+r[2]*n,r[5]+=r[1]*t+r[3]*n,this.w=this.s=this.i=null,this}},{key:"rotateSelf",value:function(){var t=arguments.length>0&&void 0!==arguments[0]?arguments[0]:0;if(t%=360){var n=_(t*=I),r=O(t),e=this.m,i=e[0],o=e[1];e[0]=i*r+e[2]*n,e[1]=o*r+e[3]*n,e[2]=e[2]*r-i*n,e[3]=e[3]*r-o*n,this.w=this.s=this.i=null}return this}},{key:"scaleSelf",value:function(){var t=arguments.length>0&&void 0!==arguments[0]?arguments[0]:1,n=arguments.length>1&&void 0!==arguments[1]?arguments[1]:1;if(1!==t||1!==n){var r=this.m;r[0]*=t,r[1]*=t,r[2]*=n,r[3]*=n,this.w=this.s=this.i=null}return this}},{key:"skewSelf",value:function(t,n){if(n%=360,(t%=360)||n){var r=this.m,e=r[0],i=r[1],o=r[2],u=r[3];t&&(t=P(t*I),r[2]+=e*t,r[3]+=i*t),n&&(n=P(n*I),r[0]+=o*n,r[1]+=u*n),this.w=this.s=this.i=null}return this}},{key:"resetSelf",value:function(){var t=arguments.length>0&&void 0!==arguments[0]?arguments[0]:1,n=arguments.length>1&&void 0!==arguments[1]?arguments[1]:0,r=arguments.length>2&&void 0!==arguments[2]?arguments[2]:0,e=arguments.length>3&&void 0!==arguments[3]?arguments[3]:1,i=arguments.length>4&&void 0!==arguments[4]?arguments[4]:0,o=arguments.length>5&&void 0!==arguments[5]?arguments[5]:0,u=this.m;return u[0]=t,u[1]=n,u[2]=r,u[3]=e,u[4]=i,u[5]=o,this.w=this.s=this.i=null,this}},{key:"recomposeSelf",value:function(){var t=arguments.length>0&&void 0!==arguments[0]?arguments[0]:null,n=arguments.length>1&&void 0!==arguments[1]?arguments[1]:null,r=arguments.length>2&&void 0!==arguments[2]?arguments[2]:null,e=arguments.length>3&&void 0!==arguments[3]?arguments[3]:null,i=arguments.length>4&&void 0!==arguments[4]?arguments[4]:null;return this.isIdentity||this.resetSelf(),t&&(t.x||t.y)&&this.translateSelf(t.x,t.y),n&&this.rotateSelf(n),r&&(r.x&&this.skewSelf(r.x,0),r.y&&this.skewSelf(0,r.y)),!e||1===e.x&&1===e.y||this.scaleSelf(e.x,e.y),i&&(i.x||i.y)&&this.translateSelf(i.x,i.y),this}},{key:"decompose",value:function(){var t=arguments.length>0&&void 0!==arguments[0]?arguments[0]:0,n=arguments.length>1&&void 0!==arguments[1]?arguments[1]:0,r=this.m,e=r[0]*r[0]+r[1]*r[1],i=[[r[0],r[1]],[r[2],r[3]]],o=F(e);if(0===o)return{origin:{x:d(r[4]),y:d(r[5])},translate:{x:d(t),y:d(n)},scale:{x:0,y:0},skew:{x:0,y:0},rotate:0};i[0][0]/=o,i[0][1]/=o;var u=r[0]*r[3]-r[1]*r[2]<0;u&&(o=-o);var a=i[0][0]*i[1][0]+i[0][1]*i[1][1];i[1][0]-=i[0][0]*a,i[1][1]-=i[0][1]*a;var l=F(i[1][0]*i[1][0]+i[1][1]*i[1][1]);if(0===l)return{origin:{x:d(r[4]),y:d(r[5])},translate:{x:d(t),y:d(n)},scale:{x:d(o),y:0},skew:{x:0,y:0},rotate:0};i[1][0]/=l,i[1][1]/=l,a/=l;var f=0;return i[1][1]<0?(f=j(i[1][1])*R,i[0][1]<0&&(f=360-f)):f=M(i[0][1])*R,u&&(f=-f),a=E(a,F(i[0][0]*i[0][0]+i[0][1]*i[0][1]))*R,u&&(a=-a),{origin:{x:d(r[4]),y:d(r[5])},translate:{x:d(t),y:d(n)},scale:{x:d(o),y:d(l)},skew:{x:d(a),y:0},rotate:d(f)}}},{key:"clone",value:function(){var t=this.m;return new this.constructor(t[0],t[1],t[2],t[3],t[4],t[5])}},{key:"toString",value:function(){var t=arguments.length>0&&void 0!==arguments[0]?arguments[0]:" ";return null===this.s&&(this.s="matrix("+this.m.map((function(t){return d(t)})).join(t)+")"),this.s}}],[{key:"create",value:function(t){return t?Array.isArray(t)?s(this,v(t)):t instanceof this?t.clone():(new this).recomposeSelf(t.origin,t.rotate,t.skew,t.scale,t.translate):new this}}]),t}();function T(t,n,r){return t>=.5?r:n}function B(t,n,r){return 0===t||n===r?n:t*(r-n)+n}function q(t,n,r){var e=B(t,n,r);return e<=0?0:e}function L(t,n,r){var e=B(t,n,r);return e<=0?0:e>=1?1:e}function C(t,n,r){return 0===t?n:1===t?r:{x:B(t,n.x,r.x),y:B(t,n.y,r.y)}}function D(t,n,r){var e=function(t,n,r){return Math.round(B(t,n,r))}(t,n,r);return e<=0?0:e>=255?255:e}function z(t,n,r){return 0===t?n:1===t?r:{r:D(t,n.r,r.r),g:D(t,n.g,r.g),b:D(t,n.b,r.b),a:B(t,null==n.a?1:n.a,null==r.a?1:r.a)}}function V(t,n){for(var r=[],e=0;e<t;e++)r.push(n);return r}function G(t,n){if(--n<=0)return t;var r=(t=Object.assign([],t)).length;do{for(var e=0;e<r;e++)t.push(t[e])}while(--n>0);return t}var Y,$=function(){function t(n){e(this,t),this.list=n,this.length=n.length}return o(t,[{key:"setAttribute",value:function(t,n){for(var r=this.list,e=0;e<this.length;e++)r[e].setAttribute(t,n)}},{key:"removeAttribute",value:function(t){for(var n=this.list,r=0;r<this.length;r++)n[r].removeAttribute(t)}},{key:"style",value:function(t,n){for(var r=this.list,e=0;e<this.length;e++)r[e].style[t]=n}}]),t}(),U=/-./g,Q=function(t,n){return n.toUpperCase()};function H(t){return"function"==typeof t?t:T}function J(t){return t?"function"==typeof t?t:Array.isArray(t)?function(t){var n=arguments.length>1&&void 0!==arguments[1]?arguments[1]:b;if(!Array.isArray(t))return n;switch(t.length){case 1:return S(t[0])||n;case 2:return S(t[0],t[1])||n;case 4:return x(t[0],t[1],t[2],t[3])||n}return n}(t,null):function(t,n){var r=arguments.length>2&&void 0!==arguments[2]?arguments[2]:b;switch(t){case"linear":return b;case"steps":return S(n.steps||1,n.jump||0)||r;case"bezier":case"cubic-bezier":return x(n.x1||0,n.y1||0,n.x2||0,n.y2||0)||r}return r}(t.type,t.value,null):null}function Z(t,n,r){var e=arguments.length>3&&void 0!==arguments[3]&&arguments[3],i=n.length-1;if(t<=n[0].t)return e?[0,0,n[0].v]:n[0].v;if(t>=n[i].t)return e?[i,1,n[i].v]:n[i].v;var o,u=n[0],a=null;for(o=1;o<=i;o++){if(!(t>n[o].t)){a=n[o];break}u=n[o]}return null==a?e?[i,1,n[i].v]:n[i].v:u.t===a.t?e?[o,1,a.v]:a.v:(t=(t-u.t)/(a.t-u.t),u.e&&(t=u.e(t)),e?[o,t,r(t,u.v,a.v)]:r(t,u.v,a.v))}function K(t,n){var r=arguments.length>2&&void 0!==arguments[2]?arguments[2]:null;return t&&t.length?"function"!=typeof n?null:("function"!=typeof r&&(r=null),function(e){var i=Z(e,t,n);return null!=i&&r&&(i=r(i)),i}):null}function W(t,n){return t.t-n.t}function X(t,n,e,i,o){var u,a="@"===e[0],l="#"===e[0],f=Y[e],s=T;switch(a?(u=e.substr(1),e=u.replace(U,Q)):l&&(e=e.substr(1)),r(f)){case"function":if(s=f(i,o,Z,J,e,a,n,t),l)return s;break;case"string":s=K(i,H(f));break;case"object":if((s=K(i,H(f.i),f.f))&&"function"==typeof f.u)return f.u(n,s,e,a,t)}return s?function(t,n,r){if(arguments.length>3&&void 0!==arguments[3]&&arguments[3])return t instanceof $?function(e){return t.style(n,r(e))}:function(e){return t.style[n]=r(e)};if(Array.isArray(n)){var e=n.length;return function(i){var o=r(i);if(null==o)for(var u=0;u<e;u++)t[u].removeAttribute(n);else for(var a=0;a<e;a++)t[a].setAttribute(n,o)}}return function(e){var i=r(e);null==i?t.removeAttribute(n):t.setAttribute(n,i)}}(n,e,s,a):null}function tt(t,n,e,i){if(!i||"object"!==r(i))return null;var o=null,u=null;return Array.isArray(i)?u=function(t){if(!t||!t.length)return null;for(var n=0;n<t.length;n++)t[n].e&&(t[n].e=J(t[n].e));return t.sort(W)}(i):(u=i.keys,o=i.data||null),u?X(t,n,e,u,o):null}function nt(t,n,r){if(!r)return null;var e=[];for(var i in r)if(r.hasOwnProperty(i)){var o=tt(t,n,i,r[i]);o&&e.push(o)}return e.length?e:null}function rt(t,n){if(!n.duration||n.duration<0)return null;var r=function(t,n){if(!n)return null;var r=[];if(Array.isArray(n))for(var e=n.length,i=0;i<e;i++){var o=n[i];if(2===o.length){var u=null;if("string"==typeof o[0])u=t.getElementById(o[0]);else if(Array.isArray(o[0])){u=[];for(var a=0;a<o[0].length;a++)if("string"==typeof o[0][a]){var l=t.getElementById(o[0][a]);l&&u.push(l)}u=u.length?1===u.length?u[0]:new $(u):null}if(u){var f=nt(t,u,o[1]);f&&(r=r.concat(f))}}}else for(var s in n)if(n.hasOwnProperty(s)){var c=t.getElementById(s);if(c){var h=nt(t,c,n[s]);h&&(r=r.concat(h))}}return r.length?r:null}(t,n.elements);return r?function(t,n){var r=arguments.length>2&&void 0!==arguments[2]?arguments[2]:1/0,e=arguments.length>3&&void 0!==arguments[3]?arguments[3]:1,i=arguments.length>4&&void 0!==arguments[4]&&arguments[4],o=arguments.length>5&&void 0!==arguments[5]?arguments[5]:1,u=t.length,a=e>0?n:0;i&&r%2==0&&(a=n-a);var l=null;return function(f,s){var c=f%n,h=1+(f-c)/n;s*=e,i&&h%2==0&&(s=-s);var v=!1;if(h>r)c=a,v=!0,-1===o&&(c=e>0?0:n);else if(s<0&&(c=n-c),c===l)return!1;l=c;for(var y=0;y<u;y++)t[y](c);return v}}(r,n.duration,n.iterations||1/0,n.direction||1,!!n.alternate,n.fill||1):null}function et(t){return+("0x"+(t.replace(/[^0-9a-fA-F]+/g,"")||27))}function it(t,n,r){return!t||!r||n>t.length?t:t.substring(0,n)+it(t.substring(n+1),r,r)}function ot(t){var n=arguments.length>1&&void 0!==arguments[1]?arguments[1]:27;return!t||t%n?t%n:ot(t/n,n)}function ut(t,n,r){if(t&&t.length){var e=et(r),i=et(n),o=ot(e)+5,u=it(t,ot(e,5),o);return u=u.replace(/\x7c$/g,"==").replace(/\x2f$/g,"="),u=function(t,n,r){var e=+("0x"+t.substring(0,4));t=t.substring(4);for(var i=n%e+r%27,o=[],u=0;u<t.length;u+=2)if("|"!==t[u]){var a=+("0x"+t[u]+t[u+1])-i;o.push(a)}else{var l=+("0x"+t.substring(u+1,u+1+4))-i;u+=3,o.push(l)}return String.fromCharCode.apply(String,o)}(u=(u=atob(u)).replace(/[\x41-\x5A]/g,""),i,e),u=JSON.parse(u)}}Number.isInteger||(Number.isInteger=function(t){return"number"==typeof t&&isFinite(t)&&Math.floor(t)===t}),Number.EPSILON||(Number.EPSILON=2220446049250313e-31);var at=function(){function t(n,r){var i=arguments.length>2&&void 0!==arguments[2]?arguments[2]:{};e(this,t),this._id=0,this._running=!1,this._rollingBack=!1,this._animations=n,this.duration=r.duration,this.alternate=r.alternate,this.fill=r.fill,this.iterations=r.iterations,this.direction=i.direction||1,this.speed=i.speed||1,this.fps=i.fps||100,this.offset=i.offset||0,this.rollbackStartOffset=0}return o(t,[{key:"_rollback",value:function(){var t=this,n=1/0,r=null;this.rollbackStartOffset=this.offset,this._rollingBack||(this._rollingBack=!0,this._running=!0);this._id=window.requestAnimationFrame((function e(i){if(t._rollingBack){null==r&&(r=i);var o=i-r,u=t.rollbackStartOffset-o,a=Math.round(u*t.speed);if(a>t.duration&&n!=1/0){var l=!!t.alternate&&a/t.duration%2>1,f=a%t.duration;a=(f+=l?t.duration:0)||t.duration}var s=t.fps?1e3/t.fps:0,c=Math.max(0,a);if(c<n-s){t.offset=c,n=c;for(var h=t._animations,v=h.length,y=0;y<v;y++)h[y](c,t.direction)}var g=!1;if(t.iterations>0&&-1===t.fill){var d=t.iterations*t.duration,p=d==a;a=p?0:a,t.offset=p?0:t.offset,g=a>d}a>0&&t.offset>=a&&!g?t._id=window.requestAnimationFrame(e):t.stop()}}))}},{key:"_start",value:function(){var t=this,n=arguments.length>0&&void 0!==arguments[0]?arguments[0]:0,r=-1/0,e=null,i={},o=function o(u){t._running=!0,null==e&&(e=u);var a=Math.round((u-e+n)*t.speed),l=t.fps?1e3/t.fps:0;if(a>r+l&&!t._rollingBack){t.offset=a,r=a;for(var f=t._animations,s=f.length,c=0,h=0;h<s;h++)i[h]?c++:(i[h]=f[h](a,t.direction),i[h]&&c++);if(c===s)return void t._stop()}t._id=window.requestAnimationFrame(o)};this._id=window.requestAnimationFrame(o)}},{key:"_stop",value:function(){this._id&&window.cancelAnimationFrame(this._id),this._running=!1,this._rollingBack=!1}},{key:"play",value:function(){!this._rollingBack&&this._running||(this._rollingBack=!1,this.rollbackStartOffset>this.duration&&(this.offset=this.rollbackStartOffset-(this.rollbackStartOffset-this.offset)%this.duration,this.rollbackStartOffset=0),this._start(this.offset))}},{key:"stop",value:function(){this._stop(),this.offset=0,this.rollbackStartOffset=0;var t=this.direction,n=this._animations;window.requestAnimationFrame((function(){for(var r=0;r<n.length;r++)n[r](0,t)}))}},{key:"reachedToEnd",value:function(){return this.iterations>0&&this.offset>=this.iterations*this.duration}},{key:"restart",value:function(){this._stop(),this.offset=0,this._start()}},{key:"pause",value:function(){this._stop()}},{key:"reverse",value:function(){this.direction=-this.direction}}],[{key:"build",value:function(r,e){return delete r.animationSettings,r.options=ut(r.options,r.root,"5c7f360c"),r.animations.map((function(t){var e=ut(t.s,r.root,"5c7f360c");for(var i in delete t.s,r.animationSettings||(r.animationSettings=n({},e)),e)e.hasOwnProperty(i)&&(t[i]=e[i])})),(r=function(t,n){if(Y=n,!t||!t.root||!Array.isArray(t.animations))return null;for(var r=document.getElementsByTagName("svg"),e=!1,i=0;i<r.length;i++)if(r[i].id===t.root&&!r[i].svgatorAnimation){(e=r[i]).svgatorAnimation=!0;break}if(!e)return null;var o=t.animations.map((function(t){return rt(e,t)})).filter((function(t){return!!t}));return o.length?{element:e,animations:o,animationSettings:t.animationSettings,options:t.options||void 0}:null}(r,e))?{el:r.element,options:r.options||{},player:new t(r.animations,r.animationSettings,r.options)}:null}},{key:"push",value:function(t){return this.build(t)}},{key:"init",value:function(){var t=this,n=window.__SVGATOR_PLAYER__&&window.__SVGATOR_PLAYER__["5c7f360c"];Array.isArray(n)&&n.splice(0).forEach((function(n){return t.build(n)}))}}]),t}();function lt(t){return d(t)+""}function ft(t){var n=arguments.length>1&&void 0!==arguments[1]?arguments[1]:" ";return t&&t.length?t.map(lt).join(n):""}function st(t){return t?null==t.a||t.a>=1?"rgb("+t.r+","+t.g+","+t.b+")":"rgba("+t.r+","+t.g+","+t.b+","+t.a+")":"transparent"}function ct(t){return t?"url(#"+t+")":"none"}!function(){for(var t=0,n=["ms","moz","webkit","o"],r=0;r<n.length&&!window.requestAnimationFrame;++r)window.requestAnimationFrame=window[n[r]+"RequestAnimationFrame"],window.cancelAnimationFrame=window[n[r]+"CancelAnimationFrame"]||window[n[r]+"CancelRequestAnimationFrame"];window.requestAnimationFrame||(window.requestAnimationFrame=function(n){var r=Date.now(),e=Math.max(0,16-(r-t)),i=window.setTimeout((function(){n(r+e)}),e);return t=r+e,i},window.cancelAnimationFrame=window.clearTimeout)}();var ht={f:null,i:function(t,n,r){return 0===t?n:1===t?r:{x:q(t,n.x,r.x),y:q(t,n.y,r.y)}},u:function(t,n){return function(r){var e=n(r);t.setAttribute("rx",lt(e.x)),t.setAttribute("ry",lt(e.y))}}},vt={f:null,i:function(t,n,r){return 0===t?n:1===t?r:{width:q(t,n.width,r.width),height:q(t,n.height,r.height)}},u:function(t,n){return function(r){var e=n(r);t.setAttribute("width",lt(e.width)),t.setAttribute("height",lt(e.height))}}};Object.freeze({M:2,L:2,Z:0,H:1,V:1,C:6,Q:4,T:2,S:4,A:7});var yt={},gt=null;function dt(t){var n=function(){if(gt)return gt;if("object"!==("undefined"==typeof document?"undefined":r(document))||!document.createElementNS)return{};var t=document.createElementNS("http://www.w3.org/2000/svg","svg");return t&&t.style?(t.style.position="absolute",t.style.opacity="0.01",t.style.zIndex="-9999",t.style.left="-9999px",t.style.width="1px",t.style.height="1px",gt={svg:t}):{}}().svg;if(!n)return function(t){return null};var e=document.createElementNS(n.namespaceURI,"path");e.setAttributeNS(null,"d",t),e.setAttributeNS(null,"fill","none"),e.setAttributeNS(null,"stroke","none"),n.appendChild(e);var i=e.getTotalLength();return function(t){var n=e.getPointAtLength(i*t);return{x:n.x,y:n.y}}}function pt(t){return yt[t]?yt[t]:yt[t]=dt(t)}function mt(t,n,r,e){if(!t||!e)return!1;var i=["M",t.x,t.y];if(n&&r&&(i.push("C"),i.push(n.x),i.push(n.y),i.push(r.x),i.push(r.y)),n?!r:r){var o=n||r;i.push("Q"),i.push(o.x),i.push(o.y)}return n||r||i.push("L"),i.push(e.x),i.push(e.y),i.join(" ")}function bt(t,n,r,e){var i=arguments.length>4&&void 0!==arguments[4]?arguments[4]:1,o=mt(t,n,r,e),u=pt(o);try{return u(i)}catch(t){return null}}function wt(t,n,r,e){var i=1-e;return i*i*t+2*i*e*n+e*e*r}function xt(t,n,r,e){return 2*(1-e)*(n-t)+2*e*(r-n)}function At(t,n,r,e){var i=arguments.length>4&&void 0!==arguments[4]&&arguments[4],o=bt(t,n,null,r,e);return o||(o={x:wt(t.x,n.x,r.x,e),y:wt(t.y,n.y,r.y,e)}),i&&(o.a=kt(t,n,r,e)),o}function kt(t,n,r,e){return Math.atan2(xt(t.y,n.y,r.y,e),xt(t.x,n.x,r.x,e))}function St(t,n,r,e,i){var o=i*i;return i*o*(e-t+3*(n-r))+3*o*(t+r-2*n)+3*i*(n-t)+t}function _t(t,n,r,e,i){var o=1-i;return 3*(o*o*(n-t)+2*o*i*(r-n)+i*i*(e-r))}function Ot(t,n,r,e,i){var o=arguments.length>5&&void 0!==arguments[5]&&arguments[5],u=bt(t,n,r,e,i);return u||(u={x:St(t.x,n.x,r.x,e.x,i),y:St(t.y,n.y,r.y,e.y,i)}),o&&(u.a=jt(t,n,r,e,i)),u}function jt(t,n,r,e,i){return Math.atan2(_t(t.y,n.y,r.y,e.y,i),_t(t.x,n.x,r.x,e.x,i))}function Mt(t,n,r){return t+(n-t)*r}function Pt(t,n,r){var e=arguments.length>3&&void 0!==arguments[3]&&arguments[3],i={x:Mt(t.x,n.x,r),y:Mt(t.y,n.y,r)};return e&&(i.a=Et(t,n)),i}function Et(t,n){return Math.atan2(n.y-t.y,n.x-t.x)}function It(t,n,r){var e=arguments.length>3&&void 0!==arguments[3]&&arguments[3];if(Ft(n)){if(Nt(r))return At(n,r.start,r,t,e)}else if(Ft(r)){if(n.end)return At(n,n.end,r,t,e)}else{if(n.end)return r.start?Ot(n,n.end,r.start,r,t,e):At(n,n.end,r,t,e);if(r.start)return At(n,r.start,r,t,e)}return Pt(n,r,t,e)}function Rt(t,n,r){var e=It(t,n,r,!0);return e.a=function(t){return arguments.length>1&&void 0!==arguments[1]&&arguments[1]?t+Math.PI:t}(e.a)/m,e}function Ft(t){return!t.type||"corner"===t.type}function Nt(t){return null!=t.start&&!Ft(t)}var Tt=new N;var Bt={f:lt,i:B},qt={f:lt,i:L};function Lt(t,n,r){return t.map((function(t){return function(t,n,r){var e=t.v;if(!e||"g"!==e.t||e.s||!e.v||!e.r)return t;var i=r.getElementById(e.r),o=i&&i.querySelectorAll("stop")||[];return e.s=e.v.map((function(t,n){var r=o[n]&&o[n].getAttribute("offset");return{c:t,o:r=d(parseInt(r)/100)}})),delete e.v,t}(t,0,r)}))}var Ct={gt:"gradientTransform",c:{x:"cx",y:"cy"},rd:"r",f:{x:"x1",y:"y1"},to:{x:"x2",y:"y2"}};function Dt(t,n,e,i,o,u,a,l){return Lt(t,0,l),n=function(t,n,r){for(var e,i,o,u=t.length-1,a={},l=0;l<=u;l++)(e=t[l]).e&&(e.e=n(e.e)),e.v&&"g"===(i=e.v).t&&i.r&&(o=r.getElementById(i.r))&&(a[i.r]={e:o,s:o.querySelectorAll("stop")});return a}(t,i,l),function(i){var o=e(i,t,zt);if(!o)return"none";if("c"===o.t)return st(o.v);if("g"===o.t){if(!n[o.r])return ct(o.r);var u=n[o.r];return function(t,n){for(var r=t.s,e=r.length;e<n.length;e++){var i=r[r.length-1].cloneNode();i.id=Yt(i.id),t.e.appendChild(i),r=t.s=t.e.querySelectorAll("stop")}for(var o=0,u=r.length,a=n.length-1;o<u;o++)r[o].setAttribute("stop-color",st(n[Math.min(o,a)].c)),r[o].setAttribute("offset",n[Math.min(o,a)].o)}(u,o.s),Object.keys(Ct).forEach((function(t){if(void 0!==o[t])if("object"!==r(Ct[t])){var n,e="gt"===t?(n=o[t],Array.isArray(n)?"matrix("+n.join(" ")+")":""):o[t],i=Ct[t];u.e.setAttribute(i,e)}else Object.keys(Ct[t]).forEach((function(n){if(void 0!==o[t][n]){var r=o[t][n],e=Ct[t][n];u.e.setAttribute(e,r)}}))})),ct(o.r)}return"none"}}function zt(t,r,e){if(0===t)return r;if(1===t)return e;if(r&&e){var i=r.t;if(i===e.t)switch(r.t){case"c":return{t:i,v:z(t,r.v,e.v)};case"g":if(r.r===e.r){var o={t:i,s:Vt(t,r.s,e.s),r:r.r};return r.gt&&e.gt&&(o.gt=function(t,n,r){var e=n.length;if(e!==r.length)return T(t,n,r);for(var i=new Array(e),o=0;o<e;o++)i[o]=B(t,n[o],r[o]);return i}(t,r.gt,e.gt)),r.c?(o.c=C(t,r.c,e.c),o.rd=q(t,r.rd,e.rd)):r.f&&(o.f=C(t,r.f,e.f),o.to=C(t,r.to,e.to)),o}}if("c"===r.t&&"g"===e.t||"c"===e.t&&"g"===r.t){var u="c"===r.t?r:e,a="g"===r.t?n({},r):n({},e),l=a.s.map((function(t){return{c:u.v,o:t.o}}));return a.s="c"===r.t?Vt(t,l,a.s):Vt(t,a.s,l),a}}return T(t,r,e)}function Vt(t,n,r){if(n.length===r.length)return n.map((function(n,e){return Gt(t,n,r[e])}));for(var e=Math.max(n.length,r.length),i=[],o=0;o<e;o++){var u=Gt(t,n[Math.min(o,n.length-1)],r[Math.min(o,r.length-1)]);i.push(u)}return i}function Gt(t,n,r){return{o:L(t,n.o,r.o||0),c:z(t,n.c,r.c||{})}}function Yt(t){return t.replace(/-fill-([0-9]+)$/,(function(t,n){return"-fill-"+(+n+1)}))}var $t={fill:Dt,"fill-opacity":qt,stroke:Dt,"stroke-opacity":qt,"stroke-width":Bt,"stroke-dashoffset":{f:lt,i:B},"stroke-dasharray":{f:function(t){var n=arguments.length>1&&void 0!==arguments[1]?arguments[1]:" ";return t&&t.length>0&&(t=t.map((function(t){return d(t,4)}))),ft(t,n)},i:function(t,n,r){var e,i,o,u=n.length,a=r.length;if(u!==a)if(0===u)n=V(u=a,0);else if(0===a)a=u,r=V(u,0);else{var l=(o=(e=u)*(i=a)/function(t,n){for(var r;n;)r=n,n=t%n,t=r;return t||1}(e,i))<0?-o:o;n=G(n,Math.floor(l/u)),r=G(r,Math.floor(l/a)),u=a=l}for(var f=[],s=0;s<u;s++)f.push(d(q(t,n[s],r[s])));return f}},opacity:qt,transform:function(t,n,e,i){if(!(t=function(t,n){if(!t||"object"!==r(t))return null;var e=!1;for(var i in t)t.hasOwnProperty(i)&&(t[i]&&t[i].length?(t[i].forEach((function(t){t.e&&(t.e=n(t.e))})),e=!0):delete t[i]);return e?t:null}(t,i)))return null;var o=function(r,i,o){var u=arguments.length>3&&void 0!==arguments[3]?arguments[3]:null;return t[r]?e(i,t[r],o):n&&n[r]?n[r]:u};return n&&n.a&&t.o?function(n){var r=e(n,t.o,Rt);return Tt.recomposeSelf(r,o("r",n,B,0)+r.a,o("k",n,C),o("s",n,C),o("t",n,C)).toString()}:function(t){return Tt.recomposeSelf(o("o",t,It,null),o("r",t,B,0),o("k",t,C),o("s",t,C),o("t",t,C)).toString()}},r:Bt,"#size":vt,"#radius":ht,_:function(t,n){if(Array.isArray(t))for(var r=0;r<t.length;r++)this[t[r]]=n;else this[t]=n}},Ut=function(t){!function(t,n){if("function"!=typeof n&&null!==n)throw new TypeError("Super expression must either be null or a function");t.prototype=Object.create(n&&n.prototype,{constructor:{value:t,writable:!0,configurable:!0}}),n&&l(t,n)}(u,t);var n,r,i=(n=u,r=f(),function(){var t,e=a(n);if(r){var i=a(this).constructor;t=Reflect.construct(e,arguments,i)}else t=e.apply(this,arguments);return c(this,t)});function u(){return e(this,u),i.apply(this,arguments)}return o(u,null,[{key:"build",value:function(t){var n=h(a(u),"build",this).call(this,t,$t);if(!n)return null;n.el,n.options,function(t,n,r){t.play()}(n.player)}}]),u}(at);return Ut.init(),Ut}));
(function(s,i,o,w){w[o]=w[o]||{};w[o][s]=w[o][s]||[];w[o][s].push(i);})('5c7f360c',{"root":"e65yerRot9T1","animations":[{"elements":{"e65yerRot9T53":{"transform":{"data":{"o":{"x":214.142975,"y":203.235367,"type":"corner"},"t":{"x":-214.142975,"y":-203.235367}},"keys":{"r":[{"t":0,"v":43.479866},{"t":3000,"v":397.543584,"e":[0.42,0,0.58,1]}]}}}},"s":"MSDA1M2FkNTQ5NmE3YTBQ5M2E2OWJCYTFhMDUA0NmM2NTYyTzYyNjI1AZTU0VDk2OWJFYTQ5NLzk1YTY5YmExYTA1NEF82YzYzRlU1ZTU0OWJIhNjk3YTQ5M2E2OWJEEYTFWYTBhNTU0NmM2MXk81ZTU0OTg5YjllOWUU1NDZjNjM1ZTU0OTME5ZWE2OTdhNGEwOTNhGNjk3NTQ2Yzk4OTM5ZBUdhNTk3NWU1NGE1YTDI5Nzk3OTY1NDZjNjNPhZg|"}],"options":"MODAxMDg4VTJmODA4MTYZlN2Y4MTJmNDcyZjcU5N2NWNmU3MTJmOGFQF"},'__SVGATOR_PLAYER__',window)]]></script></svg>