<svg xmlns="http://www.w3.org/2000/svg" width="24" height="24" fill="none" viewBox="0 0 24 24"><path fill="#3C3C3C" d="M18.83 9.44098C18.7383 9.30527 18.6146 9.19417 18.4699 9.11745C18.3252 9.04073 18.1638 9.00073 18 9.00098H15V7.00098H17.2C17.4652 7.00098 17.7196 6.89562 17.9071 6.70808C18.0946 6.52055 18.2 6.26619 18.2 6.00098V2.00098C18.2 1.73576 18.0946 1.48141 17.9071 1.29387C17.7196 1.10633 17.4652 1.00098 17.2 1.00098H14C12.4617 1.00098 10.9865 1.61205 9.89878 2.69976C8.81107 3.78747 8.2 5.26272 8.2 6.80098V9.00098H6C5.73478 9.00098 5.48043 9.10633 5.29289 9.29387C5.10536 9.48141 5 9.73576 5 10.001V14.001C5 14.2662 5.10536 14.5205 5.29289 14.7081C5.48043 14.8956 5.73478 15.001 6 15.001H8.2V22.001C8.2 22.2662 8.30536 22.5205 8.49289 22.7081C8.68043 22.8956 8.93478 23.001 9.2 23.001H14C14.2652 23.001 14.5196 22.8956 14.7071 22.7081C14.8946 22.5205 15 22.2662 15 22.001V15.001H16.4C16.6003 15.0012 16.796 14.9412 16.9618 14.8289C17.1276 14.7166 17.2559 14.557 17.33 14.371L18.93 10.371C18.9904 10.2196 19.0129 10.0557 18.9954 9.89356C18.978 9.73147 18.9212 9.5761 18.83 9.44098V9.44098ZM15.72 13.001H14C13.7348 13.001 13.4804 13.1063 13.2929 13.2939C13.1054 13.4814 13 13.7358 13 14.001V21.001H10.2V14.001C10.2 13.7358 10.0946 13.4814 9.90711 13.2939C9.71957 13.1063 9.46522 13.001 9.2 13.001H7V11.001H9.2C9.46522 11.001 9.71957 10.8956 9.90711 10.7081C10.0946 10.5205 10.2 10.2662 10.2 10.001V6.80098C10.2026 5.79397 10.6038 4.82895 11.3159 4.11689C12.028 3.40482 12.993 3.00362 14 3.00098H16.2V5.00098H15.4C15.0614 4.95165 14.7163 4.97235 14.3861 5.0618C14.0558 5.15124 13.7474 5.30753 13.48 5.52098C13.3177 5.69087 13.1915 5.89188 13.109 6.11186C13.0265 6.33185 12.9894 6.56627 13 6.80098V10.001C13 10.2662 13.1054 10.5205 13.2929 10.7081C13.4804 10.8956 13.7348 11.001 14 11.001H16.52L15.72 13.001Z"/></svg>