<svg xmlns="http://www.w3.org/2000/svg" width="21" height="24" fill="none" viewBox="0 0 21 24"><path fill="#3C3C3C" d="M9.07032 20.5039C9.0703 20.3573 9.03802 20.2124 8.97578 20.0796C8.91353 19.9468 8.82284 19.8293 8.71014 19.7355C8.59743 19.6417 8.46546 19.5738 8.32359 19.5366C8.18171 19.4995 8.03341 19.494 7.88917 19.5205C6.58009 19.7608 4.92726 19.7969 4.4878 18.5625C4.10461 17.6065 3.46987 16.772 2.65089 16.1475C2.59246 16.1157 2.53677 16.0791 2.48439 16.0381C2.41272 15.8491 2.2854 15.6862 2.11925 15.5709C1.95311 15.4557 1.75592 15.3935 1.55372 15.3926H1.54884C1.28444 15.3925 1.03077 15.4972 0.843354 15.6837C0.655937 15.8702 0.55004 16.1233 0.548842 16.3877C0.544932 17.2032 1.35984 17.7256 1.69044 17.9024C2.08029 18.2941 2.39359 18.7551 2.61427 19.2618C2.97853 20.2852 4.03712 21.8379 7.08009 21.6378C7.08109 21.6729 7.08204 21.7061 7.08253 21.7364L7.08692 22.004C7.08692 22.2692 7.19228 22.5235 7.37982 22.7111C7.56735 22.8986 7.82171 23.004 8.08692 23.004C8.35214 23.004 8.60649 22.8986 8.79403 22.7111C8.98157 22.5235 9.08692 22.2692 9.08692 22.004L9.08204 21.6856C9.07716 21.4961 9.07032 21.2217 9.07032 20.5039ZM19.7373 5.37791C19.7691 5.25291 19.8003 5.11424 19.8277 4.95799C19.9894 3.84358 19.8484 2.70618 19.4195 1.66499C19.3653 1.52926 19.2822 1.407 19.1758 1.3068C19.0694 1.20659 18.9425 1.13087 18.8037 1.08492C18.4477 0.964805 17.1333 0.728475 14.6197 2.33492C12.5302 1.84322 10.3551 1.84322 8.26565 2.33492C5.76222 0.752005 4.4546 0.966805 4.10206 1.08008C3.95993 1.12417 3.82946 1.19949 3.72021 1.30054C3.61097 1.40159 3.52572 1.52581 3.47071 1.66408C3.03301 2.72526 2.89355 3.88586 3.06739 5.02052C3.09181 5.14845 3.11817 5.26662 3.14552 5.37501C2.31709 6.47846 1.87583 7.82438 1.89015 9.20411C1.88745 9.51195 1.90163 9.8197 1.93263 10.126C2.26663 14.7285 5.26663 16.1104 7.35694 16.585C7.31349 16.71 7.27394 16.8438 7.23878 16.9854C7.17612 17.2427 7.21805 17.5143 7.35538 17.7407C7.49271 17.9672 7.71422 18.1299 7.97135 18.1932C8.22848 18.2566 8.50024 18.2154 8.72703 18.0787C8.95382 17.9419 9.11714 17.7208 9.18116 17.4639C9.24479 17.1307 9.40788 16.8246 9.64894 16.586C9.7947 16.4583 9.90023 16.2911 9.9527 16.1046C10.0052 15.9182 10.0023 15.7205 9.94447 15.5356C9.88663 15.3507 9.77631 15.1866 9.62693 15.0632C9.47754 14.9399 9.29554 14.8626 9.10304 14.8408C5.64894 14.4463 4.14942 13.0391 3.92384 9.9424C3.89885 9.69713 3.88761 9.45065 3.89015 9.20413C3.87411 8.22078 4.19898 7.2622 4.80958 6.49123C4.87093 6.41086 4.93628 6.33361 5.00538 6.25978C5.12781 6.12279 5.21013 5.95471 5.2433 5.77399C5.27646 5.59328 5.25919 5.40692 5.19338 5.23537C5.12592 5.0549 5.07397 4.86901 5.03811 4.6797C4.95664 4.14142 4.98337 3.59229 5.11671 3.06446C5.98585 3.30994 6.80383 3.70951 7.53171 4.24414C7.65208 4.32432 7.78828 4.37767 7.93108 4.40059C8.07388 4.42351 8.21994 4.41545 8.35935 4.37696C10.3805 3.82846 12.5113 3.82881 14.5322 4.37796C14.6724 4.41641 14.8192 4.424 14.9626 4.40023C15.106 4.37646 15.2425 4.32189 15.3628 4.24027C16.0872 3.70341 16.9018 3.30027 17.768 3.04984C17.9008 3.565 17.9305 4.1013 17.8554 4.62796C17.8192 4.8355 17.7626 5.03896 17.6865 5.23539C17.6207 5.40694 17.6034 5.5933 17.6366 5.77401C17.6697 5.95472 17.7521 6.12281 17.8745 6.2598C17.9516 6.34671 18.0288 6.44046 18.0981 6.52835C18.7044 7.28627 19.0238 8.23383 19 9.20411C19.0018 9.46372 18.9893 9.72323 18.9624 9.98145C18.7422 13.0371 17.2368 14.4453 13.7666 14.8408C13.5741 14.8628 13.392 14.9402 13.2427 15.0636C13.0933 15.1871 12.983 15.3513 12.9253 15.5363C12.8675 15.7212 12.8647 15.919 12.9172 16.1055C12.9698 16.2921 13.0754 16.4593 13.2212 16.5869C13.4698 16.8319 13.6333 17.1503 13.6875 17.4951C13.7551 17.7628 13.7861 18.0384 13.7798 18.3145V20.6485C13.77 21.2959 13.77 21.7813 13.77 22.0039C13.77 22.2691 13.8754 22.5235 14.0629 22.711C14.2504 22.8986 14.5048 23.0039 14.77 23.0039C15.0352 23.0039 15.2896 22.8986 15.4771 22.711C15.6647 22.5235 15.77 22.2691 15.77 22.0039C15.77 21.7871 15.77 21.3115 15.7798 20.6641V18.3145C15.7878 17.8723 15.7358 17.4311 15.625 17.0029C15.5933 16.8624 15.5545 16.7235 15.5088 16.5869C17.03 16.3342 18.4123 15.5499 19.4094 14.3735C20.4065 13.1972 20.9539 11.7052 20.9541 10.1631C20.987 9.84453 21.0024 9.52438 21 9.20411C21.0222 7.82289 20.5773 6.47464 19.7373 5.37793L19.7373 5.37791Z"/></svg>