<svg width="24" height="24" viewBox="0 0 24 24" fill="none" xmlns="http://www.w3.org/2000/svg">
<path d="M17.34 5.46098C17.1027 5.46098 16.8707 5.53136 16.6733 5.66321C16.476 5.79507 16.3222 5.98249 16.2313 6.20176C16.1405 6.42103 16.1168 6.66231 16.1631 6.89508C16.2094 7.12786 16.3236 7.34168 16.4915 7.5095C16.6593 7.67733 16.8731 7.79162 17.1059 7.83792C17.3387 7.88422 17.5799 7.86046 17.7992 7.76963C18.0185 7.67881 18.2059 7.525 18.3378 7.32766C18.4696 7.13032 18.54 6.89831 18.54 6.66098C18.54 6.34272 18.4136 6.03749 18.1885 5.81245C17.9635 5.5874 17.6583 5.46098 17.34 5.46098ZM21.94 7.88098C21.9206 7.05127 21.7652 6.23038 21.48 5.45098C21.2257 4.78411 20.83 4.18026 20.32 3.68098C19.8248 3.1684 19.2196 2.77515 18.55 2.53098C17.7727 2.23714 16.9508 2.07819 16.12 2.06098C15.06 2.00098 14.72 2.00098 12 2.00098C9.28 2.00098 8.94 2.00098 7.88 2.06098C7.04915 2.07819 6.22734 2.23714 5.45 2.53098C4.78168 2.77763 4.17693 3.17054 3.68 3.68098C3.16743 4.17615 2.77418 4.78142 2.53 5.45098C2.23616 6.22832 2.07721 7.05013 2.06 7.88098C2 8.94098 2 9.28098 2 12.001C2 14.721 2 15.061 2.06 16.121C2.07721 16.9518 2.23616 17.7736 2.53 18.551C2.77418 19.2205 3.16743 19.8258 3.68 20.321C4.17693 20.8314 4.78168 21.2243 5.45 21.471C6.22734 21.7648 7.04915 21.9238 7.88 21.941C8.94 22.001 9.28 22.001 12 22.001C14.72 22.001 15.06 22.001 16.12 21.941C16.9508 21.9238 17.7727 21.7648 18.55 21.471C19.2196 21.2268 19.8248 20.8335 20.32 20.321C20.8322 19.8236 21.2283 19.2192 21.48 18.551C21.7652 17.7716 21.9206 16.9507 21.94 16.121C21.94 15.061 22 14.721 22 12.001C22 9.28098 22 8.94098 21.94 7.88098ZM20.14 16.001C20.1327 16.6357 20.0178 17.2647 19.8 17.861C19.6403 18.2962 19.3839 18.6894 19.05 19.011C18.7256 19.3415 18.3332 19.5974 17.9 19.761C17.3037 19.9787 16.6748 20.0937 16.04 20.101C15.04 20.151 14.67 20.161 12.04 20.161C9.41 20.161 9.04 20.161 8.04 20.101C7.38089 20.1133 6.72459 20.0118 6.1 19.801C5.68578 19.6291 5.31136 19.3738 5 19.051C4.66809 18.7297 4.41484 18.3362 4.26 17.901C4.01586 17.2961 3.88044 16.6529 3.86 16.001C3.86 15.001 3.8 14.631 3.8 12.001C3.8 9.37098 3.8 9.00098 3.86 8.00098C3.86448 7.35203 3.98295 6.70892 4.21 6.10098C4.38605 5.67889 4.65627 5.30263 5 5.00098C5.30381 4.65714 5.67929 4.38407 6.1 4.20098C6.70955 3.98102 7.352 3.86606 8 3.86098C9 3.86098 9.37 3.80098 12 3.80098C14.63 3.80098 15 3.80098 16 3.86098C16.6348 3.86826 17.2637 3.98322 17.86 4.20098C18.3144 4.36963 18.7223 4.64382 19.05 5.00098C19.3777 5.30816 19.6338 5.68371 19.8 6.10098C20.0223 6.70991 20.1373 7.35276 20.14 8.00098C20.19 9.00098 20.2 9.37098 20.2 12.001C20.2 14.631 20.19 15.001 20.14 16.001ZM12 6.87098C10.9858 6.87295 9.99496 7.1755 9.15265 7.74039C8.31035 8.30529 7.65438 9.10717 7.26763 10.0447C6.88089 10.9823 6.78072 12.0134 6.97979 13.0079C7.17886 14.0024 7.66824 14.9155 8.38608 15.632C9.10392 16.3484 10.018 16.836 11.0129 17.0331C12.0077 17.2303 13.0387 17.1281 13.9755 16.7395C14.9123 16.3509 15.7129 15.6934 16.2761 14.85C16.8394 14.0066 17.14 13.0152 17.14 12.001C17.1413 11.3261 17.0092 10.6576 16.7512 10.0339C16.4933 9.41028 16.1146 8.84379 15.6369 8.36703C15.1592 7.89027 14.5919 7.51265 13.9678 7.25591C13.3436 6.99916 12.6749 6.86834 12 6.87098ZM12 15.331C11.3414 15.331 10.6976 15.1357 10.15 14.7698C9.60234 14.4039 9.17552 13.8838 8.92348 13.2753C8.67144 12.6668 8.6055 11.9973 8.73398 11.3513C8.86247 10.7054 9.17963 10.112 9.64533 9.64631C10.111 9.1806 10.7044 8.86345 11.3503 8.73496C11.9963 8.60647 12.6659 8.67242 13.2743 8.92446C13.8828 9.1765 14.4029 9.60331 14.7688 10.1509C15.1347 10.6985 15.33 11.3424 15.33 12.001C15.33 12.4383 15.2439 12.8713 15.0765 13.2753C14.9092 13.6793 14.6639 14.0464 14.3547 14.3556C14.0454 14.6649 13.6784 14.9101 13.2743 15.0775C12.8703 15.2448 12.4373 15.331 12 15.331Z" fill="#3C3C3C"/>
</svg>
