<svg width="23" height="20" viewBox="0 0 23 20" fill="none" xmlns="http://www.w3.org/2000/svg">
<path d="M22.9914 1.95118C22.9915 1.77455 22.9448 1.60104 22.8561 1.44833C22.7673 1.29561 22.6397 1.16915 22.4862 1.08181C22.3326 0.994478 22.1587 0.949392 21.9821 0.951147C21.8054 0.952902 21.6324 1.00143 21.4807 1.0918C20.8954 1.44019 20.2652 1.70699 19.6077 1.8848C18.6686 1.07903 17.471 0.638106 16.2337 0.642612C14.8762 0.644175 13.5726 1.17321 12.5979 2.11799C11.6232 3.06278 11.0539 4.34937 11.01 5.70609C8.33402 5.27935 5.90868 3.88262 4.19649 1.78223C4.09333 1.65707 3.96158 1.55855 3.81235 1.49498C3.66313 1.43141 3.5008 1.40466 3.33907 1.41698C3.17743 1.43029 3.02147 1.48278 2.88467 1.56989C2.74786 1.65701 2.63434 1.77614 2.55391 1.91698C2.14144 2.6368 1.90454 3.44374 1.86246 4.27229C1.82038 5.10084 1.9743 5.92763 2.31172 6.68553L2.30977 6.68748C2.15812 6.78089 2.03296 6.91164 1.94628 7.06723C1.85959 7.22282 1.81427 7.39805 1.81465 7.57616C1.81282 7.72309 1.82163 7.86996 1.84102 8.01561C1.94316 9.27388 2.50081 10.4517 3.40938 11.3281C3.34775 11.4455 3.31013 11.5741 3.29873 11.7062C3.28732 11.8383 3.30237 11.9714 3.34297 12.0976C3.73909 13.3318 4.58147 14.3737 5.70528 15.0195C4.56352 15.461 3.3307 15.615 2.11543 15.4678C1.89051 15.4395 1.66266 15.4886 1.46928 15.6069C1.2759 15.7252 1.12846 15.9057 1.05115 16.1188C0.973837 16.3319 0.971244 16.5649 1.04379 16.7797C1.11634 16.9945 1.25973 17.1782 1.45043 17.3008C3.54053 18.6469 5.97411 19.3626 8.4602 19.3623C11.2795 19.394 14.0302 18.4931 16.2844 16.7998C18.5387 15.1064 20.1702 12.7155 20.925 9.99898C21.2781 8.81562 21.4583 7.58745 21.4602 6.35254C21.4602 6.28711 21.4602 6.21973 21.4592 6.15235C21.9813 5.58928 22.3858 4.92765 22.6489 4.20625C22.912 3.48484 23.0284 2.71818 22.9914 1.95118ZM19.6848 5.16309C19.5196 5.35844 19.436 5.60989 19.4514 5.86524C19.4611 6.03024 19.4602 6.19624 19.4602 6.35254C19.4581 7.39608 19.3052 8.43384 19.0061 9.4336C18.3896 11.745 17.0152 13.7826 15.1031 15.2202C13.1911 16.6578 10.8519 17.4121 8.4602 17.3623C7.60108 17.3626 6.74492 17.2616 5.90942 17.0615C6.97483 16.7182 7.97101 16.1888 8.8518 15.4981C9.01403 15.3703 9.13275 15.1955 9.19169 14.9976C9.25063 14.7997 9.24688 14.5885 9.18098 14.3928C9.11507 14.1971 8.99023 14.0266 8.82358 13.9047C8.65694 13.7828 8.45665 13.7155 8.2502 13.7119C7.41903 13.699 6.62533 13.3639 6.03633 12.7774C6.18575 12.749 6.33419 12.7139 6.48165 12.6719C6.69766 12.6104 6.8867 12.478 7.01831 12.296C7.14993 12.114 7.21647 11.8931 7.20723 11.6687C7.19798 11.4443 7.11348 11.2295 6.96734 11.059C6.82119 10.8884 6.62191 10.772 6.40157 10.7285C5.91911 10.6332 5.46512 10.428 5.07489 10.1287C4.68466 9.82943 4.3687 9.44419 4.15157 9.00293C4.3323 9.0276 4.51418 9.04292 4.69649 9.04883C4.91308 9.0521 5.12509 8.98641 5.30187 8.86124C5.47865 8.73607 5.61104 8.55792 5.67989 8.35254C5.74587 8.14531 5.74248 7.92221 5.67022 7.71707C5.59797 7.51194 5.46079 7.33596 5.2795 7.21582C4.83965 6.92279 4.47935 6.52524 4.23086 6.05878C3.98237 5.59231 3.85346 5.0715 3.85567 4.54298C3.85567 4.47658 3.85762 4.41017 3.86153 4.34474C6.10279 6.435 9.00985 7.66719 12.0705 7.82423C12.225 7.83032 12.3789 7.80122 12.5205 7.73913C12.6621 7.67705 12.7877 7.58359 12.8879 7.46583C12.9871 7.34694 13.0573 7.20664 13.0931 7.05599C13.1288 6.90534 13.1291 6.74845 13.0939 6.59767C13.0367 6.35904 13.0076 6.11454 13.007 5.86915C13.0079 5.01369 13.3482 4.19352 13.9531 3.58862C14.558 2.98372 15.3781 2.64349 16.2336 2.64258C16.6737 2.6414 17.1093 2.73148 17.5129 2.90713C17.9165 3.08278 18.2792 3.34018 18.5783 3.66309C18.6937 3.78717 18.8388 3.87969 19 3.93183C19.1612 3.98397 19.333 3.994 19.4992 3.96098C19.91 3.88104 20.3149 3.77337 20.7111 3.63872C20.4409 4.19169 20.0955 4.70467 19.6848 5.16309Z" fill="#3C3C3C"/>
</svg>
