<svg width="24" height="24" viewBox="0 0 24 24" fill="none" xmlns="http://www.w3.org/2000/svg">
<path d="M15.4 11.1605L10.5 8.00054C10.348 7.91277 10.1755 7.86656 10 7.86656C9.82446 7.86656 9.65202 7.91277 9.5 8.00054C9.35174 8.08606 9.22791 8.2082 9.14036 8.35528C9.05282 8.50235 9.00449 8.66944 9 8.84054V15.1605C9.0013 15.3387 9.05019 15.5133 9.14161 15.6663C9.23303 15.8193 9.36367 15.945 9.52 16.0305C9.66543 16.1162 9.83123 16.1611 10 16.1605C10.1771 16.1483 10.3487 16.0934 10.5 16.0005L15.4 12.8405C15.5403 12.7499 15.6557 12.6255 15.7356 12.4788C15.8155 12.332 15.8574 12.1676 15.8574 12.0005C15.8574 11.8335 15.8155 11.669 15.7356 11.5223C15.6557 11.3756 15.5403 11.2512 15.4 11.1605ZM11 13.3205V10.6805L13 12.0005L11 13.3205ZM19.38 4.51054L17.83 4.31054C13.991 3.8405 10.109 3.8405 6.27 4.31054L4.72 4.51054C3.97471 4.59165 3.2854 4.94441 2.78368 5.50146C2.28195 6.05852 2.00297 6.78085 2 7.53054V16.4705C2.00636 17.2091 2.28051 17.9203 2.77155 18.472C3.26259 19.0237 3.93715 19.3785 4.67 19.4705L6.22 19.6605C8.13776 19.8936 10.0681 20.0071 12 20.0005C13.9323 20.0005 15.8627 19.8803 17.78 19.6405L19.33 19.4505C20.0628 19.3585 20.7374 19.0037 21.2285 18.452C21.7195 17.9003 21.9936 17.1891 22 16.4505V7.53054C21.9985 6.78851 21.7265 6.07249 21.235 5.51658C20.7435 4.96066 20.0662 4.60299 19.33 4.51054H19.38ZM20.05 16.5105C20.0508 16.7625 19.9565 17.0054 19.7859 17.1908C19.6154 17.3762 19.3811 17.4904 19.13 17.5105L17.58 17.7005C13.9077 18.1606 10.1923 18.1606 6.52 17.7005L4.97 17.5105C4.71889 17.4904 4.48463 17.3762 4.31406 17.1908C4.1435 17.0054 4.04919 16.7625 4.05 16.5105V7.53054C4.06192 7.28249 4.16055 7.04649 4.32869 6.86373C4.49683 6.68097 4.7238 6.56305 4.97 6.53054L6.47 6.30054C10.1427 5.84719 13.8573 5.84719 17.53 6.30054L19.08 6.49054C19.3262 6.52305 19.5532 6.64097 19.7213 6.82373C19.8894 7.00649 19.9881 7.24249 20 7.49054L20.05 16.5105Z" fill="#3C3C3C"/>
</svg>
