<svg width="428" height="413" viewBox="0 0 428 413" fill="none" xmlns="http://www.w3.org/2000/svg">
<mask id="mask0_848_8053" style="mask-type:alpha" maskUnits="userSpaceOnUse" x="0" y="0" width="428" height="413">
<rect width="428" height="413" fill="#C4C4C4"/>
</mask>
<g mask="url(#mask0_848_8053)">
<path d="M219.655 123.621C195.407 114.381 202.62 68.5868 152.669 44.2971C104.224 20.7245 41.1561 53.0277 19.4127 100.11C-7.19476 157.712 9.24784 239.8 55.6655 259.62C104.224 280.355 155.059 248.323 188.007 251.96C222.17 255.723 241.409 312.243 311.399 312.565C366.235 312.804 407.612 274.566 418.203 194.889C424.949 144.148 408.922 92.5543 335.897 86.7963C281.185 82.4206 246.616 133.848 219.655 123.621Z" fill="#7694FF"/>
<path opacity="0.9" d="M219.655 123.621C195.407 114.381 202.62 68.5868 152.669 44.2971C104.224 20.7245 41.1561 53.0277 19.4127 100.11C-7.19476 157.712 9.24784 239.8 55.6655 259.62C104.224 280.355 155.059 248.323 188.007 251.96C222.17 255.723 241.409 312.243 311.399 312.565C366.235 312.804 407.612 274.566 418.203 194.889C424.949 144.148 408.922 92.5543 335.897 86.7963C281.185 82.4206 246.616 133.848 219.655 123.621Z" fill="white"/>
<path d="M211.839 379.002C323.136 379.002 413.36 373.734 413.36 367.236C413.36 360.738 323.136 355.471 211.839 355.471C100.542 355.471 10.3184 360.738 10.3184 367.236C10.3184 373.734 100.542 379.002 211.839 379.002Z" fill="#F5F5F5"/>
<path d="M210.57 89.7393V363.474H390.607V89.7393H210.57Z" fill="#7694FF"/>
<path opacity="0.2" d="M210.57 89.7393V363.474H390.607V89.7393H210.57Z" fill="white"/>
<path d="M174.308 89.7393V363.474H210.571V89.7393H174.308Z" fill="#7694FF"/>
<path opacity="0.5" d="M174.308 89.7393V363.474H210.571V89.7393H174.308Z" fill="white"/>
<path d="M273.795 89.7393V363.474H310.048V89.7393H273.795Z" fill="#7694FF"/>
<path opacity="0.5" d="M273.795 89.7393V363.474H310.048V89.7393H273.795Z" fill="white"/>
<path d="M371.682 87.4316V365.792H409.535V87.4316H371.682Z" fill="#7694FF"/>
<path opacity="0.4" d="M371.682 87.4316V365.792H409.535V87.4316H371.682Z" fill="white"/>
<path d="M275.375 87.4307H172.707V365.791H374.882V87.4307H275.375ZM175.908 92.0454H272.173V178.707H175.908V92.0454ZM175.908 183.301H272.173V269.921H175.908V183.301ZM175.908 361.166V274.546H272.173V361.166H175.908ZM371.681 361.166H275.416V274.546H371.681V361.166ZM371.681 269.921H275.416V183.301H371.681V269.921ZM275.416 178.707V92.0454H371.681V178.707H275.416Z" fill="#7694FF"/>
<path opacity="0.7" d="M172.707 87.4307V365.791H374.882V87.4307H172.707ZM175.908 92.0454H272.173V178.707H175.908V92.0454ZM175.908 183.301H272.173V269.921H175.908V183.301ZM175.908 361.166V274.546H272.173V361.166H175.908ZM371.681 361.166H275.416V274.546H371.681V361.166ZM371.681 269.921H275.416V183.301H371.681V269.921ZM275.416 178.707V92.0454H371.681V178.707H275.416Z" fill="white"/>
<path d="M346.976 140.628H308.738V178.866H346.976V140.628Z" fill="#263238"/>
<path opacity="0.7" d="M346.976 140.628H308.738V178.866H346.976V140.628Z" fill="white"/>
<path d="M346.976 178.862H364.021V140.624H346.976V178.862Z" fill="#263238"/>
<path opacity="0.6" d="M346.976 178.862H364.021V140.624H346.976V178.862Z" fill="white"/>
<path opacity="0.7" d="M343.494 166.475H330.273V175.216H343.494V166.475Z" fill="white"/>
<path d="M333.911 168.367H332.965V173.346H333.911V168.367Z" fill="#263238"/>
<path d="M335.128 168.367H334.649V173.346H335.128V168.367Z" fill="#263238"/>
<path d="M336.925 168.367H335.615V173.346H336.925V168.367Z" fill="#263238"/>
<path d="M338.027 168.367H337.549V173.346H338.027V168.367Z" fill="#263238"/>
<path d="M339.243 168.367H338.765V173.346H339.243V168.367Z" fill="#263238"/>
<path d="M340.792 168.367H339.846V173.346H340.792V168.367Z" fill="#263238"/>
<path d="M365.964 134.059H348.919V142.561H365.964V134.059Z" fill="#263238"/>
<path opacity="0.4" d="M365.964 134.059H348.919V142.561H365.964V134.059Z" fill="white"/>
<path d="M348.919 134.059H306.794V142.561H348.919V134.059Z" fill="#263238"/>
<path opacity="0.5" d="M348.919 134.059H306.794V142.561H348.919V134.059Z" fill="white"/>
<path d="M360.134 134.059H354.74V146.448H360.134V134.059Z" fill="#7694FF"/>
<path d="M360.134 166.475H354.74V178.864H360.134V166.475Z" fill="#7694FF"/>
<path opacity="0.3" d="M360.134 134.059H354.74V146.448H360.134V134.059Z" fill="white"/>
<path opacity="0.3" d="M360.134 166.475H354.74V178.864H360.134V166.475Z" fill="white"/>
<path d="M232.584 220.687H183.443V269.827H232.584V220.687Z" fill="#263238"/>
<path opacity="0.7" d="M232.584 220.687H183.443V269.827H232.584V220.687Z" fill="white"/>
<path d="M232.584 269.827H254.483V220.686H232.584V269.827Z" fill="#263238"/>
<path opacity="0.6" d="M232.584 269.827H254.483V220.686H232.584V269.827Z" fill="white"/>
<path opacity="0.7" d="M228.105 253.905H211.111V265.141H228.105V253.905Z" fill="white"/>
<path d="M215.799 256.328H214.583V262.72H215.799V256.328Z" fill="#263238"/>
<path d="M217.357 256.328H216.744V262.72H217.357V256.328Z" fill="#263238"/>
<path d="M219.665 256.328H217.981V262.72H219.665V256.328Z" fill="#263238"/>
<path d="M221.089 256.328H220.476V262.72H221.089V256.328Z" fill="#263238"/>
<path d="M222.648 256.328H222.035V262.72H222.648V256.328Z" fill="#263238"/>
<path d="M224.644 256.328H223.428V262.72H224.644V256.328Z" fill="#263238"/>
<path d="M256.978 212.249H235.079V223.183H256.978V212.249Z" fill="#263238"/>
<path opacity="0.4" d="M256.978 212.249H235.079V223.183H256.978V212.249Z" fill="white"/>
<path d="M235.079 212.249H180.949V223.183H235.079V212.249Z" fill="#263238"/>
<path opacity="0.5" d="M235.079 212.249H180.949V223.183H235.079V212.249Z" fill="white"/>
<path d="M249.495 212.249H242.562V228.172H249.495V212.249Z" fill="#7694FF"/>
<path d="M249.495 253.905H242.562V269.828H249.495V253.905Z" fill="#7694FF"/>
<path opacity="0.3" d="M249.495 212.249H242.562V228.172H249.495V212.249Z" fill="white"/>
<path opacity="0.3" d="M249.495 253.905H242.562V269.828H249.495V253.905Z" fill="white"/>
<path d="M235.619 311.85H186.479V360.99H235.619V311.85Z" fill="#263238"/>
<path opacity="0.7" d="M235.619 311.85H186.479V360.99H235.619V311.85Z" fill="white"/>
<path d="M235.619 361.002H257.519V311.861H235.619V361.002Z" fill="#263238"/>
<path opacity="0.6" d="M235.619 361.002H257.519V311.861H235.619V361.002Z" fill="white"/>
<path opacity="0.7" d="M231.14 345.078H214.146V356.314H231.14V345.078Z" fill="white"/>
<path d="M218.823 347.499H217.607V353.891H218.823V347.499Z" fill="#263238"/>
<path d="M220.393 347.499H219.779V353.891H220.393V347.499Z" fill="#263238"/>
<path d="M222.7 347.499H221.017V353.891H222.7V347.499Z" fill="#263238"/>
<path d="M224.124 347.499H223.511V353.891H224.124V347.499Z" fill="#263238"/>
<path d="M225.683 347.499H225.069V353.891H225.683V347.499Z" fill="#263238"/>
<path d="M227.668 347.499H226.452V353.891H227.668V347.499Z" fill="#263238"/>
<path d="M260.013 303.41H238.113V314.344H260.013V303.41Z" fill="#263238"/>
<path opacity="0.5" d="M260.013 303.41H238.113V314.344H260.013V303.41Z" fill="white"/>
<path d="M238.114 303.41H183.984V314.344H238.114V303.41Z" fill="#263238"/>
<path opacity="0.6" d="M238.114 303.41H183.984V314.344H238.114V303.41Z" fill="white"/>
<path d="M252.529 303.41H245.597V319.333H252.529V303.41Z" fill="#7694FF"/>
<path d="M252.529 345.078H245.597V361.001H252.529V345.078Z" fill="#7694FF"/>
<path d="M252.529 303.41H245.597V319.333H252.529V303.41Z" fill="white"/>
<path d="M252.529 345.078H245.597V361.001H252.529V345.078Z" fill="white"/>
<path d="M339.045 311.85H289.904V360.99H339.045V311.85Z" fill="#263238"/>
<path opacity="0.7" d="M339.045 311.85H289.904V360.99H339.045V311.85Z" fill="white"/>
<path d="M339.056 361.002H360.955V311.861H339.056V361.002Z" fill="#263238"/>
<path opacity="0.6" d="M339.056 361.002H360.955V311.861H339.056V361.002Z" fill="white"/>
<path opacity="0.7" d="M334.576 345.078H317.583V356.314H334.576V345.078Z" fill="white"/>
<path d="M322.26 347.499H321.044V353.891H322.26V347.499Z" fill="#263238"/>
<path d="M323.819 347.499H323.206V353.891H323.819V347.499Z" fill="#263238"/>
<path d="M326.126 347.499H324.442V353.891H326.126V347.499Z" fill="#263238"/>
<path d="M327.55 347.499H326.937V353.891H327.55V347.499Z" fill="#263238"/>
<path d="M329.109 347.499H328.496V353.891H329.109V347.499Z" fill="#263238"/>
<path d="M331.105 347.499H329.889V353.891H331.105V347.499Z" fill="#263238"/>
<path d="M363.439 303.41H341.54V314.344H363.439V303.41Z" fill="#263238"/>
<path opacity="0.4" d="M363.439 303.41H341.54V314.344H363.439V303.41Z" fill="white"/>
<path d="M341.54 303.41H287.41V314.344H341.54V303.41Z" fill="#263238"/>
<path opacity="0.5" d="M341.54 303.41H287.41V314.344H341.54V303.41Z" fill="white"/>
<path d="M355.956 303.41H349.023V319.333H355.956V303.41Z" fill="#7694FF"/>
<path d="M355.956 345.078H349.023V361.001H355.956V345.078Z" fill="#7694FF"/>
<path opacity="0.3" d="M355.956 303.41H349.023V319.333H355.956V303.41Z" fill="white"/>
<path opacity="0.3" d="M355.956 345.078H349.023V361.001H355.956V345.078Z" fill="white"/>
<path d="M339.045 220.687H289.904V269.827H339.045V220.687Z" fill="#263238"/>
<path opacity="0.7" d="M339.045 220.687H289.904V269.827H339.045V220.687Z" fill="white"/>
<path d="M339.056 269.827H360.955V220.686H339.056V269.827Z" fill="#263238"/>
<path opacity="0.6" d="M339.056 269.827H360.955V220.686H339.056V269.827Z" fill="white"/>
<path opacity="0.7" d="M334.576 253.905H317.583V265.141H334.576V253.905Z" fill="white"/>
<path d="M322.26 256.328H321.044V262.72H322.26V256.328Z" fill="#263238"/>
<path d="M323.819 256.328H323.206V262.72H323.819V256.328Z" fill="#263238"/>
<path d="M326.126 256.328H324.442V262.72H326.126V256.328Z" fill="#263238"/>
<path d="M327.55 256.328H326.937V262.72H327.55V256.328Z" fill="#263238"/>
<path d="M329.109 256.328H328.496V262.72H329.109V256.328Z" fill="#263238"/>
<path d="M331.105 256.328H329.889V262.72H331.105V256.328Z" fill="#263238"/>
<path d="M363.439 212.249H341.54V223.183H363.439V212.249Z" fill="#263238"/>
<path opacity="0.4" d="M363.439 212.249H341.54V223.183H363.439V212.249Z" fill="white"/>
<path d="M341.54 212.249H287.41V223.183H341.54V212.249Z" fill="#263238"/>
<path opacity="0.5" d="M341.54 212.249H287.41V223.183H341.54V212.249Z" fill="white"/>
<path d="M355.956 212.249H349.023V228.172H355.956V212.249Z" fill="#7694FF"/>
<path d="M355.956 253.905H349.023V269.828H355.956V253.905Z" fill="#7694FF"/>
<path opacity="0.3" d="M355.956 212.249H349.023V228.172H355.956V212.249Z" fill="white"/>
<path opacity="0.3" d="M355.956 253.905H349.023V269.828H355.956V253.905Z" fill="white"/>
<path d="M250.856 147.288H219.488V178.656H250.856V147.288Z" fill="#263238"/>
<path opacity="0.7" d="M250.856 147.288H219.488V178.656H250.856V147.288Z" fill="white"/>
<path d="M250.857 178.656H264.836V147.289H250.857V178.656Z" fill="#263238"/>
<path opacity="0.6" d="M250.857 178.656H264.836V147.289H250.857V178.656Z" fill="white"/>
<path opacity="0.7" d="M248.008 168.501H237.157V175.673H248.008V168.501Z" fill="white"/>
<path d="M240.141 170.039H239.361V174.124H240.141V170.039Z" fill="#263238"/>
<path d="M241.128 170.039H240.743V174.124H241.128V170.039Z" fill="#263238"/>
<path d="M242.614 170.039H241.533V174.124H242.614V170.039Z" fill="#263238"/>
<path d="M243.508 170.039H243.123V174.124H243.508V170.039Z" fill="#263238"/>
<path d="M244.506 170.039H244.121V174.124H244.506V170.039Z" fill="#263238"/>
<path d="M245.784 170.039H245.005V174.124H245.784V170.039Z" fill="#263238"/>
<path d="M266.426 141.904H252.446V148.878H266.426V141.904Z" fill="#263238"/>
<path opacity="0.4" d="M266.426 141.904H252.446V148.878H266.426V141.904Z" fill="white"/>
<path d="M252.457 141.904H217.898V148.878H252.457V141.904Z" fill="#263238"/>
<path opacity="0.5" d="M252.457 141.904H217.898V148.878H252.457V141.904Z" fill="white"/>
<path d="M261.655 141.904H257.228V152.069H261.655V141.904Z" fill="#7694FF"/>
<path d="M261.655 168.501H257.228V178.666H261.655V168.501Z" fill="#7694FF"/>
<path opacity="0.3" d="M261.655 141.904H257.228V152.069H261.655V141.904Z" fill="white"/>
<path opacity="0.3" d="M261.655 168.501H257.228V178.666H261.655V168.501Z" fill="white"/>
<path d="M217.784 125.19H186.416V178.665H217.784V125.19Z" fill="#263238"/>
<path opacity="0.7" d="M217.784 125.19H186.416V178.665H217.784V125.19Z" fill="white"/>
<path d="M217.794 178.656H231.773V125.181H217.794V178.656Z" fill="#263238"/>
<path opacity="0.6" d="M217.794 178.656H231.773V125.181H217.794V178.656Z" fill="white"/>
<path opacity="0.7" d="M230.204 168.501H219.354V175.673H230.204V168.501Z" fill="white"/>
<path d="M222.347 170.039H221.567V174.124H222.347V170.039Z" fill="#263238"/>
<path d="M223.334 170.039H222.949V174.124H223.334V170.039Z" fill="#263238"/>
<path d="M224.82 170.039H223.739V174.124H224.82V170.039Z" fill="#263238"/>
<path d="M225.715 170.039H225.33V174.124H225.715V170.039Z" fill="#263238"/>
<path d="M226.712 170.039H226.327V174.124H226.712V170.039Z" fill="#263238"/>
<path d="M227.99 170.039H227.211V174.124H227.99V170.039Z" fill="#263238"/>
<path d="M233.364 119.798H219.385V126.772H233.364V119.798Z" fill="#263238"/>
<path opacity="0.4" d="M233.364 119.798H219.385V126.772H233.364V119.798Z" fill="white"/>
<path d="M219.385 119.798H184.826V126.772H219.385V119.798Z" fill="#263238"/>
<path opacity="0.5" d="M219.385 119.798H184.826V126.772H219.385V119.798Z" fill="white"/>
<path d="M206.299 119.798H201.871V129.963H206.299V119.798Z" fill="#7694FF"/>
<path d="M206.299 168.501H201.871V178.666H206.299V168.501Z" fill="#7694FF"/>
<path opacity="0.3" d="M206.299 119.798H201.871V129.963H206.299V119.798Z" fill="white"/>
<path opacity="0.3" d="M206.299 168.501H201.871V178.666H206.299V168.501Z" fill="white"/>
<path d="M84.6531 350.198H26.4492V267.756C26.4547 264.961 27.5683 262.282 29.5458 260.306C31.5233 258.33 34.2034 257.22 36.9987 257.217H74.0725C76.8668 257.22 79.5458 258.331 81.5217 260.307C83.4976 262.282 84.6088 264.962 84.6116 267.756L84.6531 350.198ZM29.9519 346.653H81.1297V267.756C81.1297 265.886 80.3876 264.092 79.0664 262.769C77.7451 261.446 75.9528 260.701 74.0829 260.699H37.0403C36.1112 260.696 35.1908 260.876 34.3316 261.23C33.4724 261.583 32.6913 262.102 32.0329 262.758C31.3746 263.413 30.8519 264.192 30.4948 265.05C30.1377 265.907 29.9532 266.827 29.9519 267.756V346.653Z" fill="#263238"/>
<path opacity="0.5" d="M84.6531 350.198H26.4492V267.756C26.4547 264.961 27.5683 262.282 29.5458 260.306C31.5233 258.33 34.2034 257.22 36.9987 257.217H74.0725C76.8668 257.22 79.5458 258.331 81.5217 260.307C83.4976 262.282 84.6088 264.962 84.6116 267.756L84.6531 350.198ZM29.9519 346.653H81.1297V267.756C81.1297 265.886 80.3876 264.092 79.0664 262.769C77.7451 261.446 75.9528 260.701 74.0829 260.699H37.0403C36.1112 260.696 35.1908 260.876 34.3316 261.23C33.4724 261.583 32.6913 262.102 32.0329 262.758C31.3746 263.413 30.8519 264.192 30.4948 265.05C30.1377 265.907 29.9532 266.827 29.9519 267.756V346.653Z" fill="white"/>
<path d="M59.6771 196.405H51.4766V355.78H59.6771V196.405Z" fill="#7694FF"/>
<path opacity="0.5" d="M59.6771 196.405H51.4766V355.78H59.6771V196.405Z" fill="white"/>
<path d="M23.4351 365.788H19.4024L18.5293 360.009H24.3081L23.4351 365.788Z" fill="#263238"/>
<path d="M91.7511 365.788H87.708L86.835 360.009H92.6138L91.7511 365.788Z" fill="#263238"/>
<path d="M94.5163 352.392H16.627V361.309H94.5163V352.392Z" fill="#263238"/>
<path opacity="0.5" d="M94.5163 352.392H16.627V361.309H94.5163V352.392Z" fill="white"/>
<path d="M97.3225 345.01H13.8311V353.709H97.3225V345.01Z" fill="#7694FF"/>
<path d="M76.1922 182.862C70.7233 177.396 63.3081 174.326 55.5766 174.326C47.845 174.326 40.4298 177.396 34.9609 182.862V188.058L47.6203 200.822C48.6599 199.781 49.8945 198.955 51.2534 198.392C52.6124 197.828 54.0691 197.538 55.5402 197.538C57.0113 197.538 58.468 197.828 59.8269 198.392C61.1859 198.955 62.4205 199.781 63.4601 200.822L76.161 188.131L76.1922 182.862Z" fill="#7694FF"/>
<path opacity="0.3" d="M76.1922 182.862C70.7233 177.396 63.3081 174.326 55.5766 174.326C47.845 174.326 40.4298 177.396 34.9609 182.862V188.058L47.6203 200.822C48.6599 199.781 49.8945 198.955 51.2534 198.392C52.6124 197.828 54.0691 197.538 55.5402 197.538C57.0113 197.538 58.468 197.828 59.8269 198.392C61.1859 198.955 62.4205 199.781 63.4601 200.822L76.161 188.131L76.1922 182.862Z" fill="black"/>
<path d="M63.4912 195.594C62.4516 194.553 61.217 193.727 59.8581 193.164C58.4991 192.6 57.0425 192.31 55.5714 192.31C54.1003 192.31 52.6436 192.6 51.2846 193.164C49.9257 193.727 48.6911 194.553 47.6515 195.594L34.9609 182.862C40.4298 177.396 47.845 174.326 55.5766 174.326C63.3081 174.326 70.7233 177.396 76.1922 182.862L63.4912 195.594Z" fill="#7694FF"/>
<path opacity="0.7" d="M38.0996 182.955L47.776 192.631C50.0516 191.009 52.7766 190.137 55.5712 190.137C58.3658 190.137 61.0908 191.009 63.3663 192.631L73.0427 182.955C68.1612 178.818 61.97 176.547 55.5712 176.547C49.1724 176.547 42.9811 178.818 38.0996 182.955Z" fill="white"/>
<path d="M52.485 190.428L49.159 180.95C49.0956 180.758 48.9587 180.599 48.7784 180.509C48.5981 180.418 48.3892 180.403 48.1976 180.466C48.006 180.53 47.8475 180.667 47.7569 180.847C47.6662 181.027 47.6509 181.236 47.7143 181.428L50.6661 191.083C51.2548 190.819 51.8629 190.6 52.485 190.428Z" fill="#263238"/>
<path d="M60.6646 306.606H22.4268V344.844H60.6646V306.606Z" fill="#263238"/>
<path opacity="0.7" d="M60.6646 306.606H22.4268V344.844H60.6646V306.606Z" fill="white"/>
<path d="M60.6645 344.855H77.71V306.618H60.6645V344.855Z" fill="#263238"/>
<path opacity="0.6" d="M60.6645 344.855H77.71V306.618H60.6645V344.855Z" fill="white"/>
<path opacity="0.7" d="M57.1825 332.467H43.9619V341.208H57.1825V332.467Z" fill="white"/>
<path d="M47.6001 334.348H46.6543V339.326H47.6001V334.348Z" fill="#263238"/>
<path d="M48.8258 334.348H48.3477V339.326H48.8258V334.348Z" fill="#263238"/>
<path d="M50.6143 334.348H49.3047V339.326H50.6143V334.348Z" fill="#263238"/>
<path d="M51.7261 334.348H51.248V339.326H51.7261V334.348Z" fill="#263238"/>
<path d="M52.942 334.348H52.4639V339.326H52.942V334.348Z" fill="#263238"/>
<path d="M54.4907 334.348H53.5449V339.326H54.4907V334.348Z" fill="#263238"/>
<path d="M79.6538 300.049H62.6084V308.551H79.6538V300.049Z" fill="#263238"/>
<path opacity="0.4" d="M79.6538 300.049H62.6084V308.551H79.6538V300.049Z" fill="white"/>
<path d="M62.6085 300.049H20.4834V308.551H62.6085V300.049Z" fill="#263238"/>
<path opacity="0.5" d="M62.6085 300.049H20.4834V308.551H62.6085V300.049Z" fill="white"/>
<path d="M73.8327 300.049H68.4385V312.438H73.8327V300.049Z" fill="#7694FF"/>
<path d="M73.8327 332.467H68.4385V344.856H73.8327V332.467Z" fill="#7694FF"/>
<path opacity="0.3" d="M73.8327 300.049H68.4385V312.438H73.8327V300.049Z" fill="white"/>
<path opacity="0.3" d="M73.8327 332.467H68.4385V344.856H73.8327V332.467Z" fill="white"/>
<path d="M257.373 163.021L257.238 165.298C257.186 166.088 257.124 166.888 257.062 167.688C256.906 169.289 256.75 170.9 256.563 172.5C256.189 175.722 255.721 178.934 255.16 182.135L254.37 186.521C254.297 186.823 252.353 186.521 251.013 186.022C249.593 185.449 248.206 184.8 246.855 184.079L243.966 187.467C244.564 188.175 245.206 188.845 245.889 189.473C246.566 190.122 247.284 190.726 248.04 191.282C248.84 191.875 249.688 192.4 250.576 192.851C251.621 193.389 252.743 193.761 253.902 193.953C254.646 194.063 255.403 194.063 256.147 193.953C257.043 193.831 257.908 193.538 258.693 193.09C259.494 192.623 260.199 192.01 260.772 191.282C261.248 190.67 261.637 189.995 261.926 189.276C262.061 188.953 262.175 188.631 262.269 188.33L262.383 187.945L262.466 187.633L262.82 186.376C263.059 185.544 263.277 184.702 263.485 183.861C264.316 180.493 265.002 177.094 265.512 173.644C265.761 171.918 265.979 170.193 266.125 168.447C266.198 167.574 266.27 166.701 266.322 165.817C266.374 164.934 266.395 164.082 266.406 163.063L257.373 163.021Z" fill="#FFB573"/>
<path d="M262.175 153.69C254.671 159.427 254.972 170.237 254.972 170.237L268.38 173.438C268.38 173.438 272.537 162.577 270.823 158.596C269.087 154.439 266.384 150.458 262.175 153.69Z" fill="#263238"/>
<path opacity="0.9" d="M262.175 153.69C254.671 159.427 254.972 170.237 254.972 170.237L268.38 173.438C268.38 173.438 272.537 162.577 270.823 158.596C269.087 154.439 266.384 150.458 262.175 153.69Z" fill="white"/>
<path d="M268.89 172.022L255.035 168.686C254.962 169.652 254.983 170.234 254.983 170.234L268.38 173.435C268.38 173.435 268.588 172.895 268.89 172.022Z" fill="#7694FF"/>
<path d="M296.89 357.673L289.188 358.411L285.478 340.462L293.19 339.724L296.89 357.673Z" fill="#FFB573"/>
<path d="M354.169 331.139L348.504 336.461L336.281 323.022L341.946 317.711L354.169 331.139Z" fill="#FFB573"/>
<path d="M345.916 333.914L350.167 326.243C350.24 326.111 350.357 326.009 350.498 325.956C350.639 325.903 350.794 325.901 350.936 325.952L357.484 328.447C357.647 328.515 357.793 328.617 357.913 328.746C358.034 328.874 358.126 329.027 358.184 329.193C358.242 329.36 358.264 329.537 358.249 329.713C358.234 329.888 358.182 330.059 358.097 330.213C356.569 332.864 355.696 334.07 353.825 337.489C352.672 339.568 350.427 344.318 348.836 347.186C347.246 350.055 344.336 348.631 344.741 347.29C346.56 341.303 346.217 337.936 345.698 335.338C345.593 334.852 345.67 334.345 345.916 333.914Z" fill="#263238"/>
<path d="M288.554 356.073H297.815C297.981 356.076 298.143 356.134 298.274 356.237C298.405 356.34 298.499 356.483 298.542 356.645L300.558 363.92C300.609 364.093 300.619 364.276 300.585 364.454C300.552 364.632 300.477 364.799 300.366 364.942C300.256 365.085 300.113 365.2 299.949 365.277C299.786 365.354 299.606 365.391 299.426 365.385C296.162 365.385 294.613 365.385 290.549 365.385H278.077C274.699 365.385 273.993 361.966 275.385 361.654C281.621 360.261 285.28 358.349 287.224 356.52C287.594 356.208 288.07 356.048 288.554 356.073Z" fill="#263238"/>
<path opacity="0.2" d="M285.478 340.47L287.39 349.721H295.247L293.19 339.732L285.478 340.47Z" fill="black"/>
<path opacity="0.2" d="M341.956 317.711L336.292 323.032L342.59 329.955L348.255 324.633L341.956 317.711Z" fill="black"/>
<path d="M272.412 199.047C272.412 199.047 261.728 246.317 268.858 279.639C273.639 301.954 283.627 345.856 283.627 345.856L297.139 345.503C297.139 345.503 291.339 299.376 288.637 280.772C284.022 248.947 295.58 197.052 295.58 197.052L272.412 199.047Z" fill="#263238"/>
<path opacity="0.4" d="M284.729 208.588L291.464 219.241C289.432 231.838 288.148 244.544 287.618 257.292C278.139 240.309 282.629 217.568 284.729 208.588Z" fill="black"/>
<path d="M283.108 347.738L299.748 347.312L298.781 342.198L281.809 342.999L283.108 347.738Z" fill="#263238"/>
<path d="M279.314 198.548C279.314 198.548 285.551 248.676 299.177 276.032C310.142 298.139 339.431 329.601 339.431 329.601L346.914 321.889C346.914 321.889 327.166 287.694 318.987 273.039C298.979 237.046 315.328 209.565 303.989 196.345L279.314 198.548Z" fill="#263238"/>
<path d="M338.672 330.64L348.338 321.224L345.126 316.858L334.878 327.086L338.672 330.64Z" fill="#263238"/>
<path d="M344.398 338.028C344.501 338.026 344.603 338.009 344.7 337.976C345.625 337.664 346.238 335.949 346.519 334.961C346.524 334.932 346.522 334.901 346.513 334.872C346.504 334.843 346.488 334.817 346.467 334.795C346.44 334.78 346.409 334.771 346.378 334.771C346.347 334.771 346.317 334.78 346.29 334.795C346.009 334.941 343.536 336.261 343.463 337.238C343.452 337.344 343.471 337.452 343.517 337.549C343.562 337.646 343.634 337.729 343.723 337.788C343.916 337.939 344.153 338.023 344.398 338.028ZM346.113 335.232C345.687 336.604 345.126 337.508 344.606 337.685C344.487 337.722 344.359 337.727 344.237 337.699C344.115 337.672 344.002 337.613 343.91 337.529C343.862 337.5 343.823 337.458 343.797 337.409C343.772 337.359 343.76 337.304 343.764 337.248C343.837 336.687 345.261 335.71 346.113 335.232Z" fill="#7694FF"/>
<path d="M344.015 335.65C344.858 335.648 345.69 335.453 346.447 335.079C346.471 335.066 346.491 335.046 346.504 335.022C346.517 334.998 346.522 334.971 346.519 334.943C346.519 334.918 346.512 334.893 346.5 334.871C346.487 334.85 346.469 334.831 346.447 334.819C346.364 334.767 344.368 333.696 343.329 334.07C343.197 334.111 343.077 334.181 342.976 334.274C342.875 334.368 342.797 334.483 342.747 334.611C342.68 334.735 342.658 334.878 342.685 335.016C342.711 335.154 342.784 335.279 342.892 335.37C343.222 335.592 343.619 335.691 344.015 335.65ZM346.031 334.954C345.189 335.307 343.568 335.525 343.11 335.141C343.027 335.079 342.954 334.964 343.058 334.725C343.091 334.64 343.143 334.563 343.209 334.5C343.276 334.437 343.356 334.389 343.443 334.361C344.343 334.27 345.249 334.466 346.031 334.923V334.954Z" fill="#7694FF"/>
<path d="M284.449 357.581C285.3 357.559 286.146 357.451 286.975 357.259C287.005 357.251 287.032 357.234 287.053 357.209C287.073 357.185 287.086 357.155 287.089 357.124C287.094 357.093 287.089 357.06 287.074 357.032C287.059 357.004 287.035 356.981 287.006 356.968C286.621 356.791 283.264 355.232 282.422 355.804C282.344 355.855 282.282 355.927 282.243 356.011C282.205 356.096 282.191 356.19 282.204 356.282C282.208 356.453 282.251 356.621 282.331 356.772C282.41 356.924 282.523 357.055 282.661 357.155C283.201 357.474 283.824 357.622 284.449 357.581ZM286.445 357.051C285.405 357.238 283.607 357.477 282.838 356.906C282.737 356.831 282.654 356.734 282.597 356.622C282.539 356.511 282.508 356.387 282.505 356.261C282.497 356.224 282.501 356.185 282.516 356.15C282.531 356.114 282.556 356.084 282.589 356.064C283.067 355.742 285.052 356.438 286.445 357.051Z" fill="#7694FF"/>
<path d="M286.943 357.258H287.037C287.049 357.233 287.055 357.207 287.055 357.18C287.055 357.153 287.049 357.126 287.037 357.102C287.037 356.956 286.247 353.651 284.418 353.859C283.96 353.911 283.836 354.14 283.815 354.316C283.701 355.169 285.821 356.863 286.829 357.279L286.943 357.258ZM284.636 354.14C285.8 354.14 286.476 356.062 286.715 356.832C285.675 356.26 284.106 354.878 284.179 354.337C284.179 354.337 284.179 354.181 284.522 354.14H284.636Z" fill="#7694FF"/>
<path d="M247.302 184.61L242.365 179.684L239.715 187.396C239.715 187.396 243.872 189.641 247.853 187.52L247.302 184.61Z" fill="#FFB573"/>
<path d="M235.547 178.925L234.643 185.015L239.715 187.396L242.365 179.684L235.547 178.925Z" fill="#FFB573"/>
<path d="M264.43 152.577C264.43 152.577 261.042 154.063 272.413 199.047L303.988 196.313C302.346 183.508 301.65 175.588 305.506 148.68C301.022 148.154 296.507 147.952 291.994 148.077C287.19 148.143 282.396 148.556 277.651 149.314C273.191 150.174 268.779 151.263 264.43 152.577Z" fill="#263238"/>
<path opacity="0.9" d="M264.43 152.577C264.43 152.577 261.042 154.063 272.413 199.047L303.988 196.313C302.346 183.508 301.65 175.588 305.506 148.68C301.022 148.154 296.507 147.952 291.994 148.077C287.19 148.143 282.396 148.556 277.651 149.314C273.191 150.174 268.779 151.263 264.43 152.577Z" fill="white"/>
<path d="M291.952 147.848C291.952 147.848 293.74 147.848 295.86 147.848C297.128 149.812 292.327 156.298 286.423 159.416C284.781 154.292 280.665 156.059 280.665 156.059L291.952 147.848Z" fill="#263238"/>
<path opacity="0.9" d="M291.952 147.848C291.952 147.848 293.74 147.848 295.86 147.848C297.128 149.812 292.327 156.298 286.423 159.416C284.781 154.292 280.665 156.059 280.665 156.059L291.952 147.848Z" fill="white"/>
<path d="M277.609 149.2C277.609 149.2 276.809 149.315 274.907 149.751C273.629 151.715 272.413 155 276.165 159.272C277.62 154.002 280.665 156.091 280.665 156.091L277.609 149.2Z" fill="#263238"/>
<path opacity="0.9" d="M277.609 149.2C277.609 149.2 276.809 149.315 274.907 149.751C273.629 151.715 272.413 155 276.165 159.272C277.62 154.002 280.665 156.091 280.665 156.091L277.609 149.2Z" fill="white"/>
<path d="M274.907 149.749C273.629 151.714 272.413 154.998 276.165 159.27C277.62 154 280.665 156.089 280.665 156.089L280.145 154.915C279.675 154.782 279.18 154.756 278.698 154.84C278.216 154.923 277.759 155.113 277.361 155.396C276.962 155.679 276.631 156.048 276.394 156.476C276.156 156.903 276.018 157.379 275.988 157.867C275.144 156.673 274.654 155.265 274.575 153.805C274.496 152.345 274.831 150.892 275.541 149.614L274.907 149.749Z" fill="#7694FF"/>
<path d="M295.86 147.879H294.987C294.903 149.201 294.489 150.48 293.782 151.6C291.848 154.998 286.984 157.929 286.984 157.929C286.641 156.973 285.991 156.158 285.135 155.611C284.28 155.064 283.267 154.815 282.255 154.905L280.634 156.09C280.634 156.09 284.791 154.323 286.392 159.447C292.327 156.329 297.128 149.843 295.86 147.879Z" fill="#7694FF"/>
<path d="M304.8 148.315C303.901 147.209 303.197 145.958 302.721 144.615C303.828 146.09 305.101 147.433 306.515 148.616C307.675 148.788 308.845 148.889 310.017 148.918C307.71 147.311 305.748 145.258 304.249 142.88C302.749 140.502 301.742 137.848 301.287 135.073C299.977 125.906 293.304 127.621 293.304 127.621L291.725 130.324C291.725 130.324 292.868 138.638 296.36 143.742C297.173 144.874 298.241 145.8 299.478 146.444C298.273 144.492 297.54 142.285 297.337 140C298.403 142.777 299.975 145.332 301.973 147.535C302.898 147.854 303.842 148.114 304.8 148.315Z" fill="#263238"/>
<path d="M293.314 127.621L291.734 130.323C291.734 130.323 291.89 131.477 292.275 133.192C293.462 131.421 294.435 129.516 295.175 127.517C294.553 127.457 293.926 127.492 293.314 127.621Z" fill="#7694FF"/>
<path d="M289.125 132.051C288.626 136.738 288.45 145.271 291.952 148.078C288.551 151.224 284.757 153.918 280.665 156.091C275.177 152.297 277.609 149.314 277.609 149.314C282.65 147.641 282.182 143.837 280.977 140.324L289.125 132.051Z" fill="#FFB573"/>
<path opacity="0.2" d="M285.811 135.429L280.978 140.324C281.272 141.138 281.494 141.976 281.643 142.829C283.586 142.372 286.393 140.355 286.424 138.287C286.393 137.305 286.185 136.337 285.811 135.429Z" fill="black"/>
<path d="M281.674 116.2C281.674 116.2 276.414 123.475 275.552 126.78C271.966 128.859 271.238 118.58 273.14 112.229C279.034 115.898 281.674 116.2 281.674 116.2Z" fill="#263238"/>
<path opacity="0.5" d="M281.674 116.2C281.674 116.2 276.414 123.475 275.552 126.78C271.966 128.859 271.238 118.58 273.14 112.229C279.034 115.898 281.674 116.2 281.674 116.2Z" fill="black"/>
<path d="M293.263 124.722C291.298 132.216 290.633 135.427 286.039 138.566C279.117 143.295 270.345 139.252 270.023 131.29C269.732 124.15 272.985 113.091 280.998 111.543C282.768 111.188 284.599 111.293 286.317 111.847C288.035 112.4 289.582 113.385 290.812 114.706C292.042 116.028 292.912 117.642 293.341 119.395C293.77 121.148 293.743 122.982 293.263 124.722Z" fill="#FFB573"/>
<path d="M297.337 121.729C297.337 121.729 293.564 127.83 293.065 130.48C290.331 132.34 289.178 124.244 290.331 119.047C291.589 114.516 297.337 121.729 297.337 121.729Z" fill="#263238"/>
<path d="M275.594 110.953C277.808 107.887 285.863 106.619 292.847 111.213C299.146 115.37 298.74 124.943 293.731 124.434C288.721 123.924 283.784 118.052 283.784 118.052L275.594 110.953Z" fill="#263238"/>
<path d="M293.875 131.487C293.174 132.808 291.978 133.798 290.549 134.241C288.647 134.813 287.66 133.119 288.159 131.31C288.595 129.678 290.123 127.413 292.046 127.631C292.466 127.688 292.865 127.848 293.208 128.098C293.55 128.348 293.824 128.68 294.006 129.063C294.188 129.446 294.271 129.868 294.248 130.292C294.225 130.715 294.097 131.126 293.875 131.487Z" fill="#FFB573"/>
<path d="M280.572 124.463C280.447 125.076 280.021 125.502 279.616 125.44C279.21 125.377 278.992 124.795 279.106 124.172C279.221 123.548 279.657 123.132 280.063 123.195C280.468 123.257 280.697 123.839 280.572 124.463Z" fill="#263238"/>
<path d="M273.588 123.092C273.473 123.705 273.047 124.131 272.642 124.069C272.237 124.006 272.008 123.424 272.133 122.801C272.257 122.177 272.673 121.761 273.079 121.824C273.484 121.886 273.713 122.468 273.588 123.092Z" fill="#263238"/>
<path d="M273.255 121.896L271.852 121.179C271.852 121.179 272.382 122.488 273.255 121.896Z" fill="#263238"/>
<path d="M275.572 124.659C274.746 125.96 273.746 127.142 272.6 128.172C272.866 128.452 273.19 128.672 273.548 128.817C273.907 128.962 274.292 129.029 274.678 129.014L275.572 124.659Z" fill="#ED893E"/>
<path d="M276.747 131.935C278.046 131.95 279.302 131.471 280.26 130.594C280.276 130.58 280.288 130.563 280.296 130.545C280.305 130.526 280.309 130.505 280.309 130.485C280.309 130.464 280.305 130.444 280.296 130.425C280.288 130.406 280.276 130.389 280.26 130.376C280.231 130.347 280.192 130.331 280.151 130.331C280.11 130.331 280.071 130.347 280.042 130.376C279.448 130.894 278.741 131.267 277.978 131.464C277.215 131.661 276.416 131.676 275.645 131.509C275.624 131.5 275.601 131.497 275.578 131.499C275.555 131.5 275.532 131.507 275.512 131.519C275.492 131.53 275.475 131.546 275.462 131.564C275.449 131.583 275.44 131.605 275.436 131.628C275.432 131.65 275.433 131.674 275.439 131.696C275.445 131.718 275.456 131.739 275.472 131.756C275.487 131.773 275.505 131.787 275.526 131.797C275.547 131.806 275.57 131.811 275.593 131.81C275.973 131.891 276.359 131.932 276.747 131.935Z" fill="#263238"/>
<path d="M284.76 122.061C284.815 122.063 284.869 122.05 284.917 122.024C284.965 121.998 285.005 121.96 285.032 121.913C285.06 121.866 285.074 121.812 285.074 121.758C285.074 121.703 285.059 121.65 285.031 121.603C284.743 121.102 284.341 120.677 283.856 120.363C283.372 120.048 282.82 119.854 282.245 119.795C282.164 119.797 282.086 119.829 282.027 119.885C281.967 119.94 281.93 120.015 281.923 120.096C281.923 120.177 281.954 120.255 282.01 120.313C282.067 120.371 282.143 120.405 282.224 120.408C282.695 120.465 283.146 120.631 283.541 120.892C283.936 121.154 284.264 121.504 284.5 121.915C284.528 121.959 284.567 121.996 284.612 122.021C284.657 122.046 284.708 122.06 284.76 122.061Z" fill="#263238"/>
<path d="M271.654 119.589C271.702 119.6 271.752 119.6 271.8 119.589C272.208 119.348 272.666 119.206 273.139 119.173C273.612 119.141 274.086 119.219 274.523 119.402C274.558 119.422 274.597 119.434 274.637 119.439C274.678 119.443 274.718 119.44 274.757 119.428C274.796 119.416 274.832 119.397 274.863 119.371C274.894 119.345 274.92 119.313 274.938 119.277C274.976 119.205 274.984 119.122 274.96 119.044C274.937 118.966 274.885 118.901 274.814 118.861C274.286 118.627 273.71 118.522 273.133 118.555C272.557 118.587 271.996 118.756 271.498 119.049C271.463 119.068 271.432 119.094 271.407 119.126C271.382 119.157 271.364 119.194 271.354 119.232C271.343 119.271 271.34 119.312 271.345 119.351C271.351 119.391 271.364 119.43 271.384 119.464C271.414 119.507 271.454 119.542 271.502 119.564C271.549 119.586 271.602 119.594 271.654 119.589Z" fill="#263238"/>
<path d="M280.229 123.267L278.836 122.55C278.836 122.55 279.397 123.859 280.229 123.267Z" fill="#263238"/>
<path d="M287.837 108.489C287.837 108.489 271.862 102.679 269.004 116.346C269.493 116.239 269.99 116.17 270.49 116.138C271.013 114.679 271.918 113.387 273.109 112.396C272.468 113.579 271.936 114.817 271.519 116.097C274.956 116.1 278.341 116.938 281.383 118.539C281.836 117.711 282.43 116.969 283.139 116.346C283.139 116.346 282.713 117.676 282.349 119.059C283.464 119.676 284.533 120.371 285.55 121.137C285.55 121.137 291.173 118.009 287.837 108.489Z" fill="#263238"/>
<path d="M276.539 108.758C276.539 108.758 292.368 110.837 296.744 123.59C296.744 123.59 305.423 115.462 296.744 107.657C285.124 97.2942 276.539 108.758 276.539 108.758Z" fill="#263238"/>
<path opacity="0.9" d="M276.539 108.758C276.539 108.758 292.368 110.837 296.744 123.59C296.744 123.59 305.423 115.462 296.744 107.657C285.124 97.2942 276.539 108.758 276.539 108.758Z" fill="white"/>
<path d="M276.539 108.758C276.539 108.758 285.373 109.943 291.672 115.836C291.672 115.836 278.971 100.09 271.373 103.447C266.312 105.682 276.539 108.758 276.539 108.758Z" fill="#263238"/>
<path opacity="0.6" d="M276.539 108.758C276.539 108.758 285.373 109.943 291.672 115.836C291.672 115.836 278.971 100.09 271.373 103.447C266.312 105.682 276.539 108.758 276.539 108.758Z" fill="white"/>
<path d="M293.553 107.782C294.416 109.861 293.688 112.49 291.474 115.629L292.202 116.325C294.738 112.833 295.528 109.829 294.509 107.397C293.963 106.188 293.074 105.165 291.952 104.456C290.2 103.633 288.273 103.251 286.34 103.344C287.982 103.666 292.285 104.768 293.553 107.782Z" fill="#7694FF"/>
<path d="M243.956 164.146H224.291V183.81H243.956V164.146Z" fill="#263238"/>
<path opacity="0.9" d="M243.956 164.146H224.291V183.81H243.956V164.146Z" fill="white"/>
<path d="M243.955 183.81H252.717V164.145H243.955V183.81Z" fill="#263238"/>
<path opacity="0.8" d="M243.955 183.81H252.717V164.145H243.955V183.81Z" fill="white"/>
<path opacity="0.7" d="M242.167 177.438H235.37V181.929H242.167V177.438Z" fill="white"/>
<path d="M237.241 178.405H236.753V180.962H237.241V178.405Z" fill="#263238"/>
<path d="M237.854 178.405H237.615V180.962H237.854V178.405Z" fill="#263238"/>
<path d="M238.79 178.405H238.114V180.962H238.79V178.405Z" fill="#263238"/>
<path d="M239.351 178.405H239.112V180.962H239.351V178.405Z" fill="#263238"/>
<path d="M239.974 178.405H239.735V180.962H239.974V178.405Z" fill="#263238"/>
<path d="M240.775 178.405H240.286V180.962H240.775V178.405Z" fill="#263238"/>
<path d="M253.715 160.77H244.953V165.145H253.715V160.77Z" fill="#263238"/>
<path opacity="0.4" d="M253.715 160.77H244.953V165.145H253.715V160.77Z" fill="white"/>
<path d="M244.953 160.77H223.293V165.145H244.953V160.77Z" fill="#263238"/>
<path opacity="0.5" d="M244.953 160.77H223.293V165.145H244.953V160.77Z" fill="white"/>
<path d="M250.721 160.77H247.946V167.141H250.721V160.77Z" fill="#7694FF"/>
<path d="M250.721 177.438H247.946V183.81H250.721V177.438Z" fill="#7694FF"/>
<path opacity="0.3" d="M250.721 160.77H247.946V167.141H250.721V160.77Z" fill="white"/>
<path opacity="0.3" d="M250.721 177.438H247.946V183.81H250.721V177.438Z" fill="white"/>
<path d="M278.972 178.966L281.186 188.767L280.198 189.754H286.476L282.048 178.27L278.972 178.966Z" fill="#263238"/>
<path opacity="0.5" d="M282.048 178.27L278.93 178.956L279.304 180.65C280.469 180.599 281.629 180.463 282.775 180.244L282.048 178.27Z" fill="black"/>
<path d="M278.015 173.385C276.357 173.376 274.703 173.537 273.078 173.863V179.185C274.703 179.511 276.357 179.672 278.015 179.663C283.212 179.663 287.369 178.249 287.369 176.545C287.369 174.84 283.191 173.385 278.015 173.385Z" fill="#263238"/>
<path d="M278.015 173.385C276.357 173.376 274.703 173.537 273.078 173.863V179.185C274.703 179.511 276.357 179.672 278.015 179.663C283.212 179.663 287.369 178.249 287.369 176.545C287.369 174.84 283.191 173.385 278.015 173.385Z" fill="#263238"/>
<path d="M273.91 173.71C273.629 173.762 273.348 173.803 273.078 173.866V179.187L273.91 179.333V173.71Z" fill="#7694FF"/>
<path d="M307.668 155.019L308.499 155.86L309.216 156.64C309.674 157.16 310.12 157.679 310.547 158.23C311.409 159.27 312.22 160.392 312.979 161.515C314.486 163.784 315.82 166.164 316.97 168.634C318.132 171.112 319.058 173.694 319.734 176.346C320.086 177.675 320.371 179.021 320.587 180.379C321.061 182.479 320.808 184.678 319.87 186.615C319.314 187.648 318.549 188.554 317.625 189.276C316.853 189.876 315.999 190.363 315.089 190.72C313.602 191.29 312.04 191.64 310.453 191.76C307.717 191.988 304.964 191.922 302.242 191.562C297.102 190.891 292.041 189.718 287.13 188.06L288.221 183.746C293.014 184.458 297.845 184.875 302.689 184.994C304.948 185.052 307.207 184.892 309.434 184.515C310.331 184.356 311.204 184.083 312.033 183.705C312.896 183.185 312.646 182.281 311.659 178.674C310.958 176.526 310.078 174.44 309.029 172.438C308.006 170.404 306.828 168.451 305.506 166.597C304.872 165.651 304.196 164.737 303.489 163.853C303.136 163.417 302.783 162.98 302.45 162.575L301.92 161.951L301.452 161.442L307.668 155.019Z" fill="#FFB573"/>
<path d="M290.082 184.828L283.918 181.564L283.638 189.723C283.638 189.723 287.993 189.994 290.549 187.998L290.082 184.828Z" fill="#FFB573"/>
<path d="M278.69 182.604L279.615 188.694L283.638 189.723L283.918 181.564L278.69 182.604Z" fill="#FFB573"/>
<path d="M305.506 148.678C309.383 149.364 314.809 160.464 314.809 160.464L305.049 169.288C305.049 169.288 297.285 160.828 297.701 155.777C298.106 151.494 300.58 147.805 305.506 148.678Z" fill="#263238"/>
<path opacity="0.9" d="M305.506 148.678C309.383 149.364 314.809 160.464 314.809 160.464L305.049 169.288C305.049 169.288 297.285 160.828 297.701 155.777C298.106 151.494 300.58 147.805 305.506 148.678Z" fill="white"/>
<path d="M314.081 159.054L304.093 168.19C304.664 168.876 305.049 169.291 305.049 169.291L314.809 160.467C314.809 160.467 314.538 159.916 314.081 159.054Z" fill="#7694FF"/>
<path d="M150.392 365.562H329.899V217.444L150.392 217.444L150.392 365.562Z" fill="#7694FF"/>
<path d="M329.9 365.562H375.091V217.444H329.9V365.562Z" fill="#7694FF"/>
<path opacity="0.2" d="M329.9 365.562H375.091V217.444H329.9V365.562Z" fill="white"/>
<path d="M150.392 365.562H329.899V217.444L150.392 217.444L150.392 365.562Z" fill="black"/>
<path d="M150.392 365.562H329.899V217.444L150.392 217.444L150.392 365.562Z" fill="#7694FF"/>
<path opacity="0.4" d="M150.392 365.562H329.899V217.444L150.392 217.444L150.392 365.562Z" fill="white"/>
<path d="M326.574 217.444H379.404V209.171H326.574V217.444Z" fill="#263238"/>
<path d="M146.079 217.444L326.573 217.444V209.171L146.079 209.171V217.444Z" fill="#263238"/>
<path opacity="0.3" d="M146.079 217.444L326.573 217.444V209.171L146.079 209.171V217.444Z" fill="white"/>
<path opacity="0.2" d="M375.091 217.444H329.899V223.805H375.091V217.444Z" fill="#263238"/>
<path opacity="0.2" d="M329.9 217.444H150.393V223.805H329.9V217.444Z" fill="#263238"/>
<path opacity="0.7" d="M329.9 247.421H150.393V284.671H329.9V247.421Z" fill="white"/>
<path opacity="0.4" d="M329.9 284.683H375.091V247.432H329.9V284.683Z" fill="white"/>
<path d="M156.338 360.139C157.231 360.139 158.104 360.014 158.416 359.609C158.493 359.505 158.535 359.379 158.535 359.25C158.535 359.121 158.493 358.996 158.416 358.892C158.363 358.794 158.289 358.709 158.199 358.642C158.109 358.576 158.006 358.53 157.897 358.507C156.733 358.185 154.29 359.547 154.186 359.64C154.156 359.655 154.132 359.68 154.117 359.71C154.102 359.739 154.097 359.773 154.103 359.806C154.11 359.84 154.127 359.87 154.151 359.894C154.175 359.918 154.205 359.934 154.238 359.942C154.931 360.07 155.633 360.136 156.338 360.139ZM157.45 358.788C157.553 358.777 157.658 358.777 157.762 358.788C157.899 358.821 158.019 358.907 158.094 359.027C158.208 359.224 158.167 359.328 158.094 359.391C157.761 359.838 156.015 359.848 154.706 359.671C155.554 359.2 156.486 358.9 157.45 358.788Z" fill="#7694FF"/>
<path d="M154.228 359.952H154.301C155.143 359.578 156.806 358.06 156.681 357.281C156.681 357.094 156.525 356.865 156.068 356.813C155.904 356.796 155.739 356.812 155.582 356.861C155.425 356.909 155.279 356.988 155.153 357.094C154.516 357.855 154.135 358.796 154.062 359.786C154.06 359.816 154.066 359.845 154.079 359.873C154.092 359.9 154.111 359.923 154.134 359.942L154.228 359.952ZM155.933 357.115H156.036C156.327 357.115 156.348 357.26 156.359 357.302C156.431 357.769 155.319 358.954 154.436 359.474C154.517 358.679 154.84 357.928 155.361 357.322C155.52 357.187 155.723 357.113 155.933 357.115Z" fill="#7694FF"/>
<path d="M146.557 359.785H153.531L154.227 343.612H147.243L146.557 359.785Z" fill="#CE7A63"/>
<path d="M153.49 358.976H145.861C145.723 358.977 145.589 359.025 145.482 359.112C145.374 359.198 145.299 359.319 145.268 359.454L143.886 365.69C143.857 365.842 143.862 365.999 143.9 366.148C143.939 366.298 144.011 366.438 144.111 366.556C144.21 366.675 144.335 366.769 144.476 366.834C144.617 366.898 144.771 366.929 144.926 366.927C147.68 366.927 151.65 366.719 155.111 366.719C159.144 366.719 162.636 366.937 167.376 366.937C170.244 366.937 171.045 364.048 169.839 363.819C164.382 362.624 159.923 362.499 155.205 359.589C154.702 359.227 154.108 359.015 153.49 358.976Z" fill="#263238"/>
<path opacity="0.2" d="M146.838 353.112H153.822L154.228 343.612H147.243L146.838 353.112Z" fill="black"/>
<path d="M105.679 358.963C105.96 359.066 106.258 359.111 106.557 359.095C106.855 359.079 107.147 359.002 107.415 358.869C107.519 358.774 107.591 358.649 107.619 358.51C107.647 358.372 107.63 358.228 107.571 358.1C107.541 357.993 107.487 357.895 107.413 357.812C107.34 357.729 107.248 357.664 107.145 357.622C106.209 357.165 104.027 358.048 103.944 358.09C103.916 358.103 103.893 358.124 103.876 358.15C103.86 358.175 103.851 358.205 103.85 358.235C103.847 358.268 103.855 358.3 103.872 358.328C103.889 358.356 103.914 358.378 103.944 358.391C104.5 358.645 105.082 358.836 105.679 358.963ZM106.812 357.851L107.01 357.913C107.068 357.941 107.12 357.98 107.163 358.028C107.206 358.076 107.239 358.133 107.259 358.194C107.342 358.495 107.259 358.589 107.197 358.62C106.823 358.942 105.43 358.62 104.453 358.256C105.215 357.937 106.04 357.798 106.864 357.851H106.812Z" fill="#7694FF"/>
<path d="M103.974 358.403H104.057C104.847 358.175 106.531 356.969 106.552 356.179C106.557 356.056 106.518 355.935 106.442 355.838C106.365 355.74 106.257 355.674 106.136 355.649C106.017 355.604 105.889 355.585 105.761 355.594C105.634 355.603 105.51 355.639 105.398 355.701C104.463 356.179 103.881 358.112 103.85 358.195C103.837 358.221 103.83 358.25 103.83 358.279C103.83 358.307 103.837 358.336 103.85 358.362L103.974 358.403ZM105.949 355.94H106.022C106.23 356.002 106.23 356.106 106.23 356.148C106.23 356.616 105.097 357.561 104.286 357.936C104.499 357.17 104.942 356.488 105.554 355.982C105.676 355.918 105.817 355.903 105.949 355.94Z" fill="#7694FF"/>
<path d="M96.1895 356.553L103.018 358.029L109.867 342.969L103.039 341.493L96.1895 356.553Z" fill="#CE7A63"/>
<path d="M103.673 357.342L96.0029 355.679C95.868 355.651 95.7274 355.669 95.6044 355.731C95.4815 355.794 95.3837 355.896 95.3273 356.022L92.6665 361.791C92.6045 361.932 92.5748 362.086 92.5796 362.24C92.5844 362.395 92.6236 362.546 92.6942 362.683C92.7649 362.821 92.8653 362.941 92.9882 363.034C93.1111 363.128 93.2533 363.193 93.4045 363.225C96.086 363.755 97.4164 363.88 100.794 364.607C102.873 365.065 107.55 366.198 110.408 366.821C113.267 367.445 114.264 364.69 113.142 364.181C108.143 361.895 106.043 359.878 104.692 357.997C104.443 357.662 104.081 357.429 103.673 357.342Z" fill="#263238"/>
<path opacity="0.2" d="M98.9756 350.421L105.825 351.845L109.868 342.969L103.039 341.493L98.9756 350.421Z" fill="black"/>
<path d="M156.69 96.5072C156.815 97.11 157.241 97.5465 157.636 97.453C158.031 97.3595 158.26 96.819 158.135 96.2058C158.01 95.5925 157.584 95.1664 157.189 95.26C156.794 95.3535 156.576 95.894 156.69 96.5072Z" fill="#263238"/>
<path d="M157.189 97.5459C158.289 99.2542 159.618 100.803 161.139 102.15C160.787 102.532 160.354 102.832 159.873 103.028C159.391 103.224 158.873 103.311 158.354 103.283L157.189 97.5459Z" fill="#BA4D3C"/>
<path d="M153.791 93.5849C153.744 93.5854 153.698 93.5764 153.656 93.5585C153.613 93.5407 153.574 93.5143 153.541 93.481C153.475 93.413 153.438 93.3216 153.438 93.2263C153.438 93.1311 153.475 93.0397 153.541 92.9717C153.926 92.5354 154.411 92.1981 154.953 91.9882C155.496 91.7784 156.081 91.7022 156.66 91.766C156.706 91.7735 156.751 91.7904 156.791 91.8155C156.831 91.8406 156.866 91.8735 156.893 91.9123C156.92 91.9511 156.939 91.9949 156.949 92.0412C156.959 92.0875 156.96 92.1353 156.951 92.1818C156.935 92.2768 156.883 92.3619 156.805 92.4184C156.727 92.4749 156.63 92.4982 156.535 92.4832C156.079 92.4411 155.621 92.5078 155.196 92.6776C154.771 92.8475 154.393 93.1157 154.092 93.4602C154.056 93.5044 154.01 93.5389 153.957 93.5607C153.905 93.5824 153.848 93.5908 153.791 93.5849Z" fill="#263238"/>
<path d="M139.396 105.041C140.498 110.664 141.599 120.964 137.66 124.716C137.66 124.716 139.198 130.422 149.644 130.422C161.129 130.422 155.132 124.716 155.132 124.716C148.896 123.219 149.031 118.573 150.122 114.198L139.396 105.041Z" fill="#CE7A63"/>
<path d="M136.091 123.851C135.332 122.438 134.49 120.816 136.226 120.307C138.138 119.746 150.424 118.706 154.03 119.756C152.918 121.731 154.799 124.153 154.799 124.153L136.091 123.851Z" fill="#7694FF"/>
<path opacity="0.2" d="M136.091 123.852L154.799 124.153C154.164 123.298 153.779 122.284 153.687 121.223C148.494 120.935 143.289 120.935 138.097 121.223C137.12 121.223 136.132 121.347 135.155 121.441C135.279 122.305 135.599 123.13 136.091 123.852Z" fill="#263238"/>
<path d="M136.174 99.3338C138.149 106.703 138.928 111.11 143.449 114.176C150.288 118.78 158.801 113.49 159.04 105.684C159.279 98.6583 156.015 87.797 148.106 86.3107C146.368 85.9831 144.575 86.1044 142.897 86.6631C141.219 87.2217 139.712 88.1993 138.517 89.5032C137.323 90.8071 136.48 92.3943 136.07 94.1145C135.66 95.8348 135.696 97.6312 136.174 99.3338Z" fill="#CE7A63"/>
<path opacity="0.21" d="M139.562 111.338C142.68 113.136 154.113 107.181 151.764 98.0657C151.764 98.0657 156.109 92.8689 155.62 87.0693C155.132 81.2697 151.172 79.0974 146.952 80.3343C143.242 81.4256 143.346 83.4523 143.346 83.4523C143.346 83.4523 125.791 85.5311 129.533 92.661C122.392 100.456 135.654 109.072 139.562 111.338Z" fill="#263238"/>
<path opacity="0.21" d="M130.032 93.2519C130.032 93.2519 127.953 89.635 124.887 91.6617C126.321 91.6825 128.691 91.932 130.032 93.2519Z" fill="#263238"/>
<path opacity="0.21" d="M155.059 90.8733C155.059 90.8733 158.895 82.2259 152.929 79.4404C154.038 81.1032 154.799 82.9736 155.165 84.9387C155.531 86.9037 155.495 88.9226 155.059 90.8733Z" fill="#263238"/>
<path d="M152.429 182.189C152.429 182.189 144.509 235.55 140.154 255.537C135.394 277.426 109.857 349.848 109.857 349.848L97.3848 347.135C97.3848 347.135 115.251 288.121 119.211 257.522C122.329 234.012 128.337 182.189 128.337 182.189H152.429Z" fill="#263238"/>
<path d="M112.851 345.671C112.903 345.671 110.523 350.192 110.523 350.192L96.4707 347.147L97.6556 342.917L112.851 345.671Z" fill="#263238"/>
<path opacity="0.3" d="M147.399 201.199C138.243 202.997 139.209 237.16 140.311 254.736C142.961 242.316 146.828 218.41 149.468 201.448C148.825 201.137 148.097 201.05 147.399 201.199Z" fill="black"/>
<path d="M164.798 182.189C164.798 182.189 165.754 234.396 164.995 255.682C164.205 277.831 156.472 350.336 156.472 350.336H144.645C144.645 350.336 144.208 279.12 143.688 257.376C143.106 233.669 140.248 182.189 140.248 182.189H164.798Z" fill="#263238"/>
<path d="M158.749 345.629C158.801 345.629 158.083 350.535 158.083 350.535H143.699L143.304 346.159L158.749 345.629Z" fill="#263238"/>
<path opacity="0.4" d="M112.851 345.671C112.903 345.671 110.523 350.192 110.523 350.192L96.4707 347.147L97.6556 342.917L112.851 345.671Z" fill="white"/>
<path opacity="0.4" d="M158.749 345.629C158.801 345.629 158.083 350.535 158.083 350.535H143.699L143.304 346.159L158.749 345.629Z" fill="white"/>
<path d="M132.131 135.367L129.387 140.138L126.705 145.013C124.938 148.266 123.244 151.54 121.706 154.835C120.937 156.487 120.199 158.129 119.534 159.782L119.409 160.083L119.326 160.198C119.276 160.271 119.231 160.347 119.191 160.426C119.11 160.773 119.139 161.136 119.274 161.466C119.781 162.75 120.541 163.92 121.508 164.906C122.662 166.154 123.887 167.334 125.177 168.44L122.87 173.366C121.808 173.093 120.766 172.746 119.752 172.327C118.746 171.902 117.77 171.409 116.831 170.851C114.673 169.613 112.822 167.905 111.416 165.852C110.549 164.521 109.968 163.023 109.712 161.455C109.603 160.586 109.603 159.706 109.712 158.836C109.756 158.402 109.829 157.972 109.93 157.547L110.096 156.913L110.211 156.539C110.824 154.585 111.448 152.662 112.196 150.802C113.626 147.102 115.242 143.477 117.039 139.941C117.923 138.184 118.837 136.448 119.814 134.744C120.791 133.039 121.737 131.355 122.86 129.609L132.131 135.367Z" fill="#CE7A63"/>
<path d="M122.725 168.015L127.714 166.716L128.005 174.781C128.005 174.781 124.097 175.363 121.706 172.973L122.725 168.015Z" fill="#CE7A63"/>
<path d="M134.792 165.352L133.669 172.43L128.005 174.779L127.714 166.713L134.792 165.352Z" fill="#CE7A63"/>
<path d="M125.656 124.485C119.108 125.982 113.714 142.694 113.714 142.694L126.851 152.724C130.255 149.102 132.658 144.657 133.825 139.826C136.07 131.043 132.339 122.947 125.656 124.485Z" fill="#7694FF"/>
<path opacity="0.2" d="M131.257 136.771C127.703 140.284 126.549 146.696 126.269 152.257L126.851 152.704C130.255 149.083 132.659 144.637 133.825 139.805C133.956 139.279 134.071 138.759 134.168 138.246L131.257 136.771Z" fill="black"/>
<path d="M164.766 124.85C164.766 124.85 172.198 133.238 165.182 185.195H127.838C127.578 179.458 131.185 151.5 125.655 124.487C129.774 123.69 133.94 123.162 138.128 122.907C143.417 122.6 148.72 122.6 154.009 122.907C157.64 123.274 161.236 123.924 164.766 124.85Z" fill="#7694FF"/>
<path opacity="0.2" d="M168.03 140.72L167.885 140.596L159.404 142.674C158.915 148.412 164.819 155.282 167.853 158.41C168.237 152.521 168.296 146.616 168.03 140.72Z" fill="black"/>
<path d="M168.383 131.118C169.423 132.781 170.67 134.652 171.886 136.388C173.102 138.123 174.37 139.88 175.68 141.584C178.174 144.913 180.956 148.015 183.994 150.856C184.722 151.531 185.47 152.155 186.229 152.737L186.79 153.163C186.671 153.105 186.545 153.06 186.416 153.028C186.136 153.028 185.99 153.028 186.042 153.028C186.565 153.052 187.085 152.937 187.549 152.695C188.369 152.34 189.164 151.93 189.929 151.469C193.468 149.145 196.831 146.564 199.99 143.746L204.22 147.166C203.005 149.215 201.644 151.174 200.146 153.028C198.628 154.961 196.937 156.753 195.095 158.38C194.076 159.286 192.977 160.096 191.81 160.802C190.334 161.732 188.682 162.347 186.957 162.611C185.712 162.776 184.446 162.67 183.246 162.299C182.586 162.086 181.954 161.793 181.365 161.426L180.533 160.906C179.494 160.199 178.455 159.451 177.415 158.671C173.635 155.615 170.189 152.166 167.136 148.382C165.65 146.532 164.205 144.671 162.864 142.728C161.524 140.784 160.235 138.903 158.967 136.71L168.383 131.118Z" fill="#CE7A63"/>
<path d="M154.498 135.408C152.264 144.762 169.195 153.929 169.195 153.929L180.201 141.041C176.897 136.186 173.131 131.661 168.956 127.53C161.264 120.088 156.192 128.278 154.498 135.408Z" fill="#7694FF"/>
<path d="M198.92 145.761L201.518 137.446L208.357 140.855C208.357 140.855 207.318 146.936 202.381 147.996L198.92 145.761Z" fill="#CE7A63"/>
<path d="M204.262 135.108L210.426 136.803L208.358 140.825L201.519 137.416L204.262 135.108Z" fill="#CE7A63"/>
<path d="M151.765 98.0635C151.765 98.0635 154.27 107.137 144.042 112.999C143.475 112.666 142.829 112.491 142.171 112.491C141.514 112.491 140.868 112.666 140.301 112.999L135.811 107.885C135.811 107.885 138.045 99.4666 151.765 98.0635Z" fill="#263238"/>
<path opacity="0.3" d="M151.765 98.0635C151.765 98.0635 154.27 107.137 144.042 112.999C143.475 112.666 142.829 112.491 142.171 112.491C141.514 112.491 140.868 112.666 140.301 112.999L135.811 107.885C135.811 107.885 138.045 99.4666 151.765 98.0635Z" fill="white"/>
<path d="M151.764 98.065C151.764 98.065 160.578 81.321 151.879 76.7063C143.179 72.0915 149.405 80.9468 149.405 80.9468C149.405 80.9468 134.095 71.8421 141.558 82.0693C141.558 82.0693 123.348 81.5808 127.454 91.7354C127.454 91.7354 121.332 96.9321 127.942 103.283C127.942 103.283 120.968 106.515 132.1 107.139C132.131 107.139 126.685 119.808 151.764 98.065Z" fill="#263238"/>
<path d="M148.709 99.6457C149.217 101.474 150.313 103.085 151.827 104.229C153.833 105.716 155.33 104.229 155.184 101.984C155.059 99.9055 153.864 96.7251 151.65 96.1223C149.436 95.5194 148.137 97.4319 148.709 99.6457Z" fill="#CE7A63"/>
<path d="M207.96 270.112C207.181 270.112 206.477 269.979 205.848 269.712C205.229 269.445 204.739 269.061 204.376 268.56C204.013 268.059 203.827 267.467 203.816 266.784H206.216C206.248 267.243 206.408 267.605 206.696 267.872C206.995 268.139 207.4 268.272 207.912 268.272C208.435 268.272 208.845 268.149 209.144 267.904C209.443 267.648 209.592 267.317 209.592 266.912C209.592 266.581 209.491 266.309 209.288 266.096C209.085 265.883 208.829 265.717 208.52 265.6C208.221 265.472 207.805 265.333 207.272 265.184C206.547 264.971 205.955 264.763 205.496 264.56C205.048 264.347 204.659 264.032 204.328 263.616C204.008 263.189 203.848 262.624 203.848 261.92C203.848 261.259 204.013 260.683 204.344 260.192C204.675 259.701 205.139 259.328 205.736 259.072C206.333 258.805 207.016 258.672 207.784 258.672C208.936 258.672 209.869 258.955 210.584 259.52C211.309 260.075 211.709 260.853 211.784 261.856H209.32C209.299 261.472 209.133 261.157 208.824 260.912C208.525 260.656 208.125 260.528 207.624 260.528C207.187 260.528 206.835 260.64 206.568 260.864C206.312 261.088 206.184 261.413 206.184 261.84C206.184 262.139 206.28 262.389 206.472 262.592C206.675 262.784 206.92 262.944 207.208 263.072C207.507 263.189 207.923 263.328 208.456 263.488C209.181 263.701 209.773 263.915 210.232 264.128C210.691 264.341 211.085 264.661 211.416 265.088C211.747 265.515 211.912 266.075 211.912 266.768C211.912 267.365 211.757 267.92 211.448 268.432C211.139 268.944 210.685 269.355 210.088 269.664C209.491 269.963 208.781 270.112 207.96 270.112ZM217.374 260.64V263.44H221.134V265.216H217.374V268.176H221.614V270H215.134V258.816H221.614V260.64H217.374ZM230.69 270L228.226 265.648H227.17V270H224.93V258.832H229.122C229.986 258.832 230.722 258.987 231.33 259.296C231.938 259.595 232.391 260.005 232.69 260.528C232.999 261.04 233.154 261.616 233.154 262.256C233.154 262.992 232.94 263.659 232.514 264.256C232.087 264.843 231.452 265.248 230.61 265.472L233.282 270H230.69ZM227.17 263.968H229.042C229.65 263.968 230.103 263.824 230.402 263.536C230.7 263.237 230.85 262.827 230.85 262.304C230.85 261.792 230.7 261.397 230.402 261.12C230.103 260.832 229.65 260.688 229.042 260.688H227.17V263.968ZM246.492 258.832L242.396 270H239.676L235.58 258.832H237.98L241.052 267.712L244.108 258.832H246.492ZM251.355 258.832V270H249.115V258.832H251.355ZM254.304 264.4C254.304 263.301 254.549 262.32 255.04 261.456C255.541 260.581 256.218 259.904 257.072 259.424C257.936 258.933 258.901 258.688 259.968 258.688C261.216 258.688 262.309 259.008 263.248 259.648C264.186 260.288 264.842 261.173 265.216 262.304H262.64C262.384 261.771 262.021 261.371 261.552 261.104C261.093 260.837 260.56 260.704 259.952 260.704C259.301 260.704 258.72 260.859 258.208 261.168C257.706 261.467 257.312 261.893 257.024 262.448C256.746 263.003 256.608 263.653 256.608 264.4C256.608 265.136 256.746 265.787 257.024 266.352C257.312 266.907 257.706 267.339 258.208 267.648C258.72 267.947 259.301 268.096 259.952 268.096C260.56 268.096 261.093 267.963 261.552 267.696C262.021 267.419 262.384 267.013 262.64 266.48H265.216C264.842 267.621 264.186 268.512 263.248 269.152C262.32 269.781 261.226 270.096 259.968 270.096C258.901 270.096 257.936 269.856 257.072 269.376C256.218 268.885 255.541 268.208 255.04 267.344C254.549 266.48 254.304 265.499 254.304 264.4ZM270.649 260.64V263.44H274.409V265.216H270.649V268.176H274.889V270H268.409V258.816H274.889V260.64H270.649ZM282.061 270.112C281.282 270.112 280.578 269.979 279.949 269.712C279.33 269.445 278.839 269.061 278.477 268.56C278.114 268.059 277.927 267.467 277.917 266.784H280.317C280.349 267.243 280.509 267.605 280.797 267.872C281.095 268.139 281.501 268.272 282.013 268.272C282.535 268.272 282.946 268.149 283.245 267.904C283.543 267.648 283.693 267.317 283.693 266.912C283.693 266.581 283.591 266.309 283.389 266.096C283.186 265.883 282.93 265.717 282.621 265.6C282.322 265.472 281.906 265.333 281.373 265.184C280.647 264.971 280.055 264.763 279.597 264.56C279.149 264.347 278.759 264.032 278.429 263.616C278.109 263.189 277.949 262.624 277.949 261.92C277.949 261.259 278.114 260.683 278.445 260.192C278.775 259.701 279.239 259.328 279.837 259.072C280.434 258.805 281.117 258.672 281.885 258.672C283.037 258.672 283.97 258.955 284.685 259.52C285.41 260.075 285.81 260.853 285.885 261.856H283.421C283.399 261.472 283.234 261.157 282.925 260.912C282.626 260.656 282.226 260.528 281.725 260.528C281.287 260.528 280.935 260.64 280.669 260.864C280.413 261.088 280.285 261.413 280.285 261.84C280.285 262.139 280.381 262.389 280.573 262.592C280.775 262.784 281.021 262.944 281.309 263.072C281.607 263.189 282.023 263.328 282.557 263.488C283.282 263.701 283.874 263.915 284.333 264.128C284.791 264.341 285.186 264.661 285.517 265.088C285.847 265.515 286.013 266.075 286.013 266.768C286.013 267.365 285.858 267.92 285.549 268.432C285.239 268.944 284.786 269.355 284.189 269.664C283.591 269.963 282.882 270.112 282.061 270.112Z" fill="black"/>
</g>
</svg>
